<?xml version="1.0" standalone="no"?>
<!DOCTYPE svg PUBLIC "-//W3C//DTD SVG 20010904//EN"
 "http://www.w3.org/TR/2001/REC-SVG-20010904/DTD/svg10.dtd">
<svg version="1.0" xmlns="http://www.w3.org/2000/svg"
 width="1486.000000pt" height="1484.000000pt" viewBox="0 0 1486.000000 1484.000000"
 preserveAspectRatio="xMidYMid meet">

<g transform="translate(0.000000,1484.000000) scale(0.100000,-0.100000)"
fill="#000000" stroke="none">
<path d="M7144 14455 c-14 -14 -30 -23 -35 -20 -17 11 -9 -28 8 -41 10 -7 15
-16 11 -20 -4 -4 -16 3 -26 16 -10 12 -29 23 -43 23 -16 1 -26 8 -25 17 1 8
-8 16 -19 18 -15 2 -17 1 -6 -6 11 -8 4 -15 -30 -30 l-44 -19 -27 28 c-32 34
-35 35 -63 9 -19 -18 -26 -19 -49 -8 -22 10 -29 9 -36 -2 -9 -14 -50 -22 -50
-10 0 4 10 12 23 18 22 10 21 11 -6 11 -31 1 -80 -26 -71 -40 3 -5 -6 -9 -21
-9 -14 0 -28 6 -31 13 -5 15 -34 19 -34 5 0 -4 4 -8 9 -8 5 0 11 -16 13 -35 4
-34 -4 -46 -18 -24 -3 6 -18 9 -33 6 l-26 -5 23 15 c21 15 21 17 7 33 -16 18
-55 17 -55 -1 0 -5 -7 -9 -15 -9 -8 0 -15 -6 -15 -14 0 -19 -30 -42 -38 -30
-4 5 -18 15 -31 22 -21 12 -23 12 -18 -1 3 -9 -2 -21 -11 -29 -15 -12 -16 -11
-3 5 15 19 2 24 -17 5 -14 -14 -23 -7 -25 20 -1 17 -4 19 -20 10 -16 -8 -17
-12 -6 -18 8 -6 1 -8 -21 -8 -19 1 -29 3 -22 5 6 3 9 10 6 15 -4 7 -2 8 4 4 7
-4 12 -2 12 3 0 6 -12 11 -26 11 -14 0 -23 -4 -19 -10 4 -6 -14 -10 -48 -10
-64 0 -318 -51 -537 -108 -225 -59 -210 -50 -210 -119 0 -32 5 -75 9 -97 11
-43 -11 -106 -36 -106 -8 0 -11 5 -7 12 7 11 6 229 -1 236 -1 2 -15 0 -30 -4
l-28 -7 7 -91 c13 -165 10 -231 -8 -234 -12 -3 -14 1 -8 17 4 12 4 56 0 99 -3
42 -7 105 -7 140 -1 62 -5 69 -29 54 -16 -11 -17 -41 -4 -177 7 -68 7 -114 1
-120 -15 -15 -10 -25 7 -18 14 5 16 2 10 -20 -7 -30 -57 -113 -68 -113 -3 1
-10 -3 -15 -8 -5 -5 -3 -6 5 -2 15 9 16 -17 2 -42 -15 -25 -70 -201 -70 -223
0 -10 -11 -42 -24 -71 -53 -117 -69 -158 -64 -164 3 -3 -2 -22 -12 -42 -10
-20 -15 -38 -10 -40 5 -2 0 -24 -11 -50 -11 -26 -22 -74 -25 -107 -3 -33 -10
-78 -16 -100 -6 -22 -11 -47 -12 -55 -5 -43 -30 -138 -42 -162 -16 -31 -18
-52 -4 -43 7 4 8 -8 4 -37 -4 -32 -3 -39 5 -28 6 8 11 23 11 33 0 9 4 17 8 17
5 0 6 -17 3 -37 -5 -28 -12 -38 -24 -37 -12 1 -17 -6 -17 -22 0 -13 4 -24 9
-24 5 0 12 -30 16 -67 4 -38 8 -85 11 -105 2 -21 -1 -49 -6 -63 -6 -16 -6 -25
0 -25 6 0 6 -10 0 -26 -13 -32 -12 -37 0 -29 6 3 10 15 10 26 0 11 7 19 16 19
12 0 15 -6 10 -25 -4 -17 -2 -25 6 -25 10 0 10 -2 1 -8 -13 -8 -15 -72 -1 -72
4 0 8 -9 8 -21 0 -11 -4 -17 -10 -14 -5 3 -10 0 -10 -8 0 -11 11 -13 45 -11
25 3 45 1 45 -2 0 -3 -19 -25 -42 -49 -87 -87 -108 -115 -118 -157 -14 -62
-12 -135 5 -219 9 -41 20 -96 25 -124 18 -89 83 -296 90 -285 11 17 38 1 45
-28 15 -59 40 -65 97 -25 34 23 38 31 36 62 -1 20 -7 39 -12 43 -6 4 3 8 21 8
17 0 34 -4 37 -9 10 -15 5 -121 -5 -121 -4 0 -9 -22 -13 -49 -4 -27 -12 -52
-19 -54 -9 -4 -8 -8 3 -17 11 -9 12 -13 3 -17 -18 -7 -16 -26 2 -19 9 3 15 0
15 -9 0 -22 -4 -30 -14 -27 -5 2 -6 -4 -3 -11 3 -9 -4 -19 -19 -26 -15 -6 -24
-7 -24 -1 0 6 -9 10 -21 10 -11 0 -30 10 -41 23 l-19 22 18 -34 c10 -18 35
-48 57 -65 21 -17 60 -50 86 -74 l48 -43 7 58 c4 32 13 87 21 122 7 36 10 69
7 74 -3 6 -1 7 5 3 7 -4 20 -2 29 3 17 10 16 10 -2 11 -18 1 -18 2 -3 11 10 5
15 16 12 24 -4 8 -1 15 5 15 7 0 9 9 5 25 -3 14 -2 25 4 25 22 0 21 36 -3 82
-14 26 -39 83 -56 126 -16 42 -37 92 -45 110 -39 84 -64 224 -64 358 0 138 12
197 38 192 18 -4 26 -38 9 -38 -7 -1 -2 -9 10 -19 31 -26 48 -72 31 -83 -10
-6 -8 -8 5 -8 16 0 16 -2 1 -25 -15 -23 -15 -25 0 -19 11 4 16 1 16 -12 1 -11
3 -36 6 -57 3 -21 1 -51 -5 -68 -7 -19 -7 -37 -2 -48 6 -10 5 -24 -1 -35 -8
-14 -7 -17 1 -12 23 15 22 -25 -4 -75 -15 -30 -19 -47 -11 -40 20 17 35 6 29
-22 -4 -17 0 -15 18 11 l22 34 36 -81 c19 -44 36 -79 38 -78 1 2 -3 22 -9 47
-9 33 -9 45 0 48 7 2 12 11 12 20 0 10 7 26 15 36 8 11 15 35 15 53 0 18 4 33
9 33 5 0 12 10 15 23 3 12 19 37 36 56 16 18 30 41 31 50 0 10 2 12 6 3 2 -6
9 -10 13 -7 5 3 7 12 4 19 -4 10 2 12 20 9 16 -3 23 -10 19 -19 -3 -8 1 -14 8
-14 20 -1 59 -36 59 -54 0 -8 4 -17 9 -21 5 -3 12 -18 16 -34 7 -33 44 -81 63
-81 7 0 12 -5 12 -11 0 -7 11 -9 30 -5 17 3 30 1 30 -4 0 -6 11 -15 24 -20 16
-6 26 -20 31 -42 15 -70 68 -161 133 -230 120 -126 311 -197 497 -185 44 3
100 12 125 21 25 10 50 18 55 19 14 3 59 35 103 73 40 34 74 47 167 64 100 18
105 20 105 34 0 8 14 19 31 25 41 14 39 15 39 -13 0 -13 14 -39 31 -57 38 -41
89 -127 89 -152 0 -10 7 -34 17 -55 9 -20 15 -43 14 -50 -8 -47 123 -167 244
-222 103 -48 155 -60 259 -60 147 0 286 67 373 180 l36 45 -6 -60 c-3 -33 -3
-54 0 -47 9 23 22 12 30 -27 l8 -38 38 23 c75 48 137 169 137 268 0 55 -9 70
-45 78 -13 4 -5 8 24 13 36 7 45 13 57 41 8 18 15 48 16 66 3 36 31 74 47 64
5 -4 15 3 21 14 6 11 16 20 23 20 13 0 30 17 60 60 28 41 20 -1 -9 -45 l-27
-40 37 34 c20 19 36 42 36 50 0 14 1 14 10 1 8 -12 10 -12 10 5 0 11 14 40 30
64 17 24 30 40 30 35 0 -12 35 49 65 114 14 28 29 52 35 52 5 0 10 8 10 19 0
10 11 26 24 34 20 13 25 27 30 84 9 94 27 205 36 223 4 8 4 47 -1 85 -4 43 -4
74 2 80 7 7 8 4 4 -7 -4 -11 -2 -18 4 -18 15 0 14 23 -1 38 -10 10 -10 15 1
21 8 5 11 16 8 24 -3 8 -1 19 4 24 11 11 15 96 5 112 -16 26 -25 136 -14 181
5 25 10 68 9 95 -2 79 -32 237 -48 253 -9 10 -11 18 -4 25 6 6 5 15 -5 24 -8
8 -14 20 -14 26 0 7 5 6 11 -3 9 -12 10 -12 5 3 -3 10 -6 21 -6 23 0 3 -5 2
-10 -1 -7 -4 -10 6 -9 27 2 60 -13 160 -23 146 -5 -8 -6 -2 -2 15 7 28 -15 85
-45 116 -9 11 -10 16 -2 19 14 5 15 39 1 47 -5 3 -10 1 -10 -5 0 -6 -5 -8 -11
-4 -8 4 -7 9 2 15 11 7 8 19 -15 61 -16 29 -34 60 -41 68 -13 16 -30 69 -26
84 1 5 -5 17 -14 26 -9 10 -18 34 -19 53 -3 35 -29 82 -45 82 -19 0 -51 48
-45 67 3 11 0 20 -10 24 -9 3 -16 15 -16 25 0 11 -7 22 -15 25 -8 4 -15 12
-15 20 0 7 -9 18 -21 24 -20 11 -20 11 -3 -17 l18 -28 -22 19 c-13 11 -20 26
-17 35 3 11 -16 38 -53 76 -56 59 -141 135 -150 135 -2 0 -21 13 -42 30 -21
16 -57 41 -81 55 -24 14 -37 25 -29 26 8 1 2 5 -15 9 -28 7 -29 8 -8 15 13 4
20 11 17 17 -4 5 -10 5 -17 0 -15 -12 -79 -14 -72 -2 6 10 -12 23 -35 27 -14
2 -30 18 -72 74 -10 12 -21 19 -25 14 -5 -4 -2 -10 5 -12 19 -7 14 -20 -9 -26
-20 -6 -59 22 -59 43 0 6 -9 10 -20 10 -11 0 -23 7 -26 15 -5 12 -10 13 -20 5
-7 -7 -10 -18 -8 -25 4 -9 0 -12 -13 -9 -20 6 -28 40 -12 49 14 9 11 22 -7 29
-12 4 -15 2 -10 -9 4 -12 -3 -15 -32 -15 -27 0 -33 3 -22 10 8 5 12 12 8 15
-10 10 -58 -6 -55 -19 1 -6 -5 -11 -13 -11 -8 0 -14 6 -12 13 1 6 -8 12 -20
13 -18 0 -19 2 -7 7 14 6 14 9 -2 26 -11 11 -20 15 -20 8 -1 -7 -3 -16 -4 -22
-1 -5 -3 -17 -4 -25 -2 -25 -16 -17 -30 18 -9 24 -14 28 -19 17 -19 -43 -64
-85 -55 -52 2 11 -3 26 -12 36 -15 15 -15 16 1 16 10 0 15 3 11 6 -3 4 -20 2
-36 -4 -25 -9 -31 -8 -31 3 0 8 -10 23 -22 35 -23 21 -38 13 -37 -20 0 -10 2
-11 6 -2 8 21 23 13 21 -13 -3 -29 -28 -34 -52 -10 -19 19 -21 19 -23 -5 -1
-12 4 -20 14 -20 12 0 13 -3 4 -14 -17 -20 -49 -26 -55 -10 -3 8 -1 14 4 14 6
0 0 11 -12 25 -12 13 -23 36 -24 51 -3 29 -11 41 -20 31 -4 -4 -2 -13 5 -20
13 -16 5 -47 -13 -47 -6 0 -17 -9 -24 -20 -14 -22 -34 -27 -31 -7 3 28 -2 48
-11 42 -18 -11 -11 8 12 32 29 31 14 29 -18 -2z m-264 -35 c0 -5 -4 -10 -10
-10 -5 0 -10 5 -10 10 0 6 5 10 10 10 6 0 10 -4 10 -10z m383 -47 c-7 -3 -9
-11 -6 -19 3 -8 0 -14 -6 -14 -6 0 -11 11 -11 25 0 19 4 23 17 18 10 -4 12 -8
6 -10z m141 -9 c9 -23 7 -34 -4 -34 -5 0 -10 6 -10 14 0 8 -5 18 -11 22 -8 5
-10 -1 -7 -18 3 -16 -2 -35 -13 -49 -15 -19 -19 -20 -19 -7 0 9 6 18 13 21 9
3 9 9 1 23 -8 14 -8 22 0 31 16 17 43 16 50 -3z m156 12 c0 -3 -4 -16 -9 -30
-7 -17 -6 -27 3 -35 7 -6 16 -8 19 -4 4 3 7 1 7 -5 0 -19 -21 -14 -41 10 -20
22 -26 54 -9 43 6 -3 10 1 10 9 0 9 5 16 10 16 6 0 10 -2 10 -4z m-603 -22
c-3 -3 -12 -4 -19 -1 -8 3 -5 6 6 6 11 1 17 -2 13 -5z m-167 -8 c0 -3 -4 -8
-10 -11 -5 -3 -10 -1 -10 4 0 6 5 11 10 11 6 0 10 -2 10 -4z m-590 -35 c0 -5
-9 -11 -20 -14 -22 -6 -28 8 -7 16 19 8 27 8 27 -2z m68 -3 c-3 -7 -13 -15
-24 -17 -16 -3 -17 -1 -5 13 16 19 34 21 29 4z m1402 -18 c0 -6 -9 -2 -20 7
-11 10 -20 19 -20 21 0 1 9 -2 20 -8 11 -6 20 -15 20 -20z m-750 10 c0 -5 -5
-10 -11 -10 -5 0 -7 5 -4 10 3 6 8 10 11 10 2 0 4 -4 4 -10z m956 -6 c-3 -9
-6 -18 -6 -20 0 -3 -4 -3 -10 1 -11 7 -2 35 12 35 6 0 7 -7 4 -16z m-490 -108
c1 -60 -2 -81 -10 -73 -11 9 -11 57 0 125 3 17 6 32 8 32 1 0 2 -38 2 -84z
m584 44 c0 -12 -5 -17 -14 -14 -8 3 -12 13 -9 25 6 23 23 15 23 -11z m-1830
10 c0 -5 -5 -10 -11 -10 -5 0 -7 5 -4 10 3 6 8 10 11 10 2 0 4 -4 4 -10z m820
2 c0 -5 -7 -17 -15 -28 -14 -18 -14 -17 -4 9 12 27 19 34 19 19z m-606 -17
c-4 -8 -13 -15 -20 -15 -12 0 -12 3 -2 15 17 19 29 19 22 0z m-234 -16 c0 -6
-4 -7 -10 -4 -5 3 -10 11 -10 16 0 6 5 7 10 4 6 -3 10 -11 10 -16z m330 13 c0
-13 -12 -22 -22 -16 -10 6 -1 24 13 24 5 0 9 -4 9 -8z m1117 -24 c-3 -7 -5 -2
-5 12 0 14 2 19 5 13 2 -7 2 -19 0 -25z m133 -8 c0 -13 -1 -13 -10 0 -5 8 -10
22 -10 30 0 13 1 13 10 0 5 -8 10 -22 10 -30z m306 16 c2 -14 0 -15 -12 -5
-17 14 -19 32 -2 27 6 -2 12 -12 14 -22z m-1134 -8 c-7 -7 -12 -8 -12 -2 0 14
12 26 19 19 2 -3 -1 -11 -7 -17z m1183 -8 c-3 -5 -10 -10 -16 -10 -5 0 -9 5
-9 10 0 6 7 10 16 10 8 0 12 -4 9 -10z m-1694 -53 c-10 -9 -11 -8 -5 6 3 10 9
15 12 12 3 -3 0 -11 -7 -18z m449 -6 c-5 -11 -15 -23 -21 -27 -6 -3 -3 5 6 20
20 30 30 35 15 7z m-760 -56 c-7 -9 -15 -13 -18 -10 -3 2 1 11 8 20 7 9 15 13
18 10 3 -2 -1 -11 -8 -20z m700 11 c0 -2 -8 -10 -17 -17 -16 -13 -17 -12 -4 4
13 16 21 21 21 13z m-750 -16 c0 -5 -5 -10 -11 -10 -5 0 -7 5 -4 10 3 6 8 10
11 10 2 0 4 -4 4 -10z m766 -28 c-17 -16 -18 -16 -5 5 7 12 15 20 18 17 3 -2
-3 -12 -13 -22z m1411 -154 c-3 -8 -6 -5 -6 6 -1 11 2 17 5 13 3 -3 4 -12 1
-19z m298 11 c11 -17 -1 -21 -15 -4 -8 9 -8 15 -2 15 6 0 14 -5 17 -11z
m-1404 -42 c-10 -9 -11 -8 -5 6 3 10 9 15 12 12 3 -3 0 -11 -7 -18z m-1838
-297 c-3 -12 -8 -19 -11 -16 -5 6 5 36 12 36 2 0 2 -9 -1 -20z m-257 -926 c-8
-21 -15 -31 -15 -22 -1 18 20 70 26 65 2 -2 -3 -21 -11 -43z m4024 -116 c0 -5
-4 -8 -10 -8 -5 0 -10 10 -10 23 0 18 2 19 10 7 5 -8 10 -18 10 -22z m2 -333
c-6 -34 -12 -32 -12 6 0 16 4 28 9 25 4 -3 6 -17 3 -31z m-2471 -261 c39 -9
68 -18 66 -20 -2 -3 -23 -1 -46 5 -22 5 -39 5 -36 1 3 -5 -1 -11 -7 -13 -7 -3
-1 -6 14 -6 15 -1 30 -6 34 -13 5 -7 2 -9 -9 -5 -11 4 -14 2 -11 -7 6 -16 -11
-29 -44 -32 -13 -2 -32 -10 -43 -20 -12 -11 -30 -15 -53 -12 -20 2 -37 -1 -40
-7 -2 -7 -8 -6 -16 2 -7 6 -19 9 -26 6 -8 -3 -15 0 -15 6 -1 6 -2 16 -3 23 0
6 -7 13 -15 16 -9 3 -11 0 -6 -8 4 -7 -5 -5 -24 4 -17 9 -31 18 -31 19 0 2 16
3 36 3 39 0 58 19 43 45 -6 12 -5 19 4 22 27 12 162 6 228 -9z m-273 -11 c-15
-2 -48 -15 -74 -29 -26 -14 -49 -23 -51 -20 -10 9 93 55 122 54 30 -1 30 -1 3
-5z m557 -114 c11 -17 -1 -21 -15 -4 -8 9 -8 15 -2 15 6 0 14 -5 17 -11z m-75
-9 c0 -5 -2 -10 -4 -10 -3 0 -8 5 -11 10 -3 6 -1 10 4 10 6 0 11 -4 11 -10z
m60 -30 c16 0 32 -4 35 -10 4 -6 -7 -10 -25 -10 -18 0 -29 -4 -25 -10 7 -11
-9 -13 -42 -4 -13 4 -21 13 -20 24 0 10 6 16 13 13 6 -2 15 6 19 19 l8 23 4
-22 c3 -18 11 -23 33 -23z m106 -47 c-7 -7 -26 7 -26 19 0 6 6 6 15 -2 9 -7
13 -15 11 -17z m-81 7 c-3 -5 -10 -10 -16 -10 -5 0 -9 5 -9 10 0 6 7 10 16 10
8 0 12 -4 9 -10z m-153 -60 c56 -6 114 -16 128 -22 l25 -11 -30 -8 c-134 -36
-124 -35 -149 -4 -13 16 -29 29 -37 31 -24 4 -69 23 -69 30 0 3 6 4 14 1 8 -3
61 -11 118 -17z m-932 -34 c0 -11 -19 -15 -25 -6 -3 5 1 10 9 10 9 0 16 -2 16
-4z m335 -92 c21 -2 43 -8 49 -14 5 -5 18 -10 28 -10 10 0 18 -4 18 -8 0 -4
27 -25 60 -46 33 -21 60 -42 60 -47 0 -5 -23 -7 -50 -5 -28 2 -49 1 -46 -1 3
-3 -18 -27 -47 -55 -28 -27 -43 -46 -34 -42 16 6 22 -4 18 -33 -1 -7 3 -13 9
-13 6 0 8 5 5 10 -3 6 -1 10 4 10 6 0 11 -5 11 -11 0 -5 3 -8 8 -5 17 10 75
-10 78 -27 3 -20 -12 -23 -19 -4 -3 6 -6 2 -6 -10 -1 -16 -7 -23 -20 -23 -11
0 -32 -5 -48 -11 -25 -11 -12 -14 122 -35 238 -36 301 -40 321 -19 11 11 26
15 43 12 42 -9 121 -45 121 -56 0 -22 -92 -63 -172 -77 -158 -28 -337 23 -448
126 -32 29 -32 31 -14 45 15 11 16 16 6 23 -7 5 -12 13 -11 18 1 5 1 16 -1 24
-1 13 -3 12 -8 -1 -11 -27 -48 -5 -72 42 -27 52 -50 157 -50 231 l0 56 23 -20
c13 -11 40 -22 62 -24z m165 -15 c0 -4 10 -9 23 -13 12 -3 38 -20 57 -37 28
-25 29 -29 8 -15 -15 9 -34 16 -42 16 -7 0 -17 7 -20 15 -3 9 -15 15 -28 13
-13 -2 -24 1 -25 6 -1 5 -7 13 -15 17 -9 6 -4 8 15 7 15 -1 27 -5 27 -9z
m-323 -51 c-2 -13 -4 -5 -4 17 -1 22 1 32 4 23 2 -10 2 -28 0 -40z m2304 -35
c13 -16 12 -17 -3 -4 -17 13 -22 21 -14 21 2 0 10 -8 17 -17z m-371 -3 c0 -5
-4 -10 -10 -10 -5 0 -10 5 -10 10 0 6 5 10 10 10 6 0 10 -4 10 -10z m-227 -33
c31 -12 57 -25 57 -29 0 -8 -124 -48 -150 -48 -10 0 -29 6 -44 13 l-26 14 25
11 c30 14 32 32 5 39 -16 4 -18 8 -9 19 14 18 60 11 142 -19z m-2533 -42 c0
-8 -4 -15 -10 -15 -5 0 -10 7 -10 15 0 8 5 15 10 15 6 0 10 -7 10 -15z m3264
-57 l19 -33 -26 24 c-27 24 -34 41 -19 41 4 0 16 -15 26 -32z m-3014 -45 c0
-27 -3 -34 -11 -26 -7 7 -9 23 -5 37 9 37 16 32 16 -11z m935 -65 c-6 -16 -55
-22 -55 -7 0 5 5 10 10 10 6 1 14 2 19 3 5 0 13 4 17 9 11 10 15 2 9 -15z
m1646 -138 c19 -10 26 -30 12 -30 -5 0 -19 9 -33 20 -26 21 -12 27 21 10z
m-386 -172 c24 -13 45 -29 45 -35 0 -7 5 -13 11 -13 5 0 7 4 4 10 -3 6 1 7 9
4 9 -3 14 -9 11 -14 -2 -4 7 -12 21 -19 31 -14 44 -14 24 0 -11 8 -9 9 10 3
57 -16 74 -25 62 -33 -8 -5 21 -21 80 -44 97 -39 118 -44 118 -27 0 15 31 11
74 -9 35 -17 37 -19 18 -25 -12 -4 -22 -11 -22 -16 0 -16 -83 -33 -160 -32
-83 0 -175 26 -241 67 -21 14 -42 25 -46 25 -18 2 -123 151 -123 175 0 13 65
3 105 -17z m790 -25 c-2 -16 -7 -45 -10 -67 -4 -21 -9 -35 -12 -32 -7 7 -5 83
3 108 9 28 24 21 19 -9z"/>
<path d="M6454 11879 c1 -32 10 -38 20 -13 3 8 0 22 -8 29 -11 11 -13 9 -12
-16z"/>
<path d="M6360 11830 c0 -5 5 -10 10 -10 6 0 10 5 10 10 0 6 -4 10 -10 10 -5
0 -10 -4 -10 -10z"/>
<path d="M6417 11833 c-13 -13 -7 -21 13 -16 11 3 17 9 14 14 -6 11 -18 12
-27 2z"/>
<path d="M6066 11287 c3 -10 9 -15 12 -12 3 3 0 11 -7 18 -10 9 -11 8 -5 -6z"/>
<path d="M7261 14464 c0 -11 3 -14 6 -6 3 7 2 16 -1 19 -3 4 -6 -2 -5 -13z"/>
<path d="M7028 14463 c7 -3 16 -2 19 1 4 3 -2 6 -13 5 -11 0 -14 -3 -6 -6z"/>
<path d="M7105 14460 c-3 -5 -1 -10 4 -10 6 0 11 5 11 10 0 6 -2 10 -4 10 -3
0 -8 -4 -11 -10z"/>
<path d="M6920 14439 c12 -21 19 -23 37 -11 8 5 3 11 -17 19 -28 10 -29 10
-20 -8z"/>
<path d="M7488 14433 c6 -2 18 -2 25 0 6 3 1 5 -13 5 -14 0 -19 -2 -12 -5z"/>
<path d="M7771 14414 c0 -11 3 -14 6 -6 3 7 2 16 -1 19 -3 4 -6 -2 -5 -13z"/>
<path d="M6392 14402 c-10 -7 -9 -12 4 -23 16 -12 17 -12 11 5 -6 16 -5 17 8
6 12 -10 19 -10 27 -2 9 9 9 12 1 12 -6 0 -17 2 -25 5 -7 3 -19 1 -26 -3z"/>
<path d="M8323 14083 c14 -16 15 -22 5 -25 -7 -3 8 -5 32 -5 25 0 36 2 25 4
-11 3 -33 15 -50 26 l-30 21 18 -21z"/>
<path d="M8650 13681 c16 -31 32 -36 18 -7 -6 14 -15 26 -20 26 -5 0 -4 -9 2
-19z"/>
<path d="M4953 12755 c-3 -9 -3 -18 -1 -21 3 -3 8 4 11 16 6 23 -1 27 -10 5z"/>
<path d="M9010 12343 c0 -5 5 -15 10 -23 8 -12 10 -11 10 8 0 12 -4 22 -10 22
-5 0 -10 -3 -10 -7z"/>
<path d="M4931 12254 c0 -11 3 -14 6 -6 3 7 2 16 -1 19 -3 4 -6 -2 -5 -13z"/>
<path d="M9022 12070 c0 -14 2 -19 5 -12 2 6 2 18 0 25 -3 6 -5 1 -5 -13z"/>
<path d="M9002 11835 c0 -16 2 -22 5 -12 2 9 2 23 0 30 -3 6 -5 -1 -5 -18z"/>
<path d="M8918 11555 c-3 -14 -1 -25 3 -25 5 0 9 11 9 25 0 14 -2 25 -4 25 -2
0 -6 -11 -8 -25z"/>
<path d="M5351 11344 c0 -11 3 -14 6 -6 3 7 2 16 -1 19 -3 4 -6 -2 -5 -13z"/>
<path d="M5051 11104 c0 -11 3 -14 6 -6 3 7 2 16 -1 19 -3 4 -6 -2 -5 -13z"/>
<path d="M5430 11091 c0 -6 5 -13 10 -16 6 -4 8 -10 5 -15 -3 -4 2 -10 10 -14
10 -3 16 -21 17 -48 l1 -43 4 38 c3 26 -2 48 -17 72 -22 36 -30 42 -30 26z"/>
<path d="M5203 11058 c2 -12 9 -24 15 -26 6 -2 9 5 7 15 -2 10 -4 21 -4 26 -1
4 -5 7 -11 7 -5 0 -8 -10 -7 -22z"/>
<path d="M5433 10525 c0 -27 2 -38 4 -22 2 15 2 37 0 50 -2 12 -4 0 -4 -28z"/>
<path d="M5327 10501 c-6 -24 6 -101 34 -201 l22 -83 18 59 c11 35 18 85 17
124 0 36 -3 53 -5 38 -5 -34 -16 -35 -36 -5 -10 16 -12 28 -5 40 7 13 5 17 -7
17 -8 0 -15 7 -15 15 0 21 -17 19 -23 -4z"/>
<path d="M5280 10213 c-19 -26 -58 -77 -87 -115 -29 -37 -56 -75 -61 -83 -5
-10 -89 -40 -213 -76 -254 -75 -300 -95 -474 -202 -77 -47 -158 -97 -180 -110
-22 -13 -89 -36 -150 -51 -144 -35 -290 -83 -340 -111 -22 -13 -83 -41 -135
-64 -97 -42 -140 -69 -463 -291 -406 -278 -542 -391 -683 -570 -215 -271 -313
-432 -445 -725 -34 -77 -73 -154 -86 -172 -13 -17 -32 -53 -43 -80 -91 -238
-124 -341 -161 -503 -17 -74 -32 -136 -33 -137 -1 -1 -60 4 -132 11 -71 8
-165 17 -209 21 -44 4 -105 11 -135 16 -79 13 -102 10 -50 -7 72 -23 83 -36
175 -204 61 -112 105 -183 118 -188 4 -2 7 -9 7 -15 0 -6 18 -60 41 -120 l41
-108 -60 -152 c-170 -428 -398 -1214 -494 -1700 l-9 -48 119 -232 c438 -856
1046 -1609 1810 -2240 l93 -77 34 15 c19 8 52 22 73 31 346 149 2054 907 2212
982 102 49 131 68 56 37 -20 -9 -41 -13 -46 -10 -13 8 20 75 37 75 17 0 17 17
1 23 -10 4 -10 6 0 6 6 1 12 7 12 14 0 8 11 36 25 63 14 27 25 55 25 62 0 7 6
23 14 35 8 12 17 40 21 62 4 22 10 45 15 50 4 6 10 27 14 48 4 20 11 37 16 37
7 0 15 25 33 107 2 7 6 16 10 19 4 4 7 16 7 27 0 11 6 25 14 31 8 6 17 25 19
42 3 17 9 39 15 50 6 10 32 87 57 169 26 83 51 163 56 179 11 37 11 36 -3 36
-7 -1 -30 -27 -51 -59 -52 -80 -65 -90 -139 -107 -82 -19 -111 -30 -179 -71
-64 -39 -182 -83 -219 -82 -24 1 -24 1 4 9 15 5 37 17 49 27 11 10 17 12 13 6
-9 -15 7 -17 32 -3 9 5 38 18 65 29 26 11 47 25 47 30 0 6 8 11 18 11 10 0 22
4 28 10 5 5 35 18 66 29 39 13 68 32 93 60 20 22 45 43 56 46 11 4 24 18 29
31 5 13 17 24 27 24 15 0 16 2 3 10 -12 8 -9 10 13 10 15 0 36 9 47 20 11 11
25 20 31 20 5 0 7 5 4 10 -3 6 1 10 9 10 9 0 16 6 16 14 0 8 10 22 22 30 12 9
18 16 13 16 -6 1 4 8 20 17 17 9 25 18 17 21 -8 2 -3 11 14 24 22 18 28 19 36
7 7 -10 8 -8 5 9 -3 13 -1 20 5 16 6 -4 7 7 3 29 -6 29 -3 37 19 55 14 11 26
28 26 37 0 12 5 15 16 11 9 -3 20 -6 25 -6 6 0 7 -5 4 -11 -5 -6 0 -6 12 1 26
17 43 56 30 69 -8 8 -8 14 1 23 15 15 16 32 1 22 -6 -3 -3 6 7 22 11 15 18 29
17 31 -2 2 -3 10 -3 19 0 11 6 15 20 11 16 -4 20 0 20 20 0 18 4 24 14 20 8
-3 17 1 20 9 3 9 1 12 -4 9 -6 -3 -10 1 -10 9 0 9 6 16 13 17 6 0 -1 5 -16 11
-22 8 -25 13 -17 24 9 10 8 18 -3 34 -13 19 -14 19 -30 2 -10 -10 -14 -22 -10
-27 5 -4 2 -5 -5 -1 -8 5 -21 1 -33 -10 -10 -9 -19 -13 -19 -8 0 5 -4 4 -8 -1
-7 -10 -27 -25 -91 -67 -53 -35 -167 -90 -141 -68 16 14 19 20 8 16 -10 -3
-20 0 -24 7 -4 7 -4 9 0 6 4 -4 18 4 31 17 13 13 31 24 39 24 8 0 16 3 18 8 2
4 26 18 53 32 28 14 53 29 57 35 4 5 13 10 20 10 7 0 14 4 15 9 3 19 34 28 50
14 15 -11 16 -11 10 6 -5 13 -3 17 6 13 19 -7 44 24 42 51 -1 11 2 19 7 16 4
-3 8 2 8 10 0 8 -5 18 -10 21 -6 4 -8 11 -4 16 3 6 -4 21 -15 33 -13 14 -19
29 -15 39 4 11 1 17 -8 17 -18 0 -58 33 -58 49 0 6 -7 11 -14 11 -12 0 -13 -6
-6 -28 13 -41 22 -132 13 -132 -13 1 -53 70 -53 91 0 10 -5 19 -11 19 -8 0 -8
4 -1 13 7 8 7 18 2 27 -11 18 -11 22 -16 -63 -2 -38 -11 -81 -19 -95 l-14 -27
-1 27 c0 15 -5 30 -12 34 -7 5 -9 2 -5 -9 7 -19 -12 -28 -35 -15 -12 5 -26 5
-39 -3 -13 -7 -19 -7 -15 -1 12 20 -13 23 -32 4 -27 -27 -52 -35 -52 -16 0 12
-3 12 -25 -2 -13 -8 -30 -12 -36 -8 -19 11 -99 13 -99 2 0 -5 -8 -7 -19 -3
-12 3 -21 0 -25 -10 -3 -9 -10 -13 -16 -10 -6 4 -8 11 -5 16 4 5 2 9 -4 9 -5
0 -13 -5 -17 -11 -3 -6 -15 -9 -25 -6 -11 3 -17 2 -14 -3 2 -4 -7 -8 -22 -7
-15 0 -29 -6 -31 -12 -3 -9 -8 -8 -20 1 -12 10 -16 10 -19 1 -3 -7 -12 -13
-21 -14 -11 0 -12 -2 -4 -6 6 -2 12 -9 12 -15 0 -6 -9 -3 -20 7 -11 10 -20 13
-20 7 0 -7 -5 -12 -11 -12 -5 0 -7 5 -4 10 3 6 -1 10 -9 10 -9 0 -16 -4 -16
-9 0 -14 -32 -22 -45 -11 -9 7 -21 7 -39 0 -36 -13 -36 -13 -36 9 0 30 11 51
26 51 8 0 22 4 32 9 37 20 91 41 104 41 17 0 96 29 83 30 -20 2 71 32 94 31
13 -1 29 5 35 13 11 14 55 27 89 27 9 0 15 4 12 8 -2 5 14 8 36 8 23 0 44 5
48 10 3 5 18 13 34 17 15 3 27 11 27 16 0 5 7 7 15 4 8 -4 15 -1 15 6 0 6 4 9
9 5 5 -3 12 -1 16 5 3 5 16 10 28 10 12 0 28 9 35 20 7 11 18 20 25 20 23 0
95 80 110 123 8 23 18 51 23 61 6 16 4 18 -19 14 -15 -3 -24 -2 -22 3 3 4 -11
24 -30 44 -19 21 -32 41 -29 46 3 5 0 9 -5 9 -20 0 -26 2 -38 12 -6 5 -10 15
-7 23 3 7 0 16 -6 20 -8 5 -8 11 1 21 14 17 2 18 -35 5 -13 -6 -26 -7 -29 -3
-2 4 -3 3 -2 -3 1 -5 -1 -20 -6 -32 -6 -15 -14 -20 -28 -16 -12 3 -19 9 -16
13 3 5 1 11 -5 15 -5 3 -10 1 -10 -5 0 -6 -4 -8 -10 -5 -5 3 -10 1 -10 -4 0
-6 -7 -11 -15 -11 -8 0 -15 -6 -15 -14 0 -24 -89 -40 -119 -22 -7 5 -15 5 -18
2 -4 -3 -16 1 -29 9 -20 13 -23 12 -28 -1 -3 -9 -15 -14 -28 -13 -13 2 -33 -3
-45 -9 -19 -10 -28 -10 -54 4 -24 12 -33 13 -39 4 -5 -7 -22 -11 -42 -8 -34 4
-63 -12 -50 -28 4 -4 1 -4 -6 0 -7 4 -10 12 -7 17 8 12 -10 12 -33 0 -37 -20
-112 -32 -133 -20 -23 12 -54 5 -44 -11 4 -6 12 -7 18 -4 9 5 9 4 0 -6 -6 -6
-31 -14 -55 -16 -23 -2 -58 -6 -75 -9 -22 -3 -33 -1 -33 8 -1 8 -5 7 -13 -3
-19 -24 -69 -19 -95 10 -18 18 -22 20 -18 7 3 -11 1 -17 -7 -16 -40 5 -120 -2
-108 -10 11 -7 9 -10 -8 -16 -11 -3 -25 -3 -31 0 -5 3 -10 1 -10 -4 0 -13 13
-13 63 -2 21 5 37 5 37 0 0 -5 -9 -9 -20 -9 -34 0 -22 -20 13 -21 l32 -1 -32
-14 c-18 -8 -33 -17 -33 -20 0 -3 5 -2 11 1 6 4 9 1 7 -8 -5 -24 42 -59 72
-52 23 5 23 4 8 -8 -18 -14 -25 -39 -10 -34 4 1 8 -3 9 -8 2 -6 -13 -10 -32
-10 -27 1 -32 -2 -23 -12 7 -9 30 -12 74 -9 35 2 67 0 70 -5 5 -9 -54 -13
-125 -9 -22 1 -31 -2 -27 -9 4 -6 3 -11 -2 -11 -6 0 -8 -9 -5 -20 5 -20 -11
-28 -22 -10 -6 10 -54 4 -95 -13 -14 -6 -32 -9 -39 -8 -13 2 -13 0 -2 -13 11
-14 11 -16 -3 -16 -9 0 -16 7 -16 15 0 8 -7 15 -15 15 -8 0 -15 -7 -15 -16 0
-9 -6 -14 -12 -11 -7 2 -21 0 -31 -5 -9 -5 -23 -5 -30 -1 -22 14 -36 11 -42
-8 -5 -15 -15 -19 -43 -17 -20 1 -40 6 -43 11 -4 5 -12 3 -20 -5 -7 -8 -22
-13 -34 -10 -19 3 -22 11 -22 73 -1 39 -6 75 -11 82 -6 7 -13 36 -17 64 -5 45
-3 53 15 63 11 6 19 16 17 22 -1 6 7 14 18 17 11 3 20 12 20 20 0 15 51 25 60
12 8 -14 58 -3 71 14 7 10 15 12 18 6 10 -16 46 -8 46 10 0 10 13 22 31 28 40
14 39 14 39 -4 0 -20 31 -19 56 1 10 8 13 13 7 9 -8 -4 -13 1 -13 14 0 11 -9
25 -20 31 -17 9 -18 13 -7 24 18 19 78 49 84 42 3 -2 16 -1 30 5 13 5 61 10
106 10 45 1 89 5 97 9 8 5 54 11 101 14 47 3 98 10 114 16 15 6 94 18 174 27
80 8 153 16 161 17 9 1 20 4 25 7 6 3 20 4 33 3 12 0 22 3 22 7 0 5 3 8 8 7
17 -5 134 65 183 110 67 61 88 72 134 72 42 0 69 -12 107 -48 15 -14 30 -24
32 -21 4 4 48 201 91 404 35 168 170 656 241 870 20 61 37 133 39 160 4 52
-12 125 -27 125 -4 0 -8 8 -8 18 0 10 -19 41 -42 68 -24 27 -50 58 -58 67 -8
10 -31 35 -50 56 -124 133 -152 166 -161 190 -8 23 -6 22 18 -9 40 -52 230
-240 242 -240 6 0 11 2 11 4 0 9 -65 101 -86 123 -22 22 -89 120 -89 132 -1
11 -44 89 -57 102 -7 8 -36 41 -63 74 -28 33 -53 62 -56 65 -30 27 -199 383
-187 395 2 2 62 -64 133 -148 495 -581 578 -668 693 -723 99 -47 222 -55 292
-19 17 9 46 37 63 61 34 48 53 38 21 -11 -9 -14 -20 -43 -25 -63 -11 -53 -35
-144 -43 -164 -5 -11 -2 -17 9 -20 15 -3 14 -6 -5 -31 -15 -19 -23 -45 -25
-76 -2 -27 -21 -91 -45 -152 -69 -172 -119 -352 -106 -385 10 -24 11 -20 102
261 52 161 74 216 95 237 15 16 35 28 43 28 9 0 16 5 16 10 0 6 5 10 11 10 6
0 9 -6 6 -12 -2 -7 3 -22 12 -34 9 -12 15 -37 15 -60 -3 -72 -16 -189 -24
-199 -10 -14 -15 -119 -8 -176 4 -30 68 15 68 47 0 7 4 15 9 18 5 3 18 -61 30
-142 25 -167 40 -264 48 -306 3 -19 2 -26 -6 -22 -6 4 -11 0 -11 -8 0 -9 -4
-16 -8 -16 -4 0 -8 -9 -9 -20 -1 -10 -8 -34 -16 -52 -20 -45 -45 -134 -53
-186 -5 -29 -10 -39 -15 -30 -7 10 -9 9 -9 -4 0 -10 11 -19 29 -23 32 -7 44
-25 34 -51 -8 -22 14 -34 64 -34 l41 0 8 -87 c8 -100 -11 -554 -25 -599 -6
-16 -17 -90 -25 -164 -14 -128 -22 -157 -67 -257 -10 -23 -19 -50 -19 -60 0
-29 -62 -261 -79 -298 -5 -11 -14 -34 -20 -51 -7 -16 -22 -41 -34 -55 -25 -27
-41 -56 -41 -79 -1 -9 -12 -16 -27 -18 l-27 -3 18 -37 c12 -25 15 -41 8 -49
-6 -8 -6 -18 1 -32 11 -20 4 -75 -20 -165 -26 -96 -36 -160 -32 -193 3 -17 -2
-44 -11 -60 -8 -17 -12 -33 -9 -37 4 -4 -3 -9 -15 -13 -27 -7 -28 -21 -4 -40
15 -12 11 -13 -30 -7 -34 4 -48 3 -48 -5 0 -7 -5 -9 -10 -6 -6 4 -8 11 -5 16
4 5 -1 9 -9 9 -9 0 -17 5 -17 10 -1 6 -2 15 -3 21 0 7 -10 15 -21 20 -19 7
-19 8 -1 8 19 1 19 1 0 22 -13 15 -15 23 -7 26 9 3 6 11 -7 26 -11 11 -18 28
-15 38 9 27 -4 47 -27 41 -11 -3 -24 1 -29 9 -13 21 -11 32 6 25 8 -3 15 -1
15 5 0 5 -7 12 -15 15 -8 4 -15 16 -16 28 -1 20 -1 20 -9 1 -4 -11 -10 -30
-15 -42 -4 -13 -11 -23 -16 -23 -5 0 -8 -6 -7 -12 2 -7 -3 -12 -10 -10 -10 2
-10 -2 -1 -20 7 -13 16 -26 21 -29 5 -3 3 -13 -6 -21 -8 -9 -12 -18 -9 -22 4
-3 1 -6 -5 -6 -7 0 -21 -9 -33 -21 -19 -19 -22 -19 -45 -4 -13 8 -24 11 -24 5
0 -5 -9 -10 -21 -10 -11 0 -30 -10 -41 -23 -11 -12 -17 -16 -13 -10 8 16 -7
17 -23 1 -17 -17 -15 -29 3 -22 21 9 19 -2 -7 -25 -13 -12 -21 -33 -21 -50 0
-17 -4 -28 -9 -25 -4 3 -8 1 -8 -5 0 -5 5 -13 10 -16 6 -4 8 -10 5 -15 -3 -5
0 -18 7 -29 16 -26 6 -36 -21 -21 -12 6 -21 7 -21 1 0 -5 -8 -17 -17 -27 -10
-10 -18 -20 -18 -23 -1 -13 -40 -51 -53 -51 -7 0 -11 -4 -8 -9 3 -5 -2 -12
-11 -15 -15 -6 -15 -8 -3 -16 12 -8 11 -10 -7 -10 -12 0 -24 6 -27 13 -4 6 -4
2 -2 -10 4 -20 1 -22 -25 -18 -19 3 -38 -1 -52 -10 -21 -16 -21 -16 18 -11
l40 6 -27 -16 c-42 -22 -33 -26 15 -5 95 42 443 198 604 272 95 43 174 79 177
79 2 0 148 63 323 141 402 178 494 215 564 223 31 3 69 13 85 21 16 8 35 15
42 15 7 0 23 6 35 14 12 8 34 17 48 20 15 2 35 9 45 14 11 6 45 15 77 22 31 6
57 16 57 21 0 6 6 9 13 8 20 -4 77 12 78 22 1 5 2 15 3 22 1 6 9 11 19 11 9
-1 17 2 17 7 0 5 6 6 14 3 8 -3 17 -1 21 5 3 6 15 11 25 11 10 0 31 11 47 24
l28 24 -36 7 c-26 5 -46 2 -69 -10 -17 -9 -34 -15 -36 -13 -2 2 37 24 85 48
96 47 108 67 67 101 -19 16 -20 21 -8 170 7 85 12 180 12 211 l0 57 55 5 c30
3 81 9 113 12 31 3 97 14 147 25 49 10 102 19 117 19 15 0 28 4 28 9 0 5 18
12 40 16 22 4 40 11 40 16 0 18 26 9 63 -22 30 -25 37 -37 38 -67 0 -44 22
-173 32 -189 4 -6 22 -18 40 -27 33 -15 35 -19 41 -83 4 -38 14 -102 23 -143
9 -41 17 -84 17 -95 1 -11 11 -34 21 -52 11 -17 27 -45 36 -61 13 -23 37 -37
114 -68 84 -33 102 -44 132 -84 l35 -45 -33 -7 c-18 -3 -38 -4 -46 -1 -7 3
-15 -2 -19 -10 -3 -9 -13 -13 -25 -10 -13 4 -19 0 -19 -12 0 -14 -6 -16 -29
-12 -31 7 -51 -7 -51 -35 0 -10 -5 -18 -10 -18 -13 0 -2 -50 14 -66 6 -6 51
-26 100 -45 49 -18 101 -42 115 -54 14 -12 42 -30 61 -41 19 -10 66 -52 105
-93 139 -146 221 -225 295 -280 41 -32 140 -107 220 -167 156 -118 290 -208
440 -296 231 -135 388 -227 430 -250 25 -14 77 -43 115 -65 79 -45 196 -108
300 -163 153 -79 270 -151 342 -210 7 -6 16 -10 20 -10 4 0 25 -16 45 -35 20
-19 40 -35 44 -35 4 0 16 -7 26 -16 16 -16 21 -14 65 22 171 138 499 446 625
587 40 45 65 76 56 68 -16 -12 -18 -11 -18 13 0 14 -5 26 -11 26 -5 0 -7 -5
-4 -10 3 -5 2 -10 -3 -10 -16 0 -44 51 -39 71 3 10 1 22 -4 25 -5 3 -9 -11 -9
-30 0 -38 -14 -55 -24 -29 -4 9 -1 20 6 25 14 8 5 11 -24 9 -10 -1 -18 3 -18
8 0 6 5 11 10 11 6 0 19 9 30 20 16 16 24 18 41 10 11 -6 17 -15 14 -21 -4 -5
-2 -9 4 -9 5 0 12 6 14 13 4 8 6 7 6 -3 1 -10 12 -17 28 -18 15 -1 32 -7 37
-12 14 -14 42 -12 55 4 9 10 -6 25 -72 69 -45 31 -129 89 -187 129 -66 45
-148 115 -220 187 -134 134 -231 221 -385 347 -123 100 -185 147 -185 141 0
-3 61 -53 135 -112 88 -70 135 -114 135 -126 0 -11 7 -19 15 -19 8 0 20 -9 27
-20 7 -11 18 -20 25 -20 7 0 13 -4 13 -10 0 -5 8 -10 17 -10 13 0 14 -3 5 -12
-16 -16 -15 -28 1 -28 21 0 59 -41 53 -56 -5 -12 -2 -12 15 -3 11 6 23 8 27 5
3 -3 0 -6 -7 -6 -7 0 -10 -4 -7 -9 4 -5 0 -11 -6 -14 -10 -3 -10 -7 -1 -17 9
-10 16 -10 25 -2 9 7 18 6 32 -4 19 -13 18 -14 -10 -15 l-29 -1 30 -10 c38
-14 37 -12 29 -32 -3 -9 -12 -16 -20 -16 -7 0 -11 6 -8 14 3 9 -4 15 -20 18
-14 3 -26 1 -26 -3 0 -5 4 -9 10 -9 5 0 7 -7 4 -15 -5 -11 1 -15 21 -15 22 0
26 -4 22 -20 -3 -13 0 -20 9 -20 8 0 14 -7 14 -15 0 -8 -7 -15 -15 -15 -8 0
-15 5 -15 11 0 5 -4 7 -10 4 -5 -3 -10 0 -11 7 0 7 -5 2 -11 -12 l-10 -25 -11
23 c-14 30 -36 29 -30 -2 4 -20 10 -24 39 -22 19 1 33 -3 31 -9 -5 -13 23 -34
45 -35 9 0 18 6 21 13 3 9 8 9 21 -2 14 -12 19 -12 29 -1 9 9 9 11 0 6 -6 -3
-14 -2 -18 4 -4 6 5 10 22 10 15 0 40 7 55 14 29 16 37 12 33 -17 -2 -9 1 -15
6 -11 5 3 9 0 9 -5 0 -6 5 -11 11 -11 6 0 9 7 6 14 -4 10 -1 13 9 9 7 -3 14
-9 14 -15 0 -5 4 -7 8 -4 11 7 85 -71 78 -83 -3 -5 3 -7 14 -4 27 7 26 -14 -1
-22 -15 -5 -18 -9 -9 -15 9 -5 9 -13 2 -27 -9 -15 -18 -19 -44 -15 -28 4 -30
6 -13 13 20 8 20 8 0 9 -11 1 -26 3 -34 4 -24 2 -23 24 1 32 13 4 26 7 31 6 4
-1 7 5 7 13 0 10 -10 15 -29 15 -17 0 -33 5 -36 10 -7 12 -25 4 -25 -11 0 -6
4 -8 8 -5 4 2 14 1 22 -5 11 -6 12 -9 2 -9 -7 0 -10 -5 -7 -10 3 -6 -1 -13 -9
-16 -9 -3 -14 -10 -11 -14 3 -4 -6 -10 -20 -12 -13 -3 -22 -2 -20 2 3 4 -5 16
-17 26 -15 14 -22 16 -25 6 -3 -8 -15 -11 -37 -6 -24 4 -38 1 -51 -12 -20 -21
-42 -26 -51 -13 -3 5 0 9 7 9 7 0 9 3 6 7 -9 9 -48 -27 -41 -38 3 -5 1 -9 -5
-9 -5 0 -12 4 -16 10 -3 5 -12 7 -20 4 -8 -4 -12 -10 -9 -15 3 -5 -2 -12 -10
-15 -9 -3 -14 -10 -11 -14 3 -5 2 -16 -2 -26 -6 -16 -7 -16 -20 2 -12 16 -13
16 -13 -11 0 -28 0 -28 -19 -9 -12 13 -15 21 -7 26 7 5 4 8 -6 8 -11 0 -18 8
-18 19 0 11 -6 22 -12 24 -7 3 2 11 20 18 19 8 30 19 28 26 -3 7 -1 13 4 13 6
0 10 -4 10 -10 0 -5 9 -10 19 -10 11 0 22 -6 24 -12 3 -8 6 -6 6 5 1 9 9 17
19 17 15 1 15 2 -2 11 -14 9 -20 8 -26 -1 -6 -9 -9 -9 -12 1 -8 23 4 50 21 48
30 -3 35 1 16 14 -17 13 -17 14 4 20 14 3 21 1 21 -9 0 -8 5 -14 11 -14 5 0 8
4 5 9 -12 18 5 39 27 34 17 -4 14 1 -12 21 -40 30 -45 32 -37 11 3 -8 2 -15
-2 -15 -9 0 -36 59 -35 76 0 6 -5 11 -11 11 -31 -1 -42 5 -43 21 -1 13 5 18
20 18 13 -1 22 5 22 14 0 8 -8 14 -18 14 -10 -1 -16 0 -13 3 2 3 1 16 -4 29
-6 15 -6 24 0 24 5 0 6 8 3 17 -4 11 -8 13 -11 5 -2 -7 -8 -10 -13 -6 -13 7
-11 44 2 44 5 0 8 4 5 9 -3 5 -15 7 -26 4 -16 -4 -21 1 -26 26 -4 20 -12 31
-23 31 -10 0 -26 7 -37 15 -25 19 -34 19 -34 0 0 -8 -6 -14 -12 -13 -7 2 -12
-3 -10 -9 1 -7 -2 -13 -8 -13 -17 0 -25 5 -22 12 1 5 -8 8 -21 8 -13 0 -34 11
-46 24 -13 14 -30 22 -38 19 -8 -3 -19 0 -24 8 -7 11 -9 11 -9 -3 0 -10 -5
-18 -11 -18 -6 0 -9 7 -5 15 3 9 0 15 -10 15 -9 0 -14 7 -12 19 2 10 -5 27
-14 37 -9 11 -17 22 -17 27 -1 8 -5 8 -26 1 -26 -10 -48 4 -42 27 5 20 -7 41
-48 81 -19 18 -19 19 -1 12 14 -5 17 -4 12 5 -5 7 -16 11 -26 8 -20 -5 -60 18
-60 34 0 6 5 7 10 4 6 -3 10 -2 10 3 0 5 -15 9 -32 9 -18 0 -27 -2 -20 -4 6
-3 12 -11 12 -19 0 -12 -4 -12 -21 -3 -19 10 -20 8 -14 -10 4 -12 2 -21 -4
-21 -6 0 -11 7 -11 15 0 8 -4 15 -10 15 -5 0 -10 -7 -10 -16 0 -8 -4 -13 -10
-9 -5 3 -6 13 -3 23 6 14 4 15 -9 4 -13 -10 -20 -7 -43 15 -16 16 -25 22 -21
15 6 -10 -3 -13 -41 -12 -26 0 -59 -1 -73 -2 -14 -2 -25 2 -25 9 0 7 -11 20
-24 30 -13 9 -21 11 -17 5 4 -7 2 -12 -3 -12 -6 0 -11 6 -11 13 0 6 -14 26
-30 44 -20 22 -35 30 -49 26 -12 -3 -28 3 -40 14 -24 22 -109 24 -96 3 4 -6
11 -8 16 -5 5 4 9 -1 9 -9 0 -8 -5 -18 -11 -22 -8 -4 -7 -9 2 -15 10 -6 8 -9
-8 -9 -12 0 -25 4 -28 10 -4 6 -18 4 -37 -6 -26 -13 -30 -14 -25 -2 3 8 1 21
-4 29 -8 12 -10 12 -8 -1 4 -35 0 -43 -16 -30 -8 6 -18 9 -23 7 -4 -3 -13 3
-20 13 -9 14 -8 19 3 24 8 3 22 2 32 -1 11 -4 14 -3 9 5 -4 7 -16 12 -27 12
-10 0 -19 5 -19 10 0 6 -9 10 -19 10 -11 0 -23 5 -26 10 -8 13 -35 13 -35 -1
0 -5 4 -8 10 -4 5 3 18 -3 30 -15 22 -22 27 -35 9 -24 -7 4 -9 -1 -7 -12 2
-11 9 -18 14 -17 5 1 10 -6 10 -16 0 -13 -7 -17 -23 -15 -25 2 -29 -6 -12 -23
7 -7 5 -15 -7 -28 -17 -17 -19 -16 -30 16 -7 19 -13 30 -13 24 -1 -5 -5 -4
-10 4 -5 7 -20 15 -35 16 -23 3 -24 1 -16 -16 8 -13 7 -19 0 -19 -6 0 -15 12
-20 26 -8 21 -13 24 -24 15 -8 -7 -17 -8 -19 -4 -7 10 6 34 19 36 5 1 8 12 7
25 -2 19 1 21 17 12 14 -8 20 -8 20 0 0 6 5 8 12 4 7 -4 8 -3 4 4 -7 12 -61
10 -74 -2 -3 -4 0 -11 7 -16 11 -6 6 -12 -17 -24 -34 -17 -56 -22 -32 -6 12 8
10 10 -9 10 -17 0 -22 4 -17 16 3 9 6 18 6 21 0 3 7 0 15 -7 10 -9 19 -10 25
-4 7 7 -3 15 -25 23 -19 7 -32 17 -29 23 4 6 -7 9 -27 8 -52 -3 -59 -1 -59 15
0 8 -7 15 -16 15 -8 0 -12 -5 -9 -10 4 -6 1 -17 -5 -25 -6 -8 -9 -19 -5 -26 5
-7 0 -7 -16 2 l-24 12 22 10 21 9 -20 34 c-11 19 -26 34 -34 34 -9 0 -14 10
-13 28 3 42 0 54 -10 47 -5 -3 -12 -1 -16 5 -3 5 3 10 13 10 11 0 26 8 33 17
11 13 11 15 1 9 -9 -5 -23 1 -40 17 -15 14 -36 27 -47 29 -11 2 -19 11 -19 21
1 9 -2 14 -7 11 -5 -3 -9 -1 -9 4 0 9 23 22 36 22 3 0 3 -9 -1 -19 -7 -23 10
-37 19 -15 7 17 -17 58 -27 47 -4 -3 -8 0 -8 8 -1 8 -2 21 -3 29 0 8 3 18 8
21 12 9 -32 32 -45 23 -6 -3 -14 -17 -19 -30 -11 -27 -32 -31 -50 -9 -12 15
-4 20 22 16 4 0 5 5 2 13 -3 7 2 19 11 26 10 8 15 9 15 1 0 -6 5 -11 10 -11 6
0 10 7 10 15 0 8 -7 15 -16 15 -13 0 -14 3 -4 15 10 12 9 16 -4 21 -11 4 -14
13 -10 31 5 19 -1 30 -26 53 -29 26 -32 33 -23 53 8 17 7 29 -1 46 -11 20 -14
21 -26 6 -7 -9 -19 -14 -27 -11 -7 3 -13 -1 -13 -9 0 -8 -6 -15 -13 -15 -8 0
-20 -12 -27 -27 -7 -16 -15 -23 -17 -15 -6 17 -42 15 -49 -3 -4 -8 -10 -12
-15 -9 -5 3 -9 0 -9 -5 0 -6 -5 -11 -11 -11 -6 0 -9 6 -6 14 4 9 -1 17 -11 19
-16 4 -15 5 1 6 21 1 22 10 2 38 -14 19 -13 22 10 37 14 9 29 14 34 11 5 -2
11 2 15 10 3 8 12 15 19 15 8 0 25 9 38 21 17 14 32 19 51 15 19 -4 27 -2 25
7 -1 6 5 13 13 13 8 1 22 2 31 3 9 0 21 13 28 27 8 19 17 25 31 21 11 -3 18
-1 14 4 -3 5 4 9 15 9 11 0 24 7 28 15 22 39 255 97 403 99 76 1 90 -2 133
-27 47 -28 224 -199 294 -283 19 -24 41 -44 49 -44 21 0 84 60 84 80 0 15 -40
117 -141 354 -31 72 -41 135 -16 104 8 -12 61 -24 182 -43 94 -14 193 -31 220
-36 28 -6 133 -24 235 -39 102 -16 268 -43 370 -59 102 -17 289 -46 415 -66
127 -20 237 -38 245 -42 9 -3 -15 -19 -66 -43 -47 -22 -98 -55 -125 -81 l-44
-44 27 -3 c19 -2 44 8 80 33 29 20 82 56 118 80 36 25 70 49 76 54 6 5 35 21
65 36 67 35 110 66 103 76 -3 5 1 6 9 3 8 -3 23 3 33 14 11 11 44 32 76 47 79
38 212 141 324 249 87 84 97 92 128 88 19 -2 43 1 53 7 15 9 16 10 2 11 -34 0
-27 27 12 49 21 12 39 26 39 32 0 13 -7 11 -33 -5 -38 -25 -143 -68 -127 -53
8 9 42 26 75 40 32 14 61 30 63 36 5 15 -18 14 -52 -4 -15 -8 -43 -15 -62 -15
-18 0 -36 -5 -39 -10 -4 -6 -11 -8 -16 -4 -6 4 -3 13 9 24 15 14 25 56 46 192
15 95 34 208 42 252 18 100 18 239 -1 441 -32 344 -121 703 -252 1019 -58 138
-71 159 -95 153 -25 -7 -23 18 3 37 16 11 38 14 83 10 34 -3 66 -1 72 3 9 6 7
39 -7 128 -10 66 -19 130 -19 143 0 24 25 30 33 8 5 -13 24 -164 29 -237 2
-25 4 -25 39 -18 42 10 333 111 559 194 85 32 220 80 300 107 139 48 148 50
219 44 65 -6 73 -5 67 9 -3 9 -17 54 -30 99 -13 46 -31 97 -40 114 -9 17 -16
36 -16 42 0 23 -33 80 -46 80 -7 0 -18 -9 -24 -21 -10 -18 -8 -22 19 -32 64
-24 44 -31 -329 -112 -91 -20 -190 -42 -220 -49 -55 -13 -309 -11 -1297 9
-354 8 -355 8 -320 -38 11 -14 72 -17 566 -27 318 -6 562 -15 573 -21 21 -11
25 -61 5 -77 -7 -6 -33 -16 -58 -21 -25 -6 -99 -27 -165 -47 -197 -60 -841
-217 -1060 -259 -83 -16 -31 -17 -1474 35 -162 6 -323 12 -358 13 -71 2 -73
-1 -42 -66 42 -88 21 -81 298 -90 136 -4 257 -10 268 -12 43 -9 57 -114 20
-144 -16 -13 -437 -141 -446 -136 -6 4 -121 251 -140 302 -7 18 -32 67 -57
110 -68 117 -233 444 -233 461 0 9 -7 23 -15 32 -9 10 -42 67 -75 129 -58 109
-59 113 -70 228 -11 124 -32 219 -81 368 -44 134 -75 184 -176 289 -51 52 -93
101 -93 109 0 9 -34 51 -76 94 -42 43 -89 103 -105 133 -38 70 -89 134 -159
196 -76 68 -108 88 -160 103 -25 7 -56 19 -68 28 -13 8 -45 21 -70 28 -26 8
-90 40 -142 71 -114 67 -211 117 -263 133 -20 7 -69 30 -107 51 -64 35 -71 37
-80 21 -5 -10 -7 -27 -4 -38 3 -12 -7 -46 -25 -81 -25 -50 -29 -66 -21 -86 9
-25 7 -26 -35 -37 -25 -6 -48 -15 -50 -19 -3 -5 -30 -6 -61 -3 -51 6 -57 4
-87 -24 -18 -17 -70 -59 -117 -94 -47 -34 -137 -111 -200 -171 -158 -147 -271
-240 -360 -295 -41 -25 -106 -67 -145 -93 -159 -108 -309 -160 -456 -160 -155
0 -271 60 -416 213 -192 204 -358 456 -685 1037 -11 19 -28 44 -39 55 -12 14
-16 28 -12 44 6 22 -35 171 -46 171 -3 -1 -22 -22 -41 -47z m6079 -2982 c15
-28 47 -179 70 -331 39 -263 70 -487 86 -625 9 -77 36 -293 61 -480 24 -187
46 -362 50 -390 6 -52 46 -345 64 -475 16 -113 18 -151 6 -147 -6 2 -19 53
-28 113 -9 60 -23 152 -32 204 -16 98 -42 262 -120 745 -24 154 -50 323 -56
375 -6 52 -16 113 -20 136 -5 22 -23 135 -39 250 -17 115 -40 261 -51 324 -12
63 -25 161 -28 218 -7 93 -6 102 10 102 10 0 22 -8 27 -19z m-4392 -138 c-3
-10 -5 -2 -5 17 0 19 2 27 5 18 2 -10 2 -26 0 -35z m4183 -112 c0 -6 14 -110
30 -232 17 -122 29 -223 27 -225 -2 -2 -38 -8 -80 -14 -42 -5 -92 -16 -111
-24 -44 -18 -55 -7 -45 47 4 23 8 61 9 83 0 31 5 45 21 55 18 12 24 37 42 161
19 132 23 148 42 151 39 8 65 7 65 -2z m-9677 -193 c7 -25 3 -33 -12 -23 -13
8 -15 45 -2 45 5 0 11 -10 14 -22z m9347 -99 c0 -14 4 -18 13 -12 6 4 18 8 25
9 17 3 16 -64 -3 -99 -15 -30 -12 -47 18 -90 19 -27 18 -77 -2 -77 -16 0 -33
30 -28 50 3 11 2 20 -3 20 -14 0 -21 32 -10 45 8 9 8 15 0 20 -6 4 -8 15 -5
25 3 10 1 21 -5 25 -5 3 -10 19 -10 35 0 16 -4 32 -10 35 -15 10 -12 35 5 35
8 0 15 -9 15 -21z m49 -159 c0 -10 -3 -8 -9 5 -12 27 -12 43 0 25 5 -8 9 -22
9 -30z m-5779 -242 c62 -31 65 -31 119 -18 31 7 90 15 132 17 64 4 85 1 125
-17 27 -12 71 -25 98 -31 39 -7 61 -21 115 -70 86 -81 108 -118 122 -212 12
-80 5 -163 -11 -136 -8 12 -14 11 -39 -4 -56 -33 -63 -26 -55 52 4 45 2 75 -5
87 -10 16 -11 12 -10 -26 1 -25 -1 -60 -5 -77 -7 -31 -9 -32 -29 -18 -12 7
-43 19 -69 26 -26 6 -45 15 -42 21 3 5 0 15 -6 23 -14 17 2 45 26 45 8 0 14 4
14 9 0 5 -12 8 -26 5 -20 -4 -25 -1 -21 9 3 7 0 14 -6 14 -20 0 -87 35 -87 45
0 5 -5 6 -10 3 -6 -4 -17 -2 -24 4 -8 6 -29 10 -47 9 -27 -2 -35 -8 -39 -28
-5 -22 -10 -25 -42 -22 -22 2 -46 -3 -59 -12 -15 -10 -27 -12 -39 -6 -10 5
-40 8 -66 6 -42 -3 -50 -8 -58 -30 -6 -14 -13 -26 -18 -26 -12 0 -10 24 4 38
7 7 9 12 4 12 -4 0 -14 -7 -22 -15 -9 -8 -26 -15 -40 -15 -13 0 -23 -5 -21
-11 1 -6 -11 -16 -28 -22 -16 -5 -33 -14 -36 -19 -8 -12 -20 32 -13 44 3 4 13
7 22 7 15 -1 15 -2 0 -6 -24 -6 -23 -23 2 -23 10 0 24 9 29 19 15 28 -11 34
-61 14 -23 -9 -36 -19 -30 -21 10 -3 10 -7 2 -17 -8 -10 -18 -11 -36 -5 -23 9
-30 1 -25 -32 1 -7 -20 -5 -35 4 -6 4 -22 -4 -34 -17 -20 -21 -21 -25 -7 -25
9 0 17 -4 17 -10 0 -5 -7 -10 -15 -10 -8 0 -15 -8 -15 -17 0 -15 2 -16 10 -3
5 8 12 11 17 7 15 -16 -23 -27 -72 -21 -61 8 -65 10 -66 37 0 12 -3 16 -6 10
-2 -7 -9 -13 -15 -13 -5 0 -21 -9 -35 -20 -14 -11 -21 -20 -14 -20 6 0 11 -4
11 -10 0 -5 -10 -9 -22 -8 -13 0 -35 -2 -49 -6 -17 -5 -29 -3 -34 4 -5 8 -10
8 -20 0 -8 -7 -20 -8 -26 -4 -8 4 -9 3 -5 -4 9 -15 -32 -16 -54 -2 -8 5 -19 5
-25 1 -19 -16 -45 -8 -51 16 -5 19 -11 22 -33 17 -14 -4 -31 -13 -37 -20 -6
-8 -21 -14 -33 -14 -23 0 -28 -27 -11 -61 12 -22 4 -43 -12 -33 -7 4 -6 9 2
14 8 5 8 11 -3 21 -7 8 -12 19 -10 26 3 8 -9 12 -36 11 -34 0 -41 -4 -41 -20
0 -10 -5 -16 -10 -13 -6 4 -8 11 -5 16 4 5 1 9 -5 9 -6 0 -15 -10 -20 -22 -7
-17 -8 -11 -4 22 3 25 23 81 44 125 73 151 191 232 395 270 154 29 215 52 265
100 74 70 162 103 281 104 55 1 76 -4 129 -31z m6090 -244 c79 -9 100 -15 100
-31 0 -26 -226 -3 -265 27 -5 5 -21 10 -35 13 -27 6 127 -1 200 -9z m464 -18
c39 -16 48 -28 40 -50 -4 -11 -19 -16 -49 -16 -45 0 -55 10 -55 56 0 28 15 30
64 10z m-6154 -56 c0 -5 -4 -10 -10 -10 -5 0 -10 5 -10 10 0 6 5 10 10 10 6 0
10 -4 10 -10z m6379 -66 c21 -27 45 -88 39 -103 -2 -6 -20 22 -40 60 -37 69
-37 91 1 43z m-6999 -14 c0 -5 -6 -10 -14 -10 -8 0 -23 -3 -33 -6 -16 -5 -16
-4 1 10 22 18 46 21 46 6z m-130 -30 c0 -5 -4 -10 -10 -10 -5 0 -10 5 -10 10
0 6 5 10 10 10 6 0 10 -4 10 -10z m20 -40 c-19 -13 -30 -13 -30 0 0 6 10 10
23 10 18 0 19 -2 7 -10z m797 -416 c-3 -3 -12 -4 -19 -1 -8 3 -5 6 6 6 11 1
17 -2 13 -5z m-270 -20 c-3 -3 -12 -4 -19 -1 -8 3 -5 6 6 6 11 1 17 -2 13 -5z
m7043 -39 c321 -43 341 -47 347 -62 3 -8 3 -17 -1 -20 -3 -3 -65 1 -138 10
-282 36 -429 56 -438 62 -16 10 8 44 27 39 10 -2 101 -15 203 -29z m-7250 21
c0 -3 -4 -8 -10 -11 -5 -3 -10 -1 -10 4 0 6 5 11 10 11 6 0 10 -2 10 -4z
m-755 -16 c-3 -5 -1 -10 4 -10 6 0 11 -4 11 -10 0 -19 -26 -10 -27 10 -1 11 3
20 8 20 6 0 7 -4 4 -10z m7415 -10 c0 -13 -20 -13 -40 0 -12 8 -9 10 13 10 15
0 27 -4 27 -10z m53 -7 c-7 -2 -21 -2 -30 0 -10 3 -4 5 12 5 17 0 24 -2 18 -5z
m60 -10 c-7 -2 -21 -2 -30 0 -10 3 -4 5 12 5 17 0 24 -2 18 -5z m144 -19 c-3
-3 -12 -4 -19 -1 -8 3 -5 6 6 6 11 1 17 -2 13 -5z m-1145 -91 c-10 -26 -10
-24 -11 22 0 42 2 46 11 28 7 -15 7 -30 0 -50z m2273 24 c122 -19 150 -26 153
-40 4 -22 -5 -22 -175 3 -159 23 -163 24 -163 45 0 19 4 19 185 -8z m-2268
-119 c-2 -13 -4 -3 -4 22 0 25 2 35 4 23 2 -13 2 -33 0 -45z m2379 24 c2 -30
-13 -28 -19 3 -3 16 0 24 7 22 6 -2 12 -13 12 -25z m74 3 c0 -2 -10 -10 -22
-16 -21 -11 -22 -11 -9 4 13 16 31 23 31 12z m-100 -110 c-7 -9 -15 -13 -19
-10 -3 3 1 10 9 15 21 14 24 12 10 -5z m-9310 -20 c-10 -12 -10 -15 1 -16 8
-1 3 -5 -11 -9 l-25 -8 24 -1 c20 -1 22 -3 11 -16 -9 -11 -16 -13 -24 -5 -12
12 -27 13 -25 3 3 -20 -2 -26 -11 -13 -6 10 -10 11 -10 3 0 -18 -37 -53 -54
-53 -8 0 -18 -9 -21 -20 -3 -11 -10 -20 -15 -20 -5 0 -12 -9 -15 -20 -4 -12
-14 -20 -23 -18 -22 3 -62 -32 -62 -54 0 -10 -7 -18 -16 -18 -36 0 -2 41 131
157 125 110 181 151 145 108z m7948 -121 c39 -6 63 -26 49 -40 -8 -8 -157 17
-163 27 -11 18 9 31 40 25 17 -3 51 -8 74 -12z m327 -49 c44 -7 163 -26 265
-40 213 -31 272 -45 278 -64 6 -17 -26 -14 -293 28 -104 16 -239 37 -300 46
-147 21 -155 23 -155 41 0 18 46 16 205 -11z m835 11 c0 -2 -8 -10 -17 -17
-16 -13 -17 -12 -4 4 13 16 21 21 21 13z m-9223 -68 c-3 -7 -5 -2 -5 12 0 14
2 19 5 13 2 -7 2 -19 0 -25z m1583 22 c0 -5 -5 -10 -11 -10 -5 0 -7 5 -4 10 3
6 8 10 11 10 2 0 4 -4 4 -10z m-1815 -108 c-30 -28 -37 -33 -19 -12 17 19 37
42 45 51 8 10 16 15 19 13 2 -3 -18 -26 -45 -52z m2600 -13 c11 -17 -1 -21
-15 -4 -8 9 -8 15 -2 15 6 0 14 -5 17 -11z m-27 -44 c0 -23 -2 -24 -13 -8 -11
15 -6 31 11 33 1 0 2 -11 2 -25z m-1388 -41 c0 -10 6 -14 18 -10 9 3 35 1 57
-4 22 -5 41 -7 44 -5 2 3 -10 8 -27 11 -40 8 -42 24 -3 24 44 0 64 -10 51 -25
-16 -20 5 -28 48 -20 20 4 31 10 25 12 -7 3 -13 8 -13 13 0 4 6 10 13 13 8 3
12 -8 13 -34 l1 -39 -49 0 c-40 0 -48 -3 -48 -19 0 -10 -9 -21 -20 -24 -13 -3
-20 0 -20 10 0 8 -4 12 -10 8 -5 -3 -7 -12 -3 -20 4 -12 -4 -15 -35 -15 -75 0
-103 25 -101 90 l0 25 10 -24 c8 -19 12 -21 24 -11 18 15 20 24 3 14 -8 -5 -9
-2 -5 10 4 10 7 22 7 27 0 5 5 9 10 9 6 0 10 -7 10 -16z m1030 -48 c0 -2 -7
-7 -16 -10 -8 -3 -12 -2 -9 4 6 10 25 14 25 6z m-60 -30 c0 -2 -7 -7 -16 -10
-8 -3 -12 -2 -9 4 6 10 25 14 25 6z m280 -16 c0 -5 -2 -10 -4 -10 -3 0 -8 5
-11 10 -3 6 -1 10 4 10 6 0 11 -4 11 -10z m77 -16 c-3 -3 -12 -4 -19 -1 -8 3
-5 6 6 6 11 1 17 -2 13 -5z m-457 -29 c-32 -19 -44 -19 -28 0 7 8 22 14 33 14
18 0 17 -1 -5 -14z m432 1 c7 4 8 2 4 -5 -9 -13 -26 -5 -25 12 0 9 2 8 6 -1 2
-6 10 -9 15 -6z m-2819 -91 c-15 -19 -32 -35 -37 -35 -6 0 5 16 24 35 43 45
49 45 13 0z m6752 25 c-3 -5 -10 -10 -16 -10 -5 0 -9 5 -9 10 0 6 7 10 16 10
8 0 12 -4 9 -10z m-45 -20 c0 -5 -2 -10 -4 -10 -3 0 -8 5 -11 10 -3 6 -1 10 4
10 6 0 11 -4 11 -10z m-30 -20 c0 -5 -4 -10 -10 -10 -5 0 -10 5 -10 10 0 6 5
10 10 10 6 0 10 -4 10 -10z m-6720 -34 c0 -2 -8 -10 -17 -17 -16 -13 -17 -12
-4 4 13 16 21 21 21 13z m6897 -172 c-3 -3 -12 -4 -19 -1 -8 3 -5 6 6 6 11 1
17 -2 13 -5z m-7408 -128 c-10 -9 -109 -56 -109 -51 0 6 91 54 104 55 5 0 7
-2 5 -4z m7481 -56 c0 -5 -4 -10 -10 -10 -5 0 -10 5 -10 10 0 6 5 10 10 10 6
0 10 -4 10 -10z m-7630 -24 c0 -2 -12 -11 -27 -20 l-28 -17 24 20 c23 21 31
25 31 17z m7640 -37 c0 -6 -4 -7 -10 -4 -5 3 -10 11 -10 16 0 6 5 7 10 4 6 -3
10 -11 10 -16z m-7700 -3 c0 -2 -8 -10 -17 -17 -16 -13 -17 -12 -4 4 13 16 21
21 21 13z m-40 -29 c0 -2 -10 -12 -22 -23 l-23 -19 19 23 c18 21 26 27 26 19z
m-80 -71 c0 -2 -8 -10 -17 -17 -16 -13 -17 -12 -4 4 13 16 21 21 21 13z m2235
-11 c82 -5 82 -12 -3 -105 -42 -47 -108 -126 -146 -175 -38 -50 -108 -135
-155 -190 -299 -348 -384 -454 -449 -562 -56 -92 -118 -173 -106 -138 4 11 12
25 19 30 6 6 20 24 31 40 16 27 17 28 1 16 -15 -12 -17 -12 -11 4 5 13 4 16
-4 11 -7 -4 -12 -2 -12 4 0 8 9 10 25 6 29 -7 32 5 8 30 -13 13 -14 19 -5 22
17 5 15 22 -3 22 -8 0 -14 -3 -14 -7 4 -27 -3 -43 -20 -43 -11 0 -23 5 -26 10
-3 6 -1 10 5 10 6 0 8 5 5 10 -3 6 -2 10 2 10 5 0 25 16 45 36 24 23 35 41 31
51 -5 12 -2 15 10 10 11 -4 14 -2 10 9 -3 9 6 24 22 38 20 17 24 25 14 29 -9
4 -7 6 5 6 11 1 16 4 13 7 -8 9 31 44 48 44 17 0 69 50 78 73 4 11 16 21 28
24 12 4 22 17 26 34 3 16 10 26 15 23 11 -7 42 27 58 66 7 16 16 28 20 25 11
-7 48 37 55 68 7 25 16 32 38 28 4 -1 14 14 22 34 10 24 20 33 30 29 8 -4 16
-1 16 5 1 6 2 17 3 24 1 6 -3 16 -9 20 -5 5 1 5 14 2 16 -5 21 -4 17 4 -4 6
-3 11 2 11 6 0 13 7 16 16 5 13 1 15 -19 10 -37 -9 -30 2 12 19 21 9 33 19 28
23 -6 4 -11 15 -13 25 -3 15 1 17 19 12 14 -5 19 -4 15 4 -4 6 0 11 8 11 9 0
16 5 16 10 0 6 6 10 14 10 7 0 22 12 32 28 9 15 24 32 32 38 8 6 12 17 9 25
-4 10 -6 9 -6 -3 -1 -25 -21 -23 -21 1 0 11 -4 23 -10 26 -18 11 -11 27 9 20
14 -4 23 0 31 15 6 11 16 18 21 14 6 -3 30 -7 54 -9z m-142 -59 c4 -10 1 -13
-9 -9 -15 6 -19 23 -5 23 5 0 11 -7 14 -14z m690 7 c-13 -2 -33 -2 -45 0 -13
2 -3 4 22 4 25 0 35 -2 23 -4z m5760 -54 c6 -22 -1 -24 -24 -6 -18 14 -14 38
6 31 7 -3 15 -14 18 -25z m-93 -29 c0 -5 -4 -10 -10 -10 -5 0 -10 5 -10 10 0
6 5 10 10 10 6 0 10 -4 10 -10z m-105 -30 c-3 -5 -12 -10 -18 -10 -7 0 -6 4 3
10 19 12 23 12 15 0z m-4395 -35 c11 -13 8 -15 -15 -15 -23 0 -26 2 -15 15 7
8 14 15 15 15 1 0 8 -7 15 -15z m4252 -15 c6 0 8 -3 5 -6 -10 -11 -38 17 -30
30 5 7 9 5 11 -6 2 -10 8 -18 14 -18z m631 3 c-7 -2 -19 -2 -25 0 -7 3 -2 5
12 5 14 0 19 -2 13 -5z m757 -320 c0 -14 -19 -38 -25 -32 -8 8 5 39 16 39 5 0
9 -3 9 -7z m-6520 -197 c0 -3 -4 -8 -10 -11 -5 -3 -10 -1 -10 4 0 6 5 11 10
11 6 0 10 -2 10 -4z m6805 -16 c3 -6 -1 -13 -10 -16 -19 -8 -30 0 -20 15 8 14
22 14 30 1z m28 -36 c7 -8 -17 -34 -32 -34 -12 0 -15 23 -4 33 8 9 28 9 36 1z
m74 -7 c16 0 5 -17 -11 -17 -8 0 -20 8 -27 17 -12 15 -12 16 6 9 11 -5 25 -9
32 -9z m-127 -47 c0 -5 -4 -10 -10 -10 -5 0 -10 5 -10 10 0 6 5 10 10 10 6 0
10 -4 10 -10z m-116 -26 c3 -8 2 -12 -4 -9 -6 3 -10 10 -10 16 0 14 7 11 14
-7z m-104 -134 c0 -5 -5 -10 -11 -10 -5 0 -7 5 -4 10 3 6 8 10 11 10 2 0 4 -4
4 -10z m435 -20 c3 -5 -1 -10 -10 -10 -9 0 -13 5 -10 10 3 6 8 10 10 10 2 0 7
-4 10 -10z m50 -59 c-9 -8 -36 -10 -30 -2 2 4 11 8 20 8 8 0 13 -3 10 -6z
m-8765 -41 c0 -5 -8 -10 -17 -10 -15 0 -16 2 -3 10 19 12 20 12 20 0z"/>
<path d="M4690 5890 c0 -5 5 -10 11 -10 5 0 7 5 4 10 -3 6 -8 10 -11 10 -2 0
-4 -4 -4 -10z"/>
<path d="M4660 5800 c0 -5 5 -10 10 -10 6 0 10 5 10 10 0 6 -4 10 -10 10 -5 0
-10 -4 -10 -10z"/>
<path d="M4878 4553 c7 -3 16 -2 19 1 4 3 -2 6 -13 5 -11 0 -14 -3 -6 -6z"/>
<path d="M11786 8317 c3 -10 9 -15 12 -12 3 3 0 11 -7 18 -10 9 -11 8 -5 -6z"/>
<path d="M10185 7905 c-77 -13 -141 -24 -142 -24 -2 -1 -3 -8 -3 -16 0 -21 76
-55 120 -54 19 0 49 6 67 12 47 18 123 74 123 92 0 18 11 18 -165 -10z"/>
<path d="M11983 7823 c2 -16 9 -28 15 -28 7 0 12 3 12 8 0 4 0 16 0 27 0 11
-7 20 -15 20 -11 0 -15 -8 -12 -27z"/>
<path d="M1210 7705 c-179 -19 -392 -41 -475 -49 -82 -9 -201 -21 -262 -27
l-113 -12 0 -242 c0 -211 14 -539 25 -571 3 -9 152 26 695 165 50 13 65 20 45
20 -40 1 -55 17 -55 58 0 43 8 46 180 67 74 10 138 21 143 25 7 7 -7 107 -54
394 -30 179 -34 173 123 158 156 -15 148 -16 148 19 0 38 22 38 -400 -5z"/>
<path d="M13488 7198 l-166 -60 10 -27 c45 -122 83 -162 140 -148 82 21 218
166 218 232 0 18 -7 41 -16 49 -8 9 -16 15 -17 15 -1 -1 -77 -28 -169 -61z"/>
<path d="M13520 6008 c0 -5 12 -20 27 -34 l26 -24 -7 -178 c-4 -97 -8 -193
-10 -212 -9 -87 -28 -228 -37 -261 -5 -20 -9 -52 -9 -71 0 -19 -5 -39 -11 -45
-7 -7 1 -17 28 -34 37 -23 44 -24 283 -25 135 -1 258 -3 274 -5 28 -4 30 -1
53 66 52 153 193 666 193 705 0 12 -14 15 -63 16 -53 1 -119 8 -137 15 -3 1
-7 1 -10 1 -3 0 -39 4 -80 9 -41 5 -102 11 -135 14 -33 3 -78 7 -100 10 -22 4
-74 8 -115 11 -48 4 -92 14 -122 28 -27 13 -48 19 -48 14z m186 -74 c61 -8 73
-17 50 -40 -15 -14 -16 -14 -16 0 0 9 -4 16 -9 16 -5 0 -7 -10 -4 -22 4 -19 3
-20 -6 -8 -10 13 -11 13 -11 0 0 -11 -2 -12 -8 -3 -7 10 -12 10 -27 -1 -10 -7
-19 -19 -21 -27 -1 -8 -7 -25 -12 -39 l-11 -25 0 30 c-1 17 -4 54 -8 84 -6 49
-4 54 11 48 10 -4 42 -10 72 -13z m112 -39 c-3 -3 -9 2 -12 12 -6 14 -5 15 5
6 7 -7 10 -15 7 -18z m382 -398 c0 -7 -69 -46 -152 -86 -84 -40 -161 -77 -170
-82 -15 -8 -37 5 -26 16 6 6 333 164 341 164 4 1 7 -5 7 -12z m-405 -207 c-3
-5 -11 -10 -16 -10 -6 0 -7 5 -4 10 3 6 11 10 16 10 6 0 7 -4 4 -10z m-211
-125 c11 -8 17 -17 14 -21 -8 -8 -48 14 -48 26 0 14 12 12 34 -5z"/>
<path d="M5425 5460 c-8 -13 13 -30 28 -24 24 9 21 33 -4 31 -11 -1 -22 -4
-24 -7z"/>
<path d="M5560 5450 c0 -5 5 -10 10 -10 6 0 10 5 10 10 0 6 -4 10 -10 10 -5 0
-10 -4 -10 -10z"/>
<path d="M5600 5440 c0 -5 7 -10 16 -10 8 0 12 5 9 10 -3 6 -10 10 -16 10 -5
0 -9 -4 -9 -10z"/>
<path d="M5193 5423 c9 -2 23 -2 30 0 6 3 -1 5 -18 5 -16 0 -22 -2 -12 -5z"/>
<path d="M4960 5370 c-12 -8 -10 -10 8 -10 13 0 20 4 17 10 -7 12 -6 12 -25 0z"/>
<path d="M13425 5086 c-74 -19 -114 -38 -93 -43 10 -3 31 2 47 10 24 12 32 12
57 -1 18 -10 29 -11 32 -4 2 6 14 8 28 6 14 -3 24 0 24 7 0 8 -13 10 -40 5
-48 -8 -51 0 -7 19 39 17 19 18 -48 1z"/>
<path d="M13790 5096 c0 -9 30 -14 35 -6 4 6 -3 10 -14 10 -12 0 -21 -2 -21
-4z"/>
<path d="M13709 5076 c-2 -2 -26 -6 -54 -9 -64 -7 -97 -14 -104 -25 -3 -4 -19
-9 -36 -10 -17 -1 -38 -13 -51 -27 -24 -28 -36 -32 -28 -10 5 11 -1 15 -21 15
-20 0 -26 -4 -21 -15 3 -8 1 -15 -4 -15 -6 0 -10 4 -10 9 0 5 -21 2 -47 -6
-27 -8 -56 -15 -65 -15 -11 0 -15 -5 -11 -14 4 -12 -7 -18 -29 -16 -3 1 -11
-5 -17 -12 -9 -10 11 -9 86 6 119 24 173 37 195 49 13 7 16 5 12 -6 -4 -8 -1
-15 6 -15 6 0 8 -4 5 -10 -3 -5 -17 -10 -30 -10 -13 0 -25 -5 -27 -12 -3 -7
-28 -12 -64 -13 -59 -2 -129 -17 -162 -35 -9 -5 -35 -17 -56 -26 -22 -10 -34
-20 -28 -22 6 -2 20 2 31 8 14 7 21 7 21 0 0 -5 -7 -10 -15 -10 -13 0 -38 -39
-30 -48 1 -1 15 1 31 4 21 4 30 12 31 26 2 27 7 30 34 26 22 -3 22 -4 5 -20
-17 -17 -16 -18 7 -18 21 0 24 4 19 22 -3 13 -1 19 6 15 5 -4 13 -1 16 5 4 7
4 3 2 -9 -2 -13 0 -26 5 -29 5 -3 9 -1 9 3 0 5 10 13 23 18 12 6 21 17 19 24
-2 9 4 12 18 8 11 -3 18 -1 14 4 -3 5 16 9 43 9 54 0 66 6 77 35 l8 20 8 -20
c6 -15 9 -16 9 -4 1 9 11 24 23 35 19 15 20 16 9 2 -7 -10 -10 -18 -5 -18 4 0
3 -5 -4 -12 -18 -18 -15 -27 14 -38 17 -7 32 -6 45 1 27 14 52 -7 46 -37 -5
-27 18 -41 27 -17 7 17 21 10 21 -10 0 -7 7 -12 15 -12 11 0 15 -11 15 -37 0
-37 13 -66 15 -32 1 44 5 62 11 58 4 -2 10 3 13 11 3 9 -1 18 -8 21 -8 3 -17
12 -20 21 -4 10 -2 13 7 10 19 -7 37 6 42 30 2 13 -3 24 -11 27 -20 8 -8 26
17 26 19 0 23 -9 20 -42 -3 -27 12 -21 27 9 15 32 16 63 2 63 -5 0 -9 -5 -7
-11 4 -20 -20 -21 -39 -2 -16 17 -16 18 0 21 12 3 15 10 11 23 -8 24 20 37 45
21 18 -11 30 -7 30 10 0 4 -11 8 -25 8 -14 0 -25 5 -25 11 0 14 -25 6 -26 -9
-3 -25 -5 -27 -13 -13 -8 12 -12 11 -28 -4 -17 -18 -17 -18 5 -13 15 4 22 2
19 -5 -2 -7 -10 -12 -18 -12 -8 0 -17 -4 -20 -9 -9 -11 -49 2 -46 16 1 6 -6
12 -15 13 -33 6 1 -35 45 -55 34 -14 39 -19 24 -25 -16 -7 -16 -9 -2 -19 24
-18 8 -46 -26 -46 -16 0 -29 5 -29 10 0 6 3 9 8 9 4 -1 15 -1 26 0 13 1 16 4
8 14 -5 6 -12 21 -15 32 -4 18 -5 18 -6 -2 -1 -25 -20 -32 -22 -8 -2 23 -4 28
-18 53 -7 13 -15 21 -18 18 -3 -2 -15 6 -28 20 -22 23 -42 33 -30 15 3 -5 1
-12 -5 -16 -5 -3 -10 0 -10 9 0 8 -6 17 -12 19 -13 5 18 11 37 7 17 -3 95 22
95 31 0 9 -13 12 -21 5z m-111 -98 c9 -9 12 -9 12 1 0 7 5 9 11 5 8 -5 6 -10
-5 -16 -9 -5 -22 -6 -29 -1 -6 4 -23 9 -37 11 -38 5 -37 12 1 12 19 0 40 -5
47 -12z m46 -32 c-3 -7 -16 -13 -30 -13 -20 0 -22 2 -13 13 6 8 20 14 30 14
11 0 16 -5 13 -14z m46 -17 c0 -11 -5 -17 -10 -14 -6 3 -13 -1 -16 -9 -6 -16
-24 -12 -24 5 0 6 5 7 10 4 6 -3 10 0 10 9 0 12 8 19 28 25 1 1 2 -8 2 -20z
m-256 -34 c3 -8 1 -15 -4 -15 -6 0 -10 7 -10 15 0 8 2 15 4 15 2 0 6 -7 10
-15z m-44 -15 c0 -5 -4 -10 -10 -10 -5 0 -10 5 -10 10 0 6 5 10 10 10 6 0 10
-4 10 -10z m300 -10 c0 -5 -4 -10 -10 -10 -5 0 -10 5 -10 10 0 6 5 10 10 10 6
0 10 -4 10 -10z"/>
<path d="M13765 5050 c3 -5 10 -10 16 -10 5 0 9 5 9 10 0 6 -7 10 -16 10 -8 0
-12 -4 -9 -10z"/>
<path d="M13925 5030 c-3 -5 1 -13 10 -16 22 -9 29 1 11 15 -10 8 -16 9 -21 1z"/>
<path d="M13294 5009 c-3 -5 6 -9 20 -9 31 0 34 6 6 13 -11 3 -23 1 -26 -4z"/>
<path d="M6120 4940 c0 -5 5 -10 10 -10 6 0 10 5 10 10 0 6 -4 10 -10 10 -5 0
-10 -4 -10 -10z"/>
<path d="M13916 4931 c-4 -7 -5 -15 -2 -18 9 -9 19 4 14 18 -4 11 -6 11 -12 0z"/>
<path d="M13891 4887 c-1 -33 3 -47 12 -46 25 3 38 -1 32 -11 -3 -5 -2 -10 4
-10 16 0 51 42 44 53 -3 5 -8 5 -12 -1 -15 -24 -67 3 -74 38 -2 14 -5 5 -6
-23z"/>
<path d="M5845 4910 c3 -5 11 -10 16 -10 6 0 7 5 4 10 -3 6 -11 10 -16 10 -6
0 -7 -4 -4 -10z"/>
<path d="M5687 4894 c-8 -8 1 -24 14 -24 5 0 9 7 9 15 0 15 -12 20 -23 9z"/>
<path d="M13860 4885 c0 -8 5 -15 10 -15 6 0 10 7 10 15 0 8 -4 15 -10 15 -5
0 -10 -7 -10 -15z"/>
<path d="M13450 4850 c0 -5 5 -10 11 -10 5 0 7 5 4 10 -3 6 -8 10 -11 10 -2 0
-4 -4 -4 -10z"/>
<path d="M13810 4826 c0 -19 4 -38 10 -41 6 -4 7 6 4 25 -6 27 -4 30 12 23 11
-3 22 -11 26 -17 4 -6 8 -1 8 12 0 13 -4 20 -10 17 -5 -3 -19 -1 -30 5 -18 10
-20 8 -20 -24z"/>
<path d="M13095 4830 c-3 -5 1 -10 9 -10 8 0 18 5 21 10 3 6 -1 10 -9 10 -8 0
-18 -4 -21 -10z"/>
<path d="M13620 4836 c0 -2 7 -7 16 -10 8 -3 12 -2 9 4 -6 10 -25 14 -25 6z"/>
<path d="M13916 4813 c4 -18 0 -24 -21 -29 -16 -4 -24 -12 -21 -20 3 -7 -2
-14 -10 -16 -10 -2 -5 -9 16 -21 l31 -18 -5 33 c-5 30 -4 31 6 11 16 -33 25
-28 30 17 2 26 -1 40 -8 40 -7 0 -15 6 -18 13 -3 6 -3 2 0 -10z"/>
<path d="M13410 4811 c0 -6 4 -13 10 -16 6 -3 7 1 4 9 -7 18 -14 21 -14 7z"/>
<path d="M13830 4811 c0 -5 5 -13 10 -16 6 -3 10 -2 10 4 0 5 -4 13 -10 16 -5
3 -10 2 -10 -4z"/>
<path d="M13085 4785 c-22 -13 -54 -25 -71 -25 -16 0 -39 -7 -50 -15 -13 -10
-14 -13 -3 -10 11 4 15 0 14 -12 -2 -28 -14 -43 -36 -43 -12 0 -17 -4 -13 -11
3 -6 -5 -3 -20 6 -15 10 -26 13 -26 6 0 -6 -4 -11 -10 -11 -5 0 -10 7 -10 15
0 8 -5 15 -11 15 -5 0 -8 -4 -5 -9 3 -5 -2 -12 -12 -16 -13 -6 -10 -10 18 -17
19 -6 52 -9 74 -9 53 2 247 69 268 92 9 10 24 19 34 19 9 0 14 3 11 7 -4 3
-23 6 -44 5 -42 -2 -72 16 -51 29 10 7 10 9 -2 9 -8 0 -33 -11 -55 -25z"/>
<path d="M13370 4799 c0 -5 5 -7 10 -4 6 3 10 8 10 11 0 2 -4 4 -10 4 -5 0
-10 -5 -10 -11z"/>
<path d="M13050 4790 c-13 -8 -12 -10 3 -10 9 0 17 5 17 10 0 12 -1 12 -20 0z"/>
<path d="M13261 4776 c-7 -8 -8 -17 -3 -20 6 -3 12 3 15 14 6 24 4 25 -12 6z"/>
<path d="M13510 4770 c6 -11 13 -20 16 -20 2 0 0 9 -6 20 -6 11 -13 20 -16 20
-2 0 0 -9 6 -20z"/>
<path d="M13669 4769 c13 -11 26 -17 29 -14 8 8 -20 35 -37 35 -12 -1 -11 -5
8 -21z"/>
<path d="M8855 4769 c-4 -6 -4 -13 0 -17 4 -4 10 -1 12 6 3 6 9 10 14 6 5 -3
9 0 9 5 0 14 -27 14 -35 0z"/>
<path d="M13306 4763 c-6 -14 -5 -15 5 -6 7 7 10 15 7 18 -3 3 -9 -2 -12 -12z"/>
<path d="M13795 4770 c3 -5 8 -10 11 -10 2 0 4 5 4 10 0 6 -5 10 -11 10 -5 0
-7 -4 -4 -10z"/>
<path d="M13335 4760 c3 -5 8 -10 11 -10 2 0 4 5 4 10 0 6 -5 10 -11 10 -5 0
-7 -4 -4 -10z"/>
<path d="M13550 4761 c0 -6 5 -13 10 -16 6 -3 10 1 10 9 0 9 -4 16 -10 16 -5
0 -10 -4 -10 -9z"/>
<path d="M8900 4750 c0 -5 5 -10 10 -10 6 0 10 5 10 10 0 6 -4 10 -10 10 -5 0
-10 -4 -10 -10z"/>
<path d="M13587 4741 c6 -24 19 -35 26 -24 2 5 -4 16 -14 27 -17 18 -18 18
-12 -3z"/>
<path d="M13230 4740 c20 -13 33 -13 25 0 -3 6 -14 10 -23 10 -15 0 -15 -2 -2
-10z"/>
<path d="M8807 4734 c-8 -8 1 -24 14 -24 5 0 9 7 9 15 0 15 -12 20 -23 9z"/>
<path d="M13797 4733 c-13 -12 -7 -33 9 -33 8 0 12 5 9 10 -3 6 1 10 10 10 9
0 13 5 10 10 -7 11 -28 13 -38 3z"/>
<path d="M12913 4722 c-25 -4 -30 -17 -10 -25 14 -5 53 19 40 25 -4 2 -18 2
-30 0z"/>
<path d="M13333 4715 c0 -8 4 -15 9 -15 4 0 8 7 8 15 0 8 -4 15 -8 15 -5 0 -9
-7 -9 -15z"/>
<path d="M13475 4710 c3 -5 8 -10 11 -10 2 0 4 5 4 10 0 6 -5 10 -11 10 -5 0
-7 -4 -4 -10z"/>
<path d="M13570 4707 c0 -9 -5 -17 -12 -17 -19 0 1 -14 22 -15 16 -1 17 2 8
19 -15 30 -18 32 -18 13z"/>
<path d="M13260 4694 c0 -9 4 -13 9 -10 5 4 11 1 13 -5 2 -6 13 -10 23 -7 17
3 15 6 -12 20 -28 14 -33 14 -33 2z"/>
<path d="M13666 4702 c-3 -5 1 -15 9 -22 21 -17 27 -9 10 13 -7 10 -16 14 -19
9z"/>
<path d="M13833 4696 c-6 -8 -9 -16 -6 -19 8 -9 -23 -37 -40 -37 -10 0 -13 -8
-9 -27 5 -26 5 -26 13 -5 9 25 29 30 29 7 0 -8 5 -15 10 -15 21 0 36 24 32 51
-4 25 -1 28 22 25 14 -1 29 -6 33 -9 11 -12 23 -8 23 8 0 8 -9 15 -19 15 -11
0 -23 5 -26 10 -5 8 -11 7 -21 -1 -10 -8 -14 -8 -14 0 0 15 -12 13 -27 -3z m7
-68 c0 -18 -2 -20 -9 -8 -6 8 -7 18 -5 22 9 14 14 9 14 -14z"/>
<path d="M13171 4691 c-7 -5 -10 -14 -7 -20 9 -14 46 -15 46 -1 0 6 6 10 14
10 8 0 18 5 21 10 8 12 -54 13 -74 1z"/>
<path d="M13433 4686 c-12 -14 -7 -26 9 -26 5 0 6 5 3 10 -3 6 -1 10 4 10 6 0
11 5 11 10 0 14 -13 12 -27 -4z"/>
<path d="M13716 4673 c-6 -14 -5 -15 5 -6 7 7 10 15 7 18 -3 3 -9 -2 -12 -12z"/>
<path d="M13045 4654 c-22 -7 -53 -13 -70 -14 -16 0 -41 -7 -55 -15 l-25 -14
33 -1 c17 0 32 -5 32 -11 0 -6 -7 -9 -15 -5 -8 3 -15 1 -15 -5 0 -6 -6 -9 -13
-6 -6 2 -18 -2 -25 -9 -10 -11 -9 -14 10 -12 13 0 28 0 33 -2 6 -1 21 -2 35
-1 19 1 21 4 12 13 -7 7 -12 16 -12 21 0 6 11 -2 25 -17 14 -15 25 -33 25 -40
0 -8 9 -16 20 -19 11 -3 20 -1 20 4 0 5 8 9 18 9 14 0 15 -2 2 -10 -12 -8 -11
-10 8 -10 24 0 30 -15 10 -23 -10 -3 -8 -10 5 -23 18 -19 18 -19 11 0 -6 15
-4 17 6 11 10 -6 12 -4 7 8 -7 19 1 21 21 8 11 -7 11 -9 -1 -14 -9 -3 -14 -14
-13 -24 2 -10 5 -16 8 -13 3 3 15 -3 25 -12 11 -10 29 -16 41 -13 12 2 25 -1
28 -7 5 -7 2 -8 -7 -3 -8 5 -11 4 -6 0 4 -5 16 -9 26 -10 26 -2 15 24 -15 36
-27 10 -32 26 -9 26 8 0 15 -5 15 -10 0 -6 3 -7 7 -4 3 4 12 2 20 -5 8 -6 26
-13 40 -14 l25 -3 -23 26 c-13 14 -19 23 -13 20 7 -4 17 -1 23 7 9 10 7 13
-11 12 -13 0 -24 -8 -24 -16 -1 -8 -2 -19 -3 -24 0 -6 -7 -3 -13 6 -14 17 -74
35 -64 20 3 -6 -1 -15 -10 -22 -20 -18 -38 1 -29 30 6 17 12 20 32 15 26 -6
26 -6 9 19 -17 27 -9 35 12 14 7 -7 12 -9 12 -6 0 15 -33 38 -53 38 -17 0 -19
-2 -8 -9 11 -7 10 -11 -7 -20 -23 -12 -64 -15 -46 -3 6 4 13 15 17 24 4 12 2
15 -9 11 -8 -3 -14 1 -14 10 0 9 -5 19 -12 23 -7 4 -8 3 -4 -4 4 -7 1 -12 -8
-12 -22 0 -28 16 -11 30 11 9 18 10 29 1 10 -9 15 -8 20 4 7 18 24 20 22 3 0
-7 4 -13 9 -13 6 0 9 6 9 13 -1 7 5 11 14 10 8 -2 17 3 19 10 4 10 -5 12 -36
8 -23 -3 -46 -8 -51 -11 -6 -3 -10 1 -10 9 0 22 -11 24 -55 10z m2 -25 c-9 -6
-15 -14 -13 -18 3 -4 -8 -5 -25 -3 -16 2 -29 6 -29 8 0 7 44 23 65 23 19 0 19
0 2 -10z m23 -71 c11 4 11 2 -2 -11 -25 -26 -38 -20 -38 16 1 30 1 31 13 11 7
-12 18 -19 27 -16z"/>
<path d="M13221 4653 c-7 -8 -10 -17 -7 -20 9 -9 29 13 25 25 -2 6 -10 3 -18
-5z"/>
<path d="M13345 4659 c8 -11 -19 -51 -28 -42 -4 3 -7 1 -7 -5 0 -24 16 -18 41
17 24 34 24 37 7 38 -10 1 -16 -2 -13 -8z"/>
<path d="M8900 4651 c0 -6 5 -13 10 -16 6 -3 10 1 10 9 0 9 -4 16 -10 16 -5 0
-10 -4 -10 -9z"/>
<path d="M13262 4644 c-11 -12 -11 -17 2 -29 15 -16 32 -4 21 15 -4 6 1 7 12
3 16 -6 16 -5 4 10 -16 20 -22 21 -39 1z"/>
<path d="M13390 4650 c0 -5 5 -10 11 -10 5 0 7 5 4 10 -3 6 -8 10 -11 10 -2 0
-4 -4 -4 -10z"/>
<path d="M12784 4639 c-3 -5 0 -9 7 -9 33 0 -11 -20 -48 -23 -47 -2 -48 -17
-1 -17 42 0 32 -7 -17 -13 -111 -14 -143 -48 -43 -46 34 1 67 4 73 7 5 4 23 5
40 3 29 -2 29 -2 10 14 -20 16 -20 16 2 12 15 -3 20 -1 16 9 -2 7 -11 10 -18
8 -7 -3 -16 -1 -19 4 -3 5 11 9 30 10 23 1 34 -3 32 -11 -2 -7 1 -14 7 -15 5
-1 10 6 10 16 0 9 6 16 13 15 6 -2 12 2 12 7 0 6 -9 10 -21 10 -14 0 -19 5
-16 14 4 10 -3 14 -29 14 -19 0 -37 -4 -40 -9z"/>
<path d="M5860 4620 c0 -5 5 -10 10 -10 6 0 10 5 10 10 0 6 -4 10 -10 10 -5 0
-10 -4 -10 -10z"/>
<path d="M1000 4604 c0 -8 5 -12 10 -9 6 3 10 10 10 16 0 5 -4 9 -10 9 -5 0
-10 -7 -10 -16z"/>
<path d="M8840 4608 c0 -7 5 -20 10 -28 8 -12 10 -9 10 13 0 15 -4 27 -10 27
-5 0 -10 -6 -10 -12z"/>
<path d="M13375 4610 c3 -5 11 -10 16 -10 6 0 7 5 4 10 -3 6 -11 10 -16 10 -6
0 -7 -4 -4 -10z"/>
<path d="M13457 4605 c5 -14 2 -16 -15 -10 -13 4 -22 2 -22 -4 0 -6 3 -10 8
-9 4 2 35 -8 70 -20 45 -17 62 -28 58 -37 -3 -8 -1 -17 4 -20 6 -4 10 1 10 9
0 9 9 25 21 37 25 25 19 69 -9 69 -16 -1 -16 -1 1 -11 22 -13 22 -32 -1 -52
-17 -15 -20 -15 -43 1 -13 9 -28 17 -34 18 -5 0 -15 2 -21 2 -7 1 -11 9 -10
18 0 9 -5 19 -12 21 -8 3 -10 -1 -5 -12z"/>
<path d="M13895 4610 c-3 -5 -1 -10 4 -10 6 0 11 5 11 10 0 6 -2 10 -4 10 -3
0 -8 -4 -11 -10z"/>
<path d="M13656 4596 c21 -15 30 -14 19 3 -3 6 -14 11 -23 11 -13 0 -13 -2 4
-14z"/>
<path d="M6120 4580 c0 -5 4 -10 9 -10 6 0 13 5 16 10 3 6 -1 10 -9 10 -9 0
-16 -4 -16 -10z"/>
<path d="M8774 4576 c-3 -9 -14 -16 -23 -16 -12 0 -13 -2 -3 -9 12 -7 11 -17
0 -64 l-14 -55 22 10 c13 6 21 15 18 19 -3 5 2 6 10 3 12 -5 14 4 11 56 -4 66
-10 83 -21 56z"/>
<path d="M13633 4565 c0 -8 6 -15 14 -15 7 0 13 -5 13 -12 0 -6 3 -9 6 -5 3 3
3 15 -1 26 -7 24 -32 28 -32 6z"/>
<path d="M13376 4554 c-11 -8 -16 -14 -10 -14 13 0 39 18 34 24 -3 2 -14 -2
-24 -10z"/>
<path d="M970 4545 c0 -8 5 -15 10 -15 6 0 10 7 10 15 0 8 -4 15 -10 15 -5 0
-10 -7 -10 -15z"/>
<path d="M8820 4546 c-15 -15 -13 -66 3 -66 7 0 18 15 26 33 12 30 13 31 23
11 7 -15 16 -20 34 -16 22 4 59 40 50 49 -6 6 -56 -20 -56 -29 0 -15 -19 -8
-22 9 -3 19 -42 25 -58 9z"/>
<path d="M13420 4556 c0 -2 7 -7 16 -10 8 -3 12 -2 9 4 -6 10 -25 14 -25 6z"/>
<path d="M13467 4534 c3 -7 9 -14 14 -14 14 0 10 17 -5 23 -10 4 -13 1 -9 -9z"/>
<path d="M13690 4544 c0 -6 11 -21 25 -34 32 -30 32 -21 0 16 -14 16 -25 24
-25 18z"/>
<path d="M13750 4540 c0 -5 5 -10 11 -10 5 0 7 5 4 10 -3 6 -8 10 -11 10 -2 0
-4 -4 -4 -10z"/>
<path d="M13243 4523 c4 -3 2 -12 -5 -20 -6 -7 -8 -16 -4 -20 3 -3 6 -1 6 5 0
7 7 12 15 12 8 0 15 7 15 15 0 8 -7 15 -17 15 -9 0 -13 -3 -10 -7z"/>
<path d="M13340 4520 c0 -6 -4 -8 -10 -5 -5 3 -10 1 -10 -4 0 -13 10 -14 29
-2 9 6 10 11 2 15 -6 4 -11 2 -11 -4z"/>
<path d="M13600 4515 c0 -8 2 -15 4 -15 2 0 6 7 10 15 3 8 1 15 -4 15 -6 0
-10 -7 -10 -15z"/>
<path d="M13842 4505 c0 -16 2 -22 5 -12 2 9 2 23 0 30 -3 6 -5 -1 -5 -18z"/>
<path d="M12539 4493 c-6 -12 -21 -24 -32 -27 -13 -3 -18 -10 -13 -22 4 -12 2
-15 -9 -10 -8 3 -15 2 -15 -2 0 -7 -9 -9 -124 -17 -38 -2 -71 -7 -75 -11 -3
-3 11 -5 32 -2 20 2 37 0 37 -4 0 -4 6 -8 14 -8 8 0 16 -7 20 -15 3 -9 0 -15
-9 -15 -26 0 -16 -15 20 -32 46 -21 141 -17 178 6 28 19 36 51 15 59 -7 3 -1
5 13 4 20 -1 25 -5 21 -23 -2 -14 5 -28 23 -43 15 -11 23 -21 18 -21 -5 0 -14
5 -19 10 -6 6 -18 8 -28 4 -13 -5 -14 -9 -5 -20 10 -12 9 -13 -5 -8 -9 3 -16
1 -16 -6 0 -6 -5 -8 -11 -4 -8 4 -7 9 2 15 11 7 11 9 1 9 -7 0 -15 -6 -18 -14
-3 -8 -16 -12 -35 -10 -20 3 -28 0 -23 -7 4 -7 -3 -6 -17 2 -23 12 -23 11 -9
-7 14 -18 14 -18 -6 -1 -24 20 -38 22 -28 5 4 -7 -1 -5 -12 4 -12 11 -24 14
-33 8 -8 -4 -21 -5 -30 -2 -12 4 -14 2 -6 -9 6 -8 2 -6 -7 4 -10 11 -18 15
-18 11 0 -5 -7 0 -15 10 -11 14 -15 16 -15 5 0 -8 -3 -10 -8 -4 -9 13 -49 35
-63 35 -7 0 -18 8 -26 18 -13 16 -14 15 -10 -6 3 -12 1 -20 -4 -16 -15 9 -10
32 11 47 19 13 16 14 -37 16 -78 1 -87 -3 -109 -50 -17 -39 -17 -43 -1 -71 9
-16 17 -37 17 -46 0 -17 83 -90 188 -167 28 -22 52 -43 52 -48 0 -5 -22 -35
-50 -67 -50 -58 -70 -70 -146 -89 -39 -10 -91 -51 -65 -51 7 0 9 -5 5 -11 -5
-8 -9 -8 -14 1 -6 9 -13 9 -29 1 -16 -9 -21 -21 -21 -55 0 -36 6 -49 43 -89
25 -27 52 -47 64 -47 11 0 37 -7 56 -15 20 -8 46 -15 57 -15 12 0 34 -12 49
-27 53 -53 141 -116 173 -122 37 -8 47 -27 19 -36 -12 -3 -21 -12 -21 -18 0
-7 -14 -32 -30 -57 -16 -25 -30 -48 -30 -51 0 -13 325 -71 560 -99 52 -6 102
-13 111 -16 12 -3 34 18 71 68 99 131 274 390 352 521 67 111 76 131 64 145
-11 15 -11 15 3 5 13 -11 21 -3 51 52 34 60 35 65 20 87 -15 23 -15 23 5 5 21
-18 21 -18 29 5 4 13 7 26 6 31 -1 4 3 7 10 7 6 0 1 11 -12 25 -13 14 -18 25
-11 25 7 0 9 5 6 10 -4 6 -11 7 -17 4 -7 -4 -8 -2 -4 4 8 14 33 5 40 -14 3 -8
10 -14 15 -14 6 0 7 7 4 17 -5 12 -3 14 7 8 9 -5 11 -4 6 4 -4 6 -11 9 -16 6
-4 -3 -14 3 -21 13 -13 15 -12 16 4 3 11 -9 17 -10 17 -2 0 11 -16 16 -35 11
-5 -2 -18 -2 -28 -2 -11 0 -15 -4 -11 -11 5 -8 3 -8 -6 0 -19 18 -21 41 -3 47
7 3 12 2 9 -3 -3 -5 2 -15 11 -22 15 -12 16 -12 8 1 -5 8 -10 22 -10 30 0 9
-14 17 -35 20 -20 4 -41 9 -47 13 -6 4 -14 3 -18 -3 -3 -5 3 -10 14 -10 11 0
23 -5 26 -10 4 -6 10 -8 15 -5 5 3 8 -4 7 -15 -1 -11 -6 -20 -11 -20 -5 0 1
-12 15 -27 l24 -28 -27 24 c-15 13 -25 28 -22 32 3 5 -5 9 -17 9 l-22 0 24
-27 24 -28 -31 28 c-36 33 -55 36 -28 5 12 -14 6 -12 -17 7 -20 17 -34 35 -31
40 3 6 2 7 -3 3 -4 -4 -14 -3 -22 4 -11 8 -17 8 -26 -2 -10 -10 -9 -11 2 -5 9
5 12 4 8 -2 -6 -10 19 -28 34 -25 3 1 19 -13 35 -31 l29 -32 -32 29 c-32 29
-46 25 -20 -5 6 -7 -7 4 -30 26 -24 21 -43 46 -43 55 0 13 -1 13 -10 0 -7 -11
0 -25 28 -55 l37 -40 -35 33 c-44 39 -63 42 -29 5 l24 -28 -27 24 c-15 13 -25
28 -22 32 3 5 -4 9 -15 9 -12 0 -30 9 -40 19 -13 13 -22 16 -30 8 -7 -7 -5
-14 7 -23 12 -10 13 -13 3 -14 -8 0 -11 -6 -7 -16 6 -14 4 -15 -9 -4 -11 10
-13 15 -4 20 8 6 8 9 0 14 -6 4 -9 12 -6 17 9 13 -9 11 -24 -3 -9 -8 -11 -8
-8 -2 6 11 -19 29 -35 26 -5 -1 -8 2 -8 8 0 6 -7 10 -16 10 -8 0 -12 5 -9 10
4 6 12 7 18 3 18 -11 47 -11 54 0 3 6 2 7 -4 4 -5 -3 -10 0 -10 8 0 8 5 15 10
15 6 0 6 5 0 13 -6 6 -9 26 -8 44 1 18 -2 30 -7 27 -5 -3 -5 -10 -2 -16 4 -6
-2 -6 -15 1 -11 7 -21 14 -21 17 0 3 6 2 13 -2 8 -5 8 -2 -2 9 -15 18 -26 23
-16 7 3 -5 2 -10 -3 -10 -6 0 -12 7 -16 15 -4 10 -14 14 -32 11 -21 -4 -23 -2
-14 9 7 9 8 15 0 20 -5 3 -10 4 -10 0 0 -3 -19 7 -41 21 -41 25 -42 25 -36 4
4 -15 2 -19 -6 -12 -7 4 -25 9 -41 10 -28 2 -28 1 -13 -16 10 -10 15 -21 12
-24 -3 -3 1 -8 9 -11 9 -4 18 -1 22 5 4 6 3 8 -3 5 -5 -3 -10 0 -10 8 0 11 4
12 14 4 7 -6 10 -15 7 -20 -3 -5 -1 -9 5 -9 6 0 19 -9 30 -21 11 -12 24 -18
30 -15 5 4 12 2 16 -4 3 -6 17 -8 31 -6 16 3 24 0 24 -9 0 -21 19 -28 37 -13
10 8 14 8 10 1 -4 -6 -3 -14 2 -17 5 -4 8 -14 6 -24 -2 -9 -4 -21 -4 -26 -1
-5 -7 -4 -14 2 -10 9 -19 7 -35 -4 -13 -9 -22 -12 -21 -7 1 4 0 10 -1 13 -1 3
-3 13 -5 24 -3 14 -1 16 8 7 15 -15 24 -14 24 4 0 8 -9 23 -20 32 -20 17 -20
17 -13 -2 7 -18 5 -18 -17 3 -13 12 -26 19 -30 15 -4 -3 -15 1 -26 11 -16 15
-19 15 -24 2 -6 -14 13 -32 36 -35 4 -1 6 -4 5 -8 -2 -5 -10 -6 -17 -5 -13 3
-13 1 -1 -13 20 -24 21 -45 4 -52 -13 -5 -12 -9 3 -26 18 -20 18 -20 -9 -2
-21 13 -28 14 -28 4 0 -7 -27 13 -60 46 -33 32 -62 56 -65 54 -3 -3 24 -33 59
-67 35 -34 61 -62 57 -62 -13 0 -142 136 -135 143 4 4 -1 9 -10 13 -9 3 -13
10 -10 15 3 5 -1 7 -8 6 -7 -2 -10 -2 -5 0 4 3 4 9 1 15 -4 6 2 6 14 -1 20
-11 39 -1 25 13 -13 13 -53 6 -53 -10 0 -9 -5 -12 -12 -8 -10 6 -10 5 -1 -7
11 -13 9 -18 -12 -29 -13 -7 -22 -17 -19 -21 3 -5 -2 -6 -11 -3 -9 4 -15 3
-14 -2 5 -30 -1 -37 -19 -21 -24 22 -38 22 -21 0 11 -13 8 -13 -16 3 -16 10
-26 13 -22 7 5 -7 5 -13 0 -13 -9 1 -49 30 -42 31 2 0 23 1 46 3 43 2 72 15
37 17 -18 0 -18 1 1 9 26 11 37 12 31 2 -5 -9 39 -10 48 -1 3 3 -3 14 -14 24
-22 20 -28 8 -7 -14 10 -11 9 -12 -3 -6 -8 5 -21 13 -29 19 -17 13 -122 16
-114 3 3 -5 -4 -4 -15 2 -12 6 -25 11 -29 10 -25 -4 -63 2 -63 11 0 10 71 7
89 -5 6 -3 11 -2 11 4 0 6 7 8 15 5 8 -4 22 0 31 7 9 8 18 9 22 3 8 -12 39
-11 114 4 66 13 125 44 94 50 -10 2 -22 -2 -27 -10 -5 -7 -9 -8 -9 -2 0 6 -11
12 -25 12 -13 0 -23 -4 -20 -8 2 -4 -7 -12 -20 -18 -15 -7 -25 -8 -25 -2 0 5
-7 7 -15 4 -8 -4 -12 -11 -9 -16 4 -6 -3 -5 -15 1 -11 7 -21 16 -21 21 0 6
-10 10 -23 10 -13 0 -27 3 -31 8 -4 4 -27 7 -51 7 -35 0 -47 -5 -56 -22z m73
0 c-6 -2 -10 -9 -6 -14 3 -5 -4 -9 -15 -9 -21 0 -27 11 -14 23 3 4 16 7 27 6
12 0 15 -3 8 -6z m73 -13 c-3 -5 -11 -10 -16 -10 -6 0 -7 5 -4 10 3 6 11 10
16 10 6 0 7 -4 4 -10z m373 -14 c-2 -1 -10 -7 -20 -14 -11 -9 -18 -10 -23 -2
-4 6 -1 9 7 8 7 -2 12 2 11 9 -2 7 4 10 13 6 8 -3 14 -6 12 -7z m-530 -52 c28
-4 31 -7 18 -19 -18 -18 -43 -18 -75 -1 -14 8 -31 12 -38 9 -7 -3 -13 -1 -13
3 0 11 62 15 108 8z m-121 -21 c0 -9 -4 -10 -14 -2 -7 6 -13 12 -13 14 0 1 6
2 13 2 8 0 14 -6 14 -14z m28 -27 c-11 -8 -16 -20 -12 -30 4 -9 2 -16 -3 -16
-17 0 -11 42 7 56 10 7 20 10 22 8 3 -2 -4 -10 -14 -18z m396 9 c0 -6 19 -30
42 -55 32 -35 30 -34 -10 6 -29 28 -55 49 -59 45 -4 -3 -4 0 0 7 9 14 28 12
27 -3z m-681 1 c0 -11 -19 -15 -25 -6 -3 5 1 10 9 10 9 0 16 -2 16 -4z m660
-51 c13 -14 21 -25 18 -25 -2 0 -15 11 -28 25 -13 14 -21 25 -18 25 2 0 15
-11 28 -25z m25 5 c10 -11 16 -20 13 -20 -3 0 -13 9 -23 20 -10 11 -16 20 -13
20 3 0 13 -9 23 -20z m-57 -15 c-3 -3 -9 2 -12 12 -6 14 -5 15 5 6 7 -7 10
-15 7 -18z m314 -34 c-10 -6 -7 -13 15 -30 15 -12 19 -18 8 -13 -11 5 -25 8
-31 5 -6 -2 -17 3 -24 12 -11 13 -10 14 4 9 9 -4 16 -3 15 2 -3 17 1 24 14 24
9 0 9 -2 -1 -9z m-698 -17 c3 -8 2 -12 -4 -9 -6 3 -10 10 -10 16 0 14 7 11 14
-7z m447 -11 c13 -16 12 -17 -3 -4 -10 7 -18 15 -18 17 0 8 8 3 21 -13z m90
-19 c23 -25 23 -26 2 -13 -13 7 -25 19 -27 26 -8 19 -2 16 25 -13z m234 -4
c10 -11 16 -20 13 -20 -3 0 -13 9 -23 20 -10 11 -16 20 -13 20 3 0 13 -9 23
-20z m69 -37 c9 -21 -26 5 -49 35 l-20 27 32 -25 c17 -14 34 -31 37 -37z
m-523 20 c13 -16 12 -17 -3 -4 -10 7 -18 15 -18 17 0 8 8 3 21 -13z m53 -19
c7 -19 2 -18 -19 6 -16 17 -16 20 -3 15 9 -4 19 -13 22 -21z m566 0 c0 -2 -9
0 -20 6 -11 6 -20 13 -20 16 0 2 9 0 20 -6 11 -6 20 -13 20 -16z m-7 -29 c23
-32 17 -32 -13 0 -13 14 -19 25 -14 25 5 0 17 -12 27 -25z m177 -60 c13 -14
21 -25 18 -25 -2 0 -15 11 -28 25 -13 14 -21 25 -18 25 2 0 15 -11 28 -25z
m73 -10 c36 -45 30 -45 -13 0 -19 19 -30 35 -24 35 5 0 22 -16 37 -35z m-228
15 c3 -5 1 -10 -4 -10 -6 0 -11 5 -11 10 0 6 2 10 4 10 3 0 8 -4 11 -10z m205
-25 c19 -19 32 -35 29 -35 -3 0 -20 16 -39 35 -19 19 -32 35 -29 35 3 0 20
-16 39 -35z m83 -24 c-2 -3 -18 10 -36 29 l-32 34 36 -30 c20 -16 34 -31 32
-33z m-2 32 c13 -16 12 -17 -3 -4 -10 7 -18 15 -18 17 0 8 8 3 21 -13z m-330
-10 c13 -16 12 -17 -3 -4 -10 7 -18 15 -18 17 0 8 8 3 21 -13z m-127 -9 c3 -8
2 -12 -4 -9 -6 3 -10 10 -10 16 0 14 7 11 14 -7z m307 -11 c13 -15 12 -15 -8
-4 -24 12 -29 21 -14 21 5 0 15 -7 22 -17z m59 -28 c19 -19 32 -35 29 -35 -3
0 -20 16 -39 35 -19 19 -32 35 -29 35 3 0 20 -16 39 -35z m60 -26 c0 -14 -4
-11 -41 28 l-34 36 38 -28 c20 -15 37 -31 37 -36z m-289 24 c13 -16 12 -17 -3
-4 -10 7 -18 15 -18 17 0 8 8 3 21 -13z m130 0 c13 -16 12 -17 -3 -4 -10 7
-18 15 -18 17 0 8 8 3 21 -13z m-70 -30 c13 -16 12 -17 -3 -4 -10 7 -18 15
-18 17 0 8 8 3 21 -13z m-50 -20 c13 -16 12 -17 -3 -4 -10 7 -18 15 -18 17 0
8 8 3 21 -13z m143 -9 c5 -14 4 -15 -9 -4 -17 14 -19 20 -6 20 5 0 12 -7 15
-16z m-49 -14 c3 -5 1 -10 -4 -10 -6 0 -11 5 -11 10 0 6 2 10 4 10 3 0 8 -4
11 -10z m-34 -47 c13 -16 12 -17 -3 -4 -10 7 -18 15 -18 17 0 8 8 3 21 -13z"/>
<path d="M12961 4511 c-8 -5 -9 -11 -3 -15 5 -3 12 1 16 9 6 17 6 18 -13 6z"/>
<path d="M8696 4484 c-3 -9 -2 -22 2 -31 6 -10 9 -5 9 16 0 35 -2 38 -11 15z"/>
<path d="M13680 4495 c0 -5 5 -17 10 -25 5 -8 10 -10 10 -5 0 6 -5 17 -10 25
-5 8 -10 11 -10 5z"/>
<path d="M12896 4475 c-3 -8 -16 -15 -30 -15 l-24 0 28 -30 c17 -18 27 -39 25
-50 -2 -12 13 -34 45 -64 44 -41 52 -45 74 -35 26 12 28 28 7 53 -7 9 -10 16
-6 16 5 0 0 9 -10 20 -10 11 -14 20 -10 20 5 0 3 6 -3 12 -7 7 -20 13 -30 13
-10 0 -17 8 -17 20 0 11 -8 28 -17 38 -22 21 -24 21 -32 2z m29 -15 c4 -6 -1
-7 -11 -3 -14 5 -15 3 -4 -16 11 -21 10 -22 -10 -11 -17 9 -19 14 -9 26 13 16
25 18 34 4z m70 -92 c11 -13 13 -17 6 -10 -19 15 -30 15 -27 0 3 -24 17 -38
29 -32 7 4 9 4 5 -1 -4 -4 -2 -15 4 -24 7 -9 -1 -4 -18 12 -41 37 -55 35 -19
-3 16 -16 27 -30 24 -30 -3 0 -21 16 -40 37 -18 20 -29 33 -22 29 18 -10 22
17 5 36 -13 16 -12 17 9 13 13 -3 32 -15 44 -27z"/>
<path d="M13350 4476 c4 -4 16 -4 26 2 16 9 14 10 -8 9 -15 -1 -23 -6 -18 -11z"/>
<path d="M9930 4469 c0 -5 5 -7 10 -4 6 3 10 8 10 11 0 2 -4 4 -10 4 -5 0 -10
-5 -10 -11z"/>
<path d="M13422 4471 c-10 -6 -10 -10 3 -21 23 -19 18 -28 -12 -22 -16 2 -25
1 -21 -3 4 -5 3 -14 -3 -22 -9 -9 -8 -13 0 -14 6 -1 14 -3 19 -4 4 -2 17 -6
30 -10 12 -4 22 -10 22 -14 0 -12 49 -11 56 1 5 7 2 9 -9 5 -9 -3 -18 0 -21 9
-3 8 -1 14 5 14 6 0 8 4 5 9 -3 5 -15 7 -26 4 -11 -3 -18 -9 -15 -12 2 -4 -2
-8 -10 -8 -8 0 -11 5 -8 10 3 6 1 7 -5 3 -6 -3 -13 -2 -17 3 -3 6 3 8 14 6 21
-4 33 22 24 55 -6 22 -11 24 -31 11z"/>
<path d="M13465 4471 c-3 -5 -1 -12 5 -16 5 -3 10 1 10 9 0 18 -6 21 -15 7z"/>
<path d="M13595 4470 c3 -5 8 -10 11 -10 2 0 4 5 4 10 0 6 -5 10 -11 10 -5 0
-7 -4 -4 -10z"/>
<path d="M13746 4457 c3 -10 9 -15 12 -12 3 3 0 11 -7 18 -10 9 -11 8 -5 -6z"/>
<path d="M13324 4452 c4 -7 14 -12 23 -12 14 0 14 -2 -1 -19 -13 -14 -14 -21
-5 -27 7 -4 10 -3 7 2 -7 11 17 35 26 26 4 -3 4 1 0 11 -3 9 -10 17 -14 17 -5
0 -16 3 -26 7 -12 4 -15 3 -10 -5z"/>
<path d="M13490 4449 c0 -5 5 -7 10 -4 6 3 10 8 10 11 0 2 -4 4 -10 4 -5 0
-10 -5 -10 -11z"/>
<path d="M13513 4435 c-8 -22 6 -33 17 -15 13 20 12 30 0 30 -6 0 -13 -7 -17
-15z"/>
<path d="M13552 4424 c-7 -8 -11 -14 -10 -15 26 -7 38 -5 38 6 0 21 -13 25
-28 9z"/>
<path d="M13626 4423 c-6 -14 -5 -15 5 -6 7 7 10 15 7 18 -3 3 -9 -2 -12 -12z"/>
<path d="M13281 4397 c8 -14 13 -16 25 -7 17 15 10 29 -15 27 -16 -1 -18 -5
-10 -20z"/>
<path d="M12856 4401 c-4 -5 2 -15 13 -20 16 -9 19 -8 17 6 -3 20 -21 28 -30
14z"/>
<path d="M13610 4390 c0 -5 5 -10 10 -10 6 0 10 5 10 10 0 6 -4 10 -10 10 -5
0 -10 -4 -10 -10z"/>
<path d="M13710 4388 c0 -4 6 -8 14 -8 8 0 17 4 20 8 2 4 -4 8 -15 8 -10 0
-19 -4 -19 -8z"/>
<path d="M13530 4386 c0 -2 7 -6 15 -10 8 -3 15 -1 15 4 0 6 -7 10 -15 10 -8
0 -15 -2 -15 -4z"/>
<path d="M13244 4372 c4 -7 2 -12 -4 -12 -7 0 -10 -6 -7 -14 3 -7 0 -19 -6
-25 -6 -6 -7 -14 -3 -18 4 -5 14 1 22 12 8 11 18 19 22 19 4 -1 6 2 4 8 -1 6
10 7 30 3 26 -6 31 -5 21 5 -7 7 -22 14 -35 14 -13 1 -29 6 -37 10 -10 6 -12
5 -7 -2z"/>
<path d="M5970 4329 c0 -22 4 -38 8 -35 8 5 4 76 -4 76 -2 0 -4 -18 -4 -41z"/>
<path d="M8483 4352 c-18 -2 -33 -7 -33 -13 0 -5 -8 -9 -18 -9 -18 0 -68 -48
-59 -57 3 -2 42 13 88 34 81 38 87 52 22 45z"/>
<path d="M12720 4350 c0 -5 5 -10 11 -10 5 0 7 5 4 10 -3 6 -8 10 -11 10 -2 0
-4 -4 -4 -10z"/>
<path d="M13568 4348 c14 -14 16 -42 2 -33 -6 3 -7 -1 -4 -9 3 -9 10 -16 14
-16 10 0 20 26 16 43 -1 6 -1 9 1 4 6 -9 23 1 23 14 0 5 -14 9 -32 9 -25 0
-29 -3 -20 -12z"/>
<path d="M13155 4342 c-17 -12 -14 -28 5 -29 10 -1 17 4 16 12 -3 20 -10 25
-21 17z"/>
<path d="M13327 4323 c-15 -15 -19 -16 -26 -4 -7 11 -16 8 -47 -13 -21 -14
-34 -26 -29 -26 6 0 3 -5 -5 -11 -12 -8 -11 -9 5 -6 11 2 19 9 17 17 -2 10 0
11 11 2 8 -7 17 -9 21 -5 4 4 11 1 16 -7 7 -11 10 -11 10 -2 0 10 5 10 21 1
13 -6 19 -7 15 -1 -3 6 0 13 6 16 8 3 7 5 -2 3 -9 -1 -16 3 -16 8 0 6 7 9 15
7 9 -2 12 2 8 12 -4 11 -1 13 10 9 11 -4 14 -2 9 5 -10 16 -19 15 -39 -5z
m-31 -29 c2 -12 -1 -13 -12 -3 -7 6 -11 16 -8 21 7 11 17 3 20 -18z"/>
<path d="M13635 4330 c-8 -13 4 -32 16 -25 12 8 12 35 0 35 -6 0 -13 -4 -16
-10z"/>
<path d="M13747 4333 c-12 -3 -16 -10 -13 -20 5 -11 2 -13 -10 -9 -8 3 -20 6
-25 6 -6 0 -7 6 -3 13 5 8 2 8 -9 -2 -19 -15 -22 -37 -7 -46 6 -4 9 -2 8 3 -3
10 1 12 30 12 14 0 15 -2 2 -10 -9 -6 -10 -10 -3 -10 6 0 15 5 18 10 4 6 11 8
16 5 5 -3 6 1 3 9 -3 9 -2 16 3 16 5 0 10 7 10 15 0 8 -1 14 -1 14 -1 -1 -9
-3 -19 -6z"/>
<path d="M13455 4320 c-3 -5 1 -10 9 -10 9 0 16 5 16 10 0 6 -4 10 -9 10 -6 0
-13 -4 -16 -10z"/>
<path d="M13510 4321 c0 -5 5 -13 10 -16 6 -3 10 -2 10 4 0 5 -4 13 -10 16 -5
3 -10 2 -10 -4z"/>
<path d="M13362 4294 c2 -10 10 -18 17 -16 7 1 26 -8 43 -20 18 -12 28 -16 24
-9 -6 10 -3 11 13 6 13 -4 21 -2 21 5 0 6 -4 9 -9 6 -4 -3 -17 1 -27 9 -19 14
-19 14 1 15 16 0 17 2 5 10 -15 9 -33 -7 -24 -22 9 -14 -7 -9 -38 13 -28 20
-30 21 -26 3z"/>
<path d="M11062 4243 c30 -32 78 -82 106 -110 28 -29 55 -53 59 -53 4 0 -42
50 -102 110 -60 61 -112 110 -115 110 -2 0 21 -26 52 -57z"/>
<path d="M13495 4290 c-3 -5 -1 -10 4 -10 6 0 11 5 11 10 0 6 -2 10 -4 10 -3
0 -8 -4 -11 -10z"/>
<path d="M13555 4280 c-3 -5 1 -10 9 -10 9 0 16 -4 16 -8 0 -5 7 -9 15 -9 17
0 10 13 -15 27 -13 7 -21 7 -25 0z"/>
<path d="M13305 4240 c3 -5 10 -10 16 -10 5 0 9 5 9 10 0 6 -7 10 -16 10 -8 0
-12 -4 -9 -10z"/>
<path d="M13345 4240 c-3 -5 -1 -10 4 -10 6 0 11 5 11 10 0 6 -2 10 -4 10 -3
0 -8 -4 -11 -10z"/>
<path d="M13648 4243 c7 -3 16 -2 19 1 4 3 -2 6 -13 5 -11 0 -14 -3 -6 -6z"/>
<path d="M13464 4223 c3 -16 13 -19 59 -14 8 1 8 4 -3 10 -8 6 -18 7 -22 5 -4
-3 -8 0 -8 5 0 6 -6 11 -14 11 -8 0 -13 -8 -12 -17z"/>
<path d="M13695 4219 c-7 -21 -21 -25 -27 -8 -2 6 -11 10 -19 8 -11 -3 -5 -13
21 -34 19 -16 29 -22 21 -12 -12 15 -12 17 4 11 14 -6 16 -3 11 14 -5 15 -2
21 11 24 17 3 17 4 1 10 -12 5 -19 1 -23 -13z"/>
<path d="M8265 4120 c3 -5 8 -10 11 -10 2 0 4 5 4 10 0 6 -5 10 -11 10 -5 0
-7 -4 -4 -10z"/>
<path d="M13640 4122 c0 -12 19 -26 26 -19 2 2 -2 10 -11 17 -9 8 -15 8 -15 2z"/>
<path d="M11276 4015 c23 -28 52 -59 65 -70 13 -11 -1 8 -30 43 -29 34 -58 65
-65 69 -6 4 8 -15 30 -42z"/>
<path d="M10466 3971 c-3 -5 1 -14 8 -20 12 -10 13 -8 9 8 -6 23 -9 25 -17 12z"/>
<path d="M10275 3950 c-3 -5 -1 -10 4 -10 6 0 11 5 11 10 0 6 -2 10 -4 10 -3
0 -8 -4 -11 -10z"/>
<path d="M10201 3933 c-1 -12 4 -25 9 -28 12 -7 12 2 0 30 -8 19 -9 19 -9 -2z"/>
<path d="M10225 3940 c3 -5 8 -10 11 -10 2 0 4 5 4 10 0 6 -5 10 -11 10 -5 0
-7 -4 -4 -10z"/>
<path d="M10385 3943 c-47 -10 -51 -14 -31 -25 15 -8 21 -8 24 0 2 7 10 12 18
12 8 0 14 5 14 10 0 6 -1 9 -2 9 -2 -1 -12 -3 -23 -6z"/>
<path d="M11437 3829 c34 -41 74 -86 90 -99 15 -14 -8 17 -52 68 -43 51 -83
96 -89 99 -6 4 17 -27 51 -68z"/>
<path d="M10525 3840 c-8 -13 5 -13 25 0 13 8 13 10 -2 10 -9 0 -20 -4 -23
-10z"/>
<path d="M10540 3811 c0 -5 5 -13 10 -16 6 -3 10 -2 10 4 0 5 -4 13 -10 16 -5
3 -10 2 -10 -4z"/>
<path d="M10490 3780 c0 -5 5 -10 10 -10 6 0 10 5 10 10 0 6 -4 10 -10 10 -5
0 -10 -4 -10 -10z"/>
<path d="M10555 3770 c-3 -5 -1 -10 4 -10 6 0 11 5 11 10 0 6 -2 10 -4 10 -3
0 -8 -4 -11 -10z"/>
<path d="M10935 3766 c-18 -13 -18 -14 3 -25 21 -11 39 0 28 18 -4 5 4 7 16 3
14 -3 19 -2 14 6 -10 16 -38 15 -61 -2z"/>
<path d="M10730 3726 c0 -2 7 -7 16 -10 8 -3 12 -2 9 4 -6 10 -25 14 -25 6z"/>
<path d="M10785 3710 c-3 -5 -1 -10 4 -10 6 0 11 5 11 10 0 6 -2 10 -4 10 -3
0 -8 -4 -11 -10z"/>
<path d="M11009 3699 c12 -12 25 -18 28 -15 4 3 -2 13 -13 21 -29 22 -41 18
-15 -6z"/>
<path d="M11050 3680 c0 -5 5 -10 10 -10 6 0 10 5 10 10 0 6 -4 10 -10 10 -5
0 -10 -4 -10 -10z"/>
<path d="M6262 3650 c0 -14 2 -19 5 -12 2 6 2 18 0 25 -3 6 -5 1 -5 -13z"/>
<path d="M11260 3631 c0 -6 9 -9 20 -8 11 1 20 5 20 9 0 4 -9 8 -20 8 -11 0
-20 -4 -20 -9z"/>
<path d="M11506 3553 c-6 -14 -5 -15 5 -6 7 7 10 15 7 18 -3 3 -9 -2 -12 -12z"/>
<path d="M11540 3460 c0 -5 5 -10 10 -10 6 0 10 5 10 10 0 6 -4 10 -10 10 -5
0 -10 -4 -10 -10z"/>
<path d="M5835 3160 c3 -5 8 -10 11 -10 2 0 4 5 4 10 0 6 -5 10 -11 10 -5 0
-7 -4 -4 -10z"/>
<path d="M5856 3144 c-30 -11 -42 -11 -53 -3 -10 9 -23 9 -52 0 -21 -6 -47
-11 -57 -11 -11 0 -27 -9 -37 -20 -9 -11 -14 -20 -11 -20 4 0 1 -7 -6 -15 -7
-8 -23 -15 -36 -15 -17 0 -25 -7 -30 -25 -6 -24 -24 -35 -24 -15 0 19 -17 10
-29 -16 -9 -21 -9 -25 1 -21 31 12 383 170 387 173 8 8 -14 2 -53 -12z"/>
<path d="M12020 3120 c0 -5 5 -10 10 -10 6 0 10 5 10 10 0 6 -4 10 -10 10 -5
0 -10 -4 -10 -10z"/>
<path d="M5408 2963 c7 -3 16 -2 19 1 4 3 -2 6 -13 5 -11 0 -14 -3 -6 -6z"/>
<path d="M12448 2873 c7 -3 16 -2 19 1 4 3 -2 6 -13 5 -11 0 -14 -3 -6 -6z"/>
<path d="M12554 2729 c-3 -5 6 -9 20 -9 31 0 34 6 6 13 -11 3 -23 1 -26 -4z"/>
<path d="M12600 2705 c-9 -10 -9 -15 -1 -15 6 0 11 4 11 10 0 5 7 7 15 4 8 -4
15 -1 15 5 0 16 -25 13 -40 -4z"/>
</g>
</svg>
