<?xml version="1.0" standalone="no"?>
<!DOCTYPE svg PUBLIC "-//W3C//DTD SVG 20010904//EN"
 "http://www.w3.org/TR/2001/REC-SVG-20010904/DTD/svg10.dtd">
<svg version="1.0" xmlns="http://www.w3.org/2000/svg"
 width="1419.000000pt" height="1419.000000pt" viewBox="0 0 1419.000000 1419.000000"
 preserveAspectRatio="xMidYMid meet">

<g transform="translate(0.000000,1419.000000) scale(0.100000,-0.100000)"
fill="#000000" stroke="none">
<path d="M7209 13400 c-21 -34 -17 -146 11 -280 12 -58 25 -130 29 -160 6 -43
8 -24 10 91 1 100 -3 149 -11 157 -7 7 -14 56 -17 114 -6 98 -7 101 -22 78z"/>
<path d="M7478 13403 c7 -3 16 -2 19 1 4 3 -2 6 -13 5 -11 0 -14 -3 -6 -6z"/>
<path d="M7348 13367 c28 -29 37 -77 23 -117 -7 -22 -7 -54 1 -113 6 -45 11
-106 11 -134 0 -29 5 -53 10 -53 5 0 7 6 4 13 -3 8 -1 20 4 28 8 12 10 12 18
0 6 -9 11 -10 15 -2 12 19 32 12 44 -14 l12 -25 -28 16 c-15 9 -20 10 -11 3 8
-8 19 -23 23 -34 4 -11 10 -15 14 -10 9 13 70 17 77 4 4 -5 11 -6 17 -3 6 4
14 0 19 -7 7 -11 11 -10 24 6 16 20 16 20 12 -2 -4 -19 -2 -21 11 -14 10 5 26
5 37 0 19 -7 19 -8 -3 -8 -19 -1 -22 -6 -20 -31 2 -32 5 -34 27 -21 9 6 10 11
2 15 -18 11 -13 22 11 23 15 2 18 -1 10 -6 -25 -15 19 -53 61 -53 40 0 46 -8
21 -32 -8 -9 -12 -16 -7 -16 5 0 14 5 20 11 7 7 15 6 27 -6 9 -9 21 -13 27
-10 6 4 17 -2 25 -14 8 -12 21 -21 29 -21 7 0 15 -6 18 -12 3 -10 8 -10 21 1
9 8 19 11 23 7 3 -3 0 -6 -8 -6 -11 0 -11 -2 -1 -9 7 -4 14 -18 15 -29 1 -12
7 -22 15 -22 7 0 11 -4 8 -8 -2 -4 4 -8 15 -8 11 0 17 5 15 11 -2 5 -9 9 -15
8 -6 -2 -11 6 -11 17 0 27 7 25 37 -10 13 -16 31 -30 38 -30 7 0 15 -7 19 -15
3 -8 12 -15 20 -15 7 0 17 -11 20 -24 4 -17 16 -26 46 -34 28 -7 40 -7 40 1 0
6 3 7 6 4 4 -4 2 -13 -4 -20 -9 -10 -6 -17 8 -30 11 -9 26 -17 33 -17 6 -1 1
-7 -13 -15 l-25 -14 32 -1 c21 0 38 -8 51 -25 11 -14 23 -25 27 -25 12 0 32
-25 28 -37 -2 -6 5 -21 16 -32 12 -12 21 -25 21 -30 0 -5 5 -22 11 -38 10 -27
11 -27 25 -9 14 19 14 19 14 -2 0 -12 4 -22 9 -22 5 0 7 9 4 20 -3 12 0 20 7
20 9 0 10 -10 6 -35 -6 -31 -4 -36 19 -45 16 -6 25 -17 25 -31 0 -15 4 -19 16
-15 8 3 13 2 10 -3 -3 -4 5 -19 17 -31 16 -18 17 -22 4 -17 -24 9 -31 -10 -8
-22 16 -9 21 -7 29 17 9 23 11 24 11 5 1 -12 5 -23 10 -25 9 -3 18 -40 20 -80
1 -11 9 -18 20 -18 15 0 20 -10 26 -47 7 -54 28 -89 45 -78 8 5 9 10 2 14 -7
4 -7 19 -2 41 15 66 15 71 34 -600 34 -1169 35 -1148 22 623 -2 257 0 467 4
467 4 0 7 46 6 103 -1 115 4 148 39 253 14 41 25 92 25 114 0 21 5 42 10 45 7
4 2 15 -12 27 l-23 20 -3 -89 c-2 -48 -7 -92 -13 -98 -7 -7 -8 15 -3 66 4 51
3 78 -4 83 -6 4 -105 35 -219 71 -114 35 -338 104 -498 153 -493 153 -753 232
-761 232 -4 0 2 -10 14 -23z m162 -127 c0 -6 6 -10 13 -9 23 4 68 -13 64 -25
-5 -15 -57 -15 -84 1 -12 7 -31 13 -43 13 -11 0 -20 7 -20 15 0 10 11 15 35
15 19 0 35 -5 35 -10z m192 -59 c3 8 9 7 20 -4 8 -9 18 -13 22 -10 3 4 6 -1 6
-9 0 -13 -8 -14 -47 -7 -54 10 -63 17 -43 29 9 5 19 5 26 -1 8 -7 13 -6 16 2z
m88 -315 c0 -3 -4 -8 -10 -11 -5 -3 -10 -1 -10 4 0 6 5 11 10 11 6 0 10 -2 10
-4z"/>
<path d="M7327 13193 c-5 -7 -17 -13 -29 -13 -20 0 -20 -4 -14 -92 3 -51 9
-207 12 -346 4 -139 11 -255 15 -258 5 -3 7 24 4 63 -10 135 -14 562 -5 568
13 8 18 -35 27 -210 4 -88 8 -151 10 -140 6 42 -12 439 -20 428z"/>
<path d="M5645 13080 c-3 -5 1 -10 9 -10 9 0 16 5 16 10 0 6 -4 10 -9 10 -6 0
-13 -4 -16 -10z"/>
<path d="M5890 13075 c0 -8 4 -15 10 -15 5 0 7 7 4 15 -4 8 -8 15 -10 15 -2 0
-4 -7 -4 -15z"/>
<path d="M6134 13063 c6 -29 59 -90 56 -63 -5 34 0 41 18 31 14 -7 19 -22 20
-57 l0 -48 -56 62 c-38 41 -65 62 -79 62 -14 0 -23 6 -23 15 0 12 -7 14 -27 9
-16 -4 -32 -10 -37 -15 -5 -5 -15 -4 -23 2 -10 9 -13 2 -13 -35 0 -49 -15 -76
-39 -68 -24 8 -51 36 -41 42 14 8 -10 79 -25 74 -6 -3 -10 -18 -8 -37 4 -30 3
-31 -11 -13 -9 11 -16 23 -16 28 0 4 -4 8 -10 8 -5 0 -10 -11 -10 -25 0 -14 4
-25 9 -25 14 0 0 -54 -19 -72 -16 -15 -20 -15 -30 -3 -6 8 -9 24 -5 37 6 23 6
23 -10 3 -16 -19 -17 -19 -11 11 5 23 2 35 -13 48 -18 17 -20 17 -30 -1 -9
-17 -11 -17 -23 -1 -18 23 -52 26 -74 6 -26 -23 -92 -29 -78 -7 7 12 -36 2
-46 -10 -3 -3 -14 -13 -24 -21 -18 -14 -19 -13 -14 6 5 18 2 21 -16 17 -14 -3
-17 -2 -8 4 8 6 -14 10 -60 10 -59 0 -69 -2 -55 -12 26 -19 20 -27 -12 -20
-22 5 -35 1 -50 -14 -12 -12 -32 -21 -46 -21 -16 0 -25 -6 -25 -16 0 -26 -33
-74 -52 -74 -28 0 -31 19 -5 29 20 8 37 29 37 47 0 2 -11 2 -25 -2 -16 -4 -25
-2 -25 6 0 14 -41 9 -41 -5 0 -5 -7 -17 -15 -26 -12 -14 -31 -16 -113 -12 -83
5 -104 2 -142 -15 -32 -15 -46 -17 -51 -9 -6 9 -8 9 -8 0 0 -6 -3 -20 -7 -30
-7 -17 -5 -17 17 -3 14 8 45 14 70 14 63 -2 63 -3 48 -16 -24 -23 -66 -41 -82
-35 -8 3 -18 2 -21 -2 -6 -11 23 -23 36 -15 14 8 11 -6 -5 -22 -18 -18 -26
-18 -26 0 0 16 -52 29 -61 15 -3 -5 -17 -10 -32 -11 -15 -1 -27 -6 -27 -10 0
-12 -50 -58 -63 -58 -10 0 -29 -13 -84 -60 -7 -6 -18 -9 -25 -8 -7 2 -13 -4
-13 -12 0 -19 -47 -60 -69 -60 -9 0 -15 -3 -15 -7 3 -21 -3 -31 -22 -36 -16
-4 -19 -11 -14 -29 4 -16 3 -19 -3 -9 -7 9 -12 10 -16 2 -4 -6 -4 -11 0 -11 4
0 1 -6 -8 -12 -9 -7 -18 -22 -20 -32 -1 -11 -7 -18 -12 -17 -11 3 -46 -50 -40
-61 3 -4 -1 -8 -10 -8 -8 0 -17 -13 -21 -29 -4 -18 -11 -28 -19 -25 -7 3 -19
-11 -29 -31 -21 -43 -22 -60 -2 -25 8 14 14 19 15 12 0 -15 -19 -55 -31 -62
-11 -7 -36 -109 -44 -180 -6 -51 -21 -101 -60 -208 -8 -24 -16 -76 -17 -115
-1 -69 -29 -167 -48 -167 -4 0 -7 -38 -6 -84 0 -48 5 -79 9 -72 5 6 6 -5 2
-24 -11 -55 -12 -140 -3 -140 5 0 6 5 3 10 -3 6 -1 10 4 10 13 0 13 -1 2 -57
-5 -24 -5 -43 -1 -43 4 0 11 -21 15 -46 3 -26 15 -56 25 -67 11 -11 22 -40 26
-63 3 -24 10 -44 14 -44 9 0 34 -65 35 -90 0 -8 -4 -18 -10 -22 -7 -6 -6 -10
1 -15 7 -5 14 -18 15 -31 2 -12 8 -21 12 -20 5 2 15 -9 23 -25 13 -25 13 -29
-6 -49 -11 -12 -20 -31 -20 -41 0 -11 -8 -26 -17 -32 -14 -11 -18 -29 -17 -97
0 -74 6 -99 53 -233 29 -82 64 -185 78 -228 18 -55 29 -75 35 -65 6 9 8 7 3
-8 -7 -28 3 -54 20 -48 7 3 15 -2 18 -10 4 -9 11 -16 18 -16 16 0 62 38 76 63
11 21 12 21 19 3 4 -10 2 -26 -4 -35 -23 -31 -33 -66 -27 -91 8 -31 13 -61 14
-77 1 -7 8 -13 16 -13 25 0 5 -27 -21 -29 -59 -3 -59 -3 -19 -38 21 -18 43
-33 50 -33 6 0 29 -17 51 -39 43 -41 45 -40 44 27 0 17 5 32 11 32 6 0 8 8 4
19 -3 10 -1 30 4 43 7 19 5 33 -9 56 -10 17 -35 79 -55 137 -39 113 -41 177
-8 189 19 8 18 9 35 -34 l15 -35 18 103 c10 56 21 102 25 102 5 0 11 11 14 25
10 39 85 63 87 28 0 -11 3 -13 6 -5 9 22 18 13 19 -20 1 -20 10 -38 24 -50 14
-11 17 -18 9 -18 -8 0 -3 -9 11 -20 14 -11 32 -17 41 -14 13 3 20 -9 34 -58
38 -138 101 -233 199 -301 76 -53 121 -73 211 -92 146 -31 296 -9 388 57 22
16 62 28 125 38 51 8 93 20 93 25 0 6 8 18 16 28 9 9 12 17 7 17 -5 0 -4 4 2
8 13 9 54 97 54 117 0 15 38 55 52 55 4 0 8 -5 8 -11 0 -9 36 -102 85 -224 5
-11 7 -24 6 -28 0 -4 13 -15 31 -25 18 -9 60 -42 93 -73 84 -78 140 -114 217
-137 100 -31 200 -37 276 -18 167 44 253 121 346 311 30 63 60 115 66 115 6 0
10 -37 10 -92 1 -85 2 -91 15 -68 l14 25 10 -25 c6 -15 10 -19 12 -10 2 19 2
12 -5 108 -5 66 -3 82 8 82 13 0 40 82 35 106 -5 29 3 84 12 84 10 0 8 -76 -5
-180 -2 -14 -7 -52 -11 -85 -4 -33 -14 -85 -21 -115 -20 -78 -18 -81 20 -24
20 30 58 67 91 89 45 30 62 48 80 89 37 85 39 148 4 176 -12 10 -21 70 -10 70
6 0 8 7 5 15 -4 11 0 15 16 15 19 0 22 4 18 30 -4 30 5 40 17 20 7 -11 15
-213 35 -875 17 -558 18 -591 25 -629 4 -20 12 -36 17 -36 7 0 8 46 4 133 -4
72 -11 245 -16 382 -5 138 -17 436 -26 663 -14 364 -14 415 -1 435 8 12 17 36
21 54 4 18 15 33 25 36 14 3 17 0 14 -14 -10 -35 5 -19 17 19 6 20 15 46 20
57 30 73 42 95 51 90 5 -4 7 -11 4 -16 -4 -5 -1 -9 4 -9 11 0 15 33 13 100
l-2 35 14 -29 c12 -25 14 -26 21 -10 4 11 9 77 10 147 2 71 6 131 9 134 3 3
10 -6 15 -21 6 -14 15 -26 21 -26 14 0 13 23 -2 38 -7 7 -8 12 -3 12 11 0 11
166 0 208 -5 21 -4 24 8 13 13 -10 13 -2 1 61 -8 40 -14 89 -13 108 l1 35 8
-29 c5 -16 6 -34 3 -40 -3 -6 0 -5 7 1 11 11 11 22 -3 66 -9 30 -17 68 -17 86
0 17 -6 42 -14 54 -8 12 -17 38 -21 57 -4 19 -22 65 -41 102 -40 78 -41 88
-13 81 20 -6 20 -6 1 28 -11 19 -25 33 -31 32 -6 -2 -10 5 -9 15 2 9 -16 57
-40 105 -23 49 -43 104 -44 124 -1 23 -10 41 -26 54 -14 10 -21 19 -18 19 4 0
-2 15 -13 33 -11 19 -18 37 -15 40 3 3 -3 12 -15 19 -12 7 -21 19 -21 27 0 26
-23 90 -31 86 -4 -3 -17 9 -29 25 -20 29 -21 32 -6 43 13 9 15 18 8 36 -7 20
-10 21 -15 8 -4 -10 -13 -17 -21 -17 -17 0 -86 67 -86 84 0 6 -25 38 -55 71
-30 33 -55 65 -55 71 0 14 -43 54 -58 54 -7 0 -38 24 -70 53 -57 53 -121 89
-262 147 -88 37 -216 71 -236 63 -18 -7 -84 24 -84 39 0 6 -2 9 -5 6 -3 -3 -1
-17 4 -32 10 -25 -2 -39 -12 -13 -3 6 -6 -7 -6 -30 -1 -48 -21 -71 -21 -24 0
17 -4 31 -9 31 -5 0 -12 18 -16 40 -4 23 -15 46 -27 54 -11 8 -17 19 -14 24 3
5 -4 12 -15 15 -15 4 -27 -1 -40 -16 l-17 -22 -7 28 c-9 35 -27 35 -21 0z
m-594 -64 c0 -6 9 -8 23 -4 21 6 21 5 2 -6 -28 -18 -51 -41 -58 -59 -4 -10 -6
-8 -6 7 -1 12 5 23 12 26 9 3 9 9 -1 26 -11 19 -10 21 8 21 11 0 20 -5 20 -11z
m565 -11 l8 -23 4 23 c7 35 20 26 26 -18 7 -53 -1 -80 -20 -73 -14 5 -14 8 2
19 16 12 15 15 -14 39 -17 15 -31 33 -31 41 0 22 17 16 25 -8z m-385 2 c8 -5
12 -12 9 -15 -8 -8 -39 5 -39 16 0 11 11 11 30 -1z m-290 -49 c0 -11 -4 -23
-10 -26 -6 -4 -10 5 -10 19 0 14 5 26 10 26 6 0 10 -9 10 -19z m257 -3 c-3 -8
-6 -5 -6 6 -1 11 2 17 5 13 3 -3 4 -12 1 -19z m395 -33 c4 -38 -5 -45 -21 -17
-9 14 -10 13 -11 -10 0 -16 -4 -28 -9 -28 -11 0 -21 25 -21 55 0 18 4 22 19
18 16 -4 19 -1 14 19 -6 20 -4 21 9 10 9 -7 18 -28 20 -47z m190 3 c-9 -9 -12
-7 -12 12 0 19 3 21 12 12 9 -9 9 -15 0 -24z m-502 9 c0 -8 7 -28 16 -45 14
-29 14 -35 -2 -72 -19 -42 -38 -51 -48 -24 -10 26 -7 34 20 59 25 24 26 26 10
49 -18 29 -21 46 -6 46 6 0 10 -6 10 -13z m-793 -50 c-12 -28 -27 -36 -27 -15
0 10 32 48 37 43 2 -1 -3 -13 -10 -28z m1458 23 c3 -5 1 -10 -4 -10 -6 0 -11
5 -11 10 0 6 2 10 4 10 3 0 8 -4 11 -10z m-1393 -32 c-7 -7 -12 -8 -12 -2 0
14 12 26 19 19 2 -3 -1 -11 -7 -17z m368 1 c0 -6 -16 -26 -35 -46 -35 -36 -48
-34 -20 3 8 10 15 27 15 36 0 26 40 33 40 7z m240 1 c0 -13 -5 -18 -15 -14 -8
4 -15 10 -15 16 0 5 5 6 10 3 6 -3 10 -1 10 4 0 6 2 11 5 11 3 0 5 -9 5 -20z
m77 -32 c-3 -8 -6 -5 -6 6 -1 11 2 17 5 13 3 -3 4 -12 1 -19z m-787 -12 c0
-11 -19 -15 -25 -6 -3 5 1 10 9 10 9 0 16 -2 16 -4z m1870 -11 c7 -8 8 -15 2
-15 -5 0 -15 7 -22 15 -7 8 -8 15 -2 15 5 0 15 -7 22 -15z m-1770 -24 c0 -5
-7 -11 -15 -15 -9 -3 -15 0 -15 9 0 8 7 15 15 15 8 0 15 -4 15 -9z m300 -18
c0 -9 -40 -71 -40 -62 0 17 23 69 31 69 5 0 9 -3 9 -7z m-550 -43 c0 -5 -5
-10 -11 -10 -5 0 -7 5 -4 10 3 6 8 10 11 10 2 0 4 -4 4 -10z m1280 -42 c0 -5
-4 -8 -10 -8 -5 0 -10 10 -10 23 0 18 2 19 10 7 5 -8 10 -18 10 -22z m-802
-33 c-6 -14 -13 -23 -15 -21 -5 5 15 46 22 46 3 0 -1 -11 -7 -25z m2156 -561
c3 -8 2 -12 -4 -9 -6 3 -10 10 -10 16 0 14 7 11 14 -7z m-3419 -601 c-10 -42
-18 -18 -9 29 6 32 9 37 12 19 2 -12 1 -34 -3 -48z m3623 -18 c-3 -3 -9 2 -12
12 -6 14 -5 15 5 6 7 -7 10 -15 7 -18z m32 -508 c0 -7 -4 -6 -10 3 -8 12 -10
12 -10 1 0 -8 -3 -12 -6 -8 -9 9 6 28 17 22 5 -4 9 -12 9 -18z m-3530 -211 c0
-3 -4 -8 -10 -11 -5 -3 -10 -1 -10 4 0 6 5 11 10 11 6 0 10 -2 10 -4z m1034
-124 c2 -4 24 -9 48 -11 68 -4 56 -8 -42 -16 -50 -4 -94 -5 -97 -2 -3 4 -12
-1 -20 -9 -17 -17 -64 -15 -70 3 -3 8 6 10 26 7 26 -4 30 -2 24 12 -5 14 -2
16 18 10 13 -4 30 -7 37 -6 42 3 52 5 52 12 0 10 17 10 24 0z m156 -28 c0 -2
-11 -4 -25 -4 -14 0 -25 4 -25 9 0 4 11 6 25 3 14 -2 25 -6 25 -8z m-990 -44
c1 11 4 10 16 -5 13 -18 13 -21 -3 -34 -17 -13 -17 -13 1 -7 21 7 36 -8 36
-37 0 -10 7 -25 15 -33 19 -20 20 -96 0 -134 -14 -26 -13 -29 3 -34 19 -6 20
-23 7 -115 -4 -29 -2 -41 3 -32 15 22 20 -2 7 -33 -7 -16 -14 -25 -17 -20 -12
21 -47 145 -62 219 -21 100 -33 287 -17 265 10 -13 11 -13 11 0z m1485 0 c3
-5 1 -10 -4 -10 -6 0 -11 5 -11 10 0 6 2 10 4 10 3 0 8 -4 11 -10z m-670 -30
c-3 -5 -18 -10 -33 -10 -15 0 -43 -4 -61 -10 -19 -5 -30 -6 -25 -1 21 21 131
40 119 21z m83 3 c-10 -2 -28 -2 -40 0 -13 2 -5 4 17 4 22 1 32 -1 23 -4z
m179 -19 c-3 -3 -12 -4 -19 -1 -8 3 -5 6 6 6 11 1 17 -2 13 -5z m103 -40 c14
-8 17 -13 7 -10 -10 3 -28 6 -38 6 -11 0 -17 5 -14 10 8 13 15 12 45 -6z
m-575 -30 c-13 -13 -14 -19 -4 -25 7 -4 16 -6 20 -4 14 9 -4 -51 -19 -62 -9
-7 -13 -13 -9 -13 4 0 3 -9 -3 -20 -9 -16 -6 -22 18 -34 30 -16 112 -19 112
-5 0 4 12 1 28 -7 15 -7 37 -14 50 -14 21 0 41 -24 29 -36 -3 -3 -31 -12 -64
-21 -32 -8 -72 -23 -89 -34 -36 -22 -83 -25 -107 -6 -9 6 -27 27 -40 44 -22
30 -23 38 -15 89 6 41 19 69 49 110 23 30 46 54 51 54 5 0 2 -7 -7 -16z m1703
-10 c38 -13 50 -21 49 -35 -1 -20 -12 -25 -21 -10 -6 9 -51 17 -140 26 -27 3
-51 7 -54 9 -7 8 67 19 83 12 8 -3 15 -1 15 4 0 14 10 13 68 -6z m-231 -20
c-3 -3 -12 -4 -19 -1 -8 3 -5 6 6 6 11 1 17 -2 13 -5z m403 -43 c9 -12 74 -48
100 -56 19 -5 21 -4 10 4 -10 7 -11 11 -2 11 6 0 12 7 12 16 0 14 3 14 15 4
13 -11 13 -15 3 -21 -9 -6 -7 -9 8 -9 23 0 54 -55 54 -95 0 -33 -9 -32 -55 9
-21 19 -42 33 -46 31 -4 -3 -14 6 -22 18 -16 26 -142 92 -156 83 -5 -3 -11 1
-15 9 -4 12 3 14 42 9 26 -3 49 -9 52 -13z m-1620 -30 c15 -28 12 -41 -8 -41
-19 0 -46 36 -37 50 10 16 34 11 45 -9z m1380 -1 c0 -13 -34 -22 -38 -11 -2 6
-10 11 -18 11 -9 0 -13 4 -10 8 6 10 66 3 66 -8z m-147 3 c-7 -2 -21 -2 -30 0
-10 3 -4 5 12 5 17 0 24 -2 18 -5z m295 -32 c136 -48 216 -133 227 -238 3 -27
2 -40 -2 -31 -7 14 -11 14 -26 4 -9 -8 -15 -20 -12 -28 4 -9 -1 -22 -9 -31
-14 -13 -14 -16 0 -21 26 -10 34 -7 44 17 6 15 7 7 3 -28 -8 -66 -36 -141 -75
-200 -34 -51 -120 -125 -145 -125 -9 0 -30 -8 -47 -19 -72 -43 -237 -33 -341
22 -33 18 -62 36 -64 41 -2 5 -25 33 -52 62 -48 54 -61 78 -36 68 7 -2 22 4
32 16 10 11 22 20 28 20 24 0 193 151 203 182 4 15 15 19 52 18 26 -1 84 4
128 10 72 11 84 11 105 -4 69 -48 126 13 70 75 -73 79 -72 77 -18 54 23 -9 38
-11 42 -5 3 6 20 10 38 10 l32 0 -31 31 c-28 27 -34 29 -65 21 -36 -9 -79 8
-79 33 0 18 -34 45 -77 61 -21 7 -31 13 -22 14 9 0 53 -13 97 -29z m-2028 9
c8 -5 11 -10 5 -10 -5 0 -17 5 -25 10 -8 5 -10 10 -5 10 6 0 17 -5 25 -10z
m527 -126 c-3 -3 -12 -4 -19 -1 -8 3 -5 6 6 6 11 1 17 -2 13 -5z m1813 -24 c0
-5 -2 -10 -4 -10 -3 0 -8 5 -11 10 -3 6 -1 10 4 10 6 0 11 -4 11 -10z m-2140
-70 l38 -19 6 32 c7 31 7 31 22 12 8 -11 14 -29 13 -40 -3 -38 1 -45 24 -45
13 0 28 -5 34 -11 15 -15 80 -28 90 -19 4 5 16 -2 26 -16 10 -13 13 -24 7 -24
-5 0 -10 -4 -10 -9 0 -5 9 -7 20 -4 25 7 34 -15 20 -51 -5 -15 -6 -25 -2 -22
4 2 14 1 21 -4 10 -6 8 -10 -8 -15 -13 -4 -20 -12 -18 -19 3 -7 -1 -13 -9 -13
-7 0 -11 4 -8 8 2 4 0 10 -5 13 -5 4 -12 2 -16 -4 -3 -5 -25 -10 -48 -11 -42
-1 -42 -1 -10 -9 18 -4 87 -11 153 -15 101 -6 120 -4 120 8 0 7 21 33 48 57
106 95 209 199 236 239 21 30 35 41 50 39 30 -4 31 -30 1 -105 -49 -123 -99
-188 -178 -229 -23 -12 -41 -26 -40 -32 9 -42 -218 -51 -330 -13 -61 20 -156
80 -165 103 -2 4 -11 8 -20 8 -8 0 -13 3 -9 6 3 4 -5 21 -18 38 -35 46 -73
136 -78 187 -2 24 -2 34 0 21 3 -13 19 -30 43 -42z m1693 57 c7 -17 -3 -32
-26 -40 -13 -5 -17 -3 -13 5 3 7 9 21 12 31 8 20 20 22 27 4z m-2176 -179 c-3
-8 -6 -5 -6 6 -1 11 2 17 5 13 3 -3 4 -12 1 -19z m810 -144 c-3 -3 -12 -4 -19
-1 -8 3 -5 6 6 6 11 1 17 -2 13 -5z"/>
<path d="M6896 10147 c3 -10 9 -15 12 -12 3 3 0 11 -7 18 -10 9 -11 8 -5 -6z"/>
<path d="M5030 9883 c8 -3 22 -15 31 -26 21 -25 44 -14 29 14 -7 13 -21 19
-43 18 -18 0 -25 -3 -17 -6z"/>
<path d="M5340 13060 c-8 -5 -10 -10 -5 -10 6 0 17 5 25 10 8 5 11 10 5 10 -5
0 -17 -5 -25 -10z"/>
<path d="M5920 13036 c0 -2 7 -9 15 -16 13 -11 14 -10 9 4 -5 14 -24 23 -24
12z"/>
<path d="M6378 13023 c6 -2 18 -2 25 0 6 3 1 5 -13 5 -14 0 -19 -2 -12 -5z"/>
<path d="M5220 12999 c0 -5 5 -7 10 -4 6 3 10 8 10 11 0 2 -4 4 -10 4 -5 0
-10 -5 -10 -11z"/>
<path d="M7391 12924 c0 -11 3 -14 6 -6 3 7 2 16 -1 19 -3 4 -6 -2 -5 -13z"/>
<path d="M4658 12868 c-57 -30 -51 -52 7 -30 36 13 42 18 28 24 -15 5 -14 7 5
7 13 1 20 5 17 11 -8 13 -13 12 -57 -12z"/>
<path d="M7250 12846 c0 -8 5 -18 10 -21 6 -3 10 3 10 14 0 12 -4 21 -10 21
-5 0 -10 -6 -10 -14z"/>
<path d="M4565 12810 c-8 -13 5 -13 25 0 13 8 13 10 -2 10 -9 0 -20 -4 -23
-10z"/>
<path d="M7735 12800 c3 -5 8 -10 11 -10 2 0 4 5 4 10 0 6 -5 10 -11 10 -5 0
-7 -4 -4 -10z"/>
<path d="M7263 12740 c0 -30 2 -43 4 -27 2 15 2 39 0 55 -2 15 -4 2 -4 -28z"/>
<path d="M4490 12755 c-19 -14 -28 -25 -19 -25 9 0 26 11 39 25 29 31 25 31
-20 0z"/>
<path d="M7775 12760 c3 -5 11 -10 16 -10 6 0 7 5 4 10 -3 6 -11 10 -16 10 -6
0 -7 -4 -4 -10z"/>
<path d="M7875 12740 c3 -5 8 -10 11 -10 2 0 4 5 4 10 0 6 -5 10 -11 10 -5 0
-7 -4 -4 -10z"/>
<path d="M7910 12696 c0 -2 7 -6 15 -10 8 -3 15 -1 15 4 0 6 -7 10 -15 10 -8
0 -15 -2 -15 -4z"/>
<path d="M7262 12640 c0 -14 2 -19 5 -12 2 6 2 18 0 25 -3 6 -5 1 -5 -13z"/>
<path d="M7313 12405 c0 -38 2 -53 4 -32 2 20 2 52 0 70 -2 17 -4 1 -4 -38z"/>
<path d="M8490 12185 c0 -8 4 -15 8 -15 5 0 9 7 9 15 0 8 -4 15 -9 15 -4 0 -8
-7 -8 -15z"/>
<path d="M3990 11699 c-7 -27 -9 -53 -6 -56 3 -4 6 3 6 15 0 12 3 22 8 22 4 0
8 16 9 35 2 49 -3 44 -17 -16z"/>
<path d="M7570 11721 c0 -5 5 -13 10 -16 6 -3 10 -2 10 4 0 5 -4 13 -10 16 -5
3 -10 2 -10 -4z"/>
<path d="M3962 11560 c0 -14 2 -19 5 -12 2 6 2 18 0 25 -3 6 -5 1 -5 -13z"/>
<path d="M4022 10925 c0 -16 2 -22 5 -12 2 9 2 23 0 30 -3 6 -5 -1 -5 -18z"/>
<path d="M8792 10320 c0 -19 2 -27 5 -17 2 9 2 25 0 35 -3 9 -5 1 -5 -18z"/>
<path d="M8792 10260 c0 -14 2 -19 5 -12 2 6 2 18 0 25 -3 6 -5 1 -5 -13z"/>
<path d="M8803 10150 c0 -25 2 -35 4 -22 2 12 2 32 0 45 -2 12 -4 2 -4 -23z"/>
<path d="M8803 10030 c0 -25 2 -35 4 -22 2 12 2 32 0 45 -2 12 -4 2 -4 -23z"/>
<path d="M4532 9695 c0 -16 2 -22 5 -12 2 9 2 23 0 30 -3 6 -5 -1 -5 -18z"/>
<path d="M4541 9584 c0 -11 3 -14 6 -6 3 7 2 16 -1 19 -3 4 -6 -2 -5 -13z"/>
<path d="M4511 9554 c0 -11 3 -14 6 -6 3 7 2 16 -1 19 -3 4 -6 -2 -5 -13z"/>
<path d="M4540 9469 c0 -43 -3 -58 -12 -53 -16 10 -5 -83 18 -161 21 -70 31
-48 19 44 -6 43 -9 51 -16 36 -6 -17 -8 -17 -8 -2 -1 27 0 32 11 29 5 -1 6 3
2 10 -5 7 -7 46 -5 86 1 39 0 72 -3 72 -3 0 -6 -27 -6 -61z"/>
<path d="M4498 9126 c-53 -32 -82 -61 -124 -125 -36 -57 -114 -191 -142 -246
-8 -16 -22 -38 -31 -49 -9 -10 -43 -64 -77 -120 -45 -76 -69 -105 -95 -118
-273 -138 -753 -367 -816 -390 -46 -16 -120 -52 -165 -80 -46 -27 -108 -61
-138 -75 -54 -26 -341 -187 -450 -253 -118 -71 -466 -435 -552 -577 -56 -91
-129 -218 -190 -328 -28 -49 -56 -93 -62 -97 -6 -4 -40 -8 -75 -8 l-64 0 6
-34 c5 -33 20 -65 104 -227 29 -56 43 -99 52 -160 18 -121 58 -193 130 -231
65 -34 126 -37 223 -10 131 37 181 84 312 293 36 58 76 117 90 130 38 39 121
171 146 235 63 159 130 282 171 317 104 90 229 87 283 -5 33 -57 36 -151 7
-236 -33 -97 -143 -317 -117 -234 3 9 1 24 -4 32 -9 13 -10 13 -10 0 -1 -8 -6
-4 -11 10 -8 19 -6 27 5 36 9 6 16 16 16 22 0 7 16 18 35 26 19 8 35 22 35 30
0 9 5 16 10 16 6 0 10 9 10 19 0 11 5 21 12 23 15 5 -55 78 -76 78 -12 0 -14
5 -6 24 14 38 -10 52 -60 37 -22 -6 -40 -16 -40 -21 0 -6 -7 -10 -15 -10 -8 0
-15 5 -15 10 0 13 -37 13 -45 0 -4 -6 -11 -8 -16 -5 -5 4 -9 1 -9 -4 0 -6 -9
-11 -20 -11 -13 0 -20 -7 -20 -18 0 -10 -11 -40 -24 -66 -13 -25 -26 -64 -30
-86 -7 -43 -33 -83 -49 -73 -5 3 -8 -10 -6 -28 4 -46 -11 -109 -25 -109 -12 0
-42 -40 -38 -52 1 -5 -3 -8 -9 -8 -6 0 -9 -7 -5 -15 3 -9 0 -15 -9 -15 -8 0
-15 -7 -15 -15 0 -8 5 -15 10 -15 6 0 10 -5 10 -11 0 -5 -5 -7 -10 -4 -5 3
-10 1 -10 -6 0 -10 -3 -10 -11 -2 -14 14 -35 7 -61 -19 -10 -10 -23 -16 -28
-13 -6 4 -10 -10 -10 -32 0 -37 -47 -151 -63 -152 -5 -1 -44 -38 -88 -83 -44
-45 -90 -87 -102 -93 -14 -7 -23 -21 -25 -42 -4 -39 -24 -47 -90 -38 -92 12
-125 13 -150 4 -16 -6 -29 -6 -38 2 -7 6 -23 8 -36 5 -13 -3 -18 -3 -12 -1 16
8 4 68 -19 90 -13 12 -35 20 -58 20 -30 0 -40 5 -48 22 -6 13 -17 23 -26 23
-8 0 -15 7 -15 15 0 8 -3 14 -7 13 -5 0 -16 2 -25 6 -16 7 -16 11 -3 36 19 36
19 40 0 40 -13 0 -13 3 -3 20 7 11 18 20 25 20 7 0 13 4 13 9 0 6 -12 9 -27 8
-21 -2 -28 3 -33 23 -4 14 -13 24 -21 23 -8 -2 -22 9 -31 25 -9 15 -28 41 -42
57 -14 17 -26 36 -26 43 0 7 -9 20 -19 29 -11 9 -17 23 -13 31 3 10 1 13 -6 8
-6 -3 -16 3 -22 14 -13 25 -1 51 38 78 40 29 59 67 42 87 -7 8 -22 15 -33 15
-11 0 -18 3 -14 6 7 8 -22 39 -44 47 -12 4 -16 17 -14 56 2 44 0 51 -16 51
-11 0 -19 5 -19 11 0 6 -7 8 -15 5 -17 -6 -75 45 -75 66 0 6 -3 9 -6 6 -3 -4
-21 10 -39 29 -18 19 -38 32 -43 29 -6 -3 -12 -2 -14 3 -1 5 -12 11 -23 13
-11 1 -23 8 -27 13 -5 6 -11 5 -17 -4 -5 -8 -16 -11 -29 -7 -41 14 -40 4 34
-229 7 -22 9 -44 4 -49 -10 -10 -97 -19 -420 -41 -129 -9 -245 -18 -258 -21
-25 -5 -26 19 4 -239 11 -99 26 -169 50 -240 18 -55 38 -119 44 -142 12 -47 9
-46 97 -34 40 6 74 18 95 34 69 52 154 64 264 37 55 -13 100 -18 125 -14 22 4
86 1 142 -6 l102 -12 33 -43 c18 -23 30 -49 27 -57 -3 -8 3 -25 15 -38 25 -29
25 -34 -2 -60 -19 -17 -23 -18 -31 -5 -4 8 -5 20 -2 25 8 12 -1 13 -23 1 -18
-9 -95 12 -141 38 -45 25 -42 -4 4 -37 25 -17 45 -35 45 -40 0 -5 -15 -25 -32
-46 l-33 -37 -24 22 -24 23 6 -43 c6 -46 135 -249 212 -332 23 -25 48 -55 54
-68 12 -21 14 -21 34 -7 65 47 153 59 238 32 24 -7 64 -19 89 -26 25 -7 52
-15 60 -18 8 -2 26 -6 39 -8 13 -2 27 -7 30 -12 3 -5 13 -11 22 -14 18 -7 46
33 35 50 -8 13 68 101 128 150 9 7 34 19 56 27 35 12 40 12 40 -1 0 -11 6 -13
19 -9 12 3 23 0 28 -8 7 -12 11 -11 28 5 16 16 17 18 2 13 -9 -4 -17 -3 -17 3
0 6 10 14 22 18 13 4 35 16 49 26 15 11 49 24 75 29 27 5 51 14 52 19 2 6 8
10 13 10 14 0 59 42 59 56 0 6 -7 15 -15 18 -12 4 -14 10 -5 25 13 26 13 34
-2 28 -7 -2 -21 5 -30 16 -22 25 -24 44 -2 23 18 -19 45 -21 41 -3 -1 6 6 11
16 11 11 -1 17 5 17 20 0 23 20 61 20 38 0 -7 -5 -45 -12 -84 -13 -82 -4 -132
46 -243 28 -65 31 -78 30 -175 0 -58 -6 -116 -12 -130 l-11 -25 1 30 c1 17 -2
37 -7 45 -5 8 -10 24 -10 35 0 33 -13 43 -64 50 -36 5 -57 2 -80 -9 -17 -9
-31 -14 -31 -11 0 3 -19 -4 -42 -16 -52 -27 -146 -58 -174 -59 -23 0 -50 -25
-37 -33 4 -3 31 -1 58 4 28 4 69 8 93 8 30 1 42 5 42 16 0 19 46 49 65 41 18
-7 20 -33 3 -39 -25 -8 0 -17 51 -18 33 -1 58 -7 68 -17 14 -14 13 -18 -7 -34
-12 -10 -17 -18 -11 -18 6 0 11 -7 11 -15 0 -8 5 -14 12 -12 8 1 13 -13 14
-40 1 -26 -3 -41 -10 -40 -7 1 -10 -16 -8 -52 3 -44 0 -57 -19 -77 -12 -13
-28 -24 -36 -24 -12 0 -17 -13 -14 -32 0 -5 -2 -8 -7 -9 -4 0 -15 -2 -25 -4
-9 -2 -15 0 -12 5 3 4 -2 10 -10 14 -8 3 -17 1 -20 -4 -10 -16 -28 -11 -22 5
4 8 1 17 -5 21 -7 4 -8 3 -4 -4 4 -7 1 -12 -8 -12 -9 0 -16 4 -16 10 0 14 -67
43 -81 34 -9 -5 -10 -2 -6 10 5 13 2 17 -11 15 -9 -1 -32 -1 -51 0 -27 1 -31
4 -22 15 9 11 8 15 -5 20 -10 4 -14 12 -10 22 5 13 2 15 -14 11 -13 -3 -24 1
-30 13 -9 16 -12 37 -19 127 -1 7 -8 10 -16 7 -9 -4 -15 0 -15 10 0 9 -4 16
-10 16 -11 0 -12 -2 -16 -40 -2 -14 -8 -41 -13 -60 l-10 -35 1 46 c2 51 -6 69
-29 69 -24 0 -65 -50 -60 -71 6 -24 -9 -34 -28 -19 -8 6 -20 8 -26 4 -9 -5
-10 -2 -6 10 11 27 -12 112 -38 140 -36 39 -57 25 -50 -33 3 -33 -1 -62 -18
-105 -12 -32 -26 -57 -30 -57 -4 1 -15 -5 -23 -14 -17 -16 -49 -21 -39 -6 3 5
-8 9 -23 9 -35 -1 -52 8 -52 28 0 18 -14 18 -30 -1 -18 -22 -30 -19 -30 8 0
16 -3 18 -9 9 -7 -11 -11 -11 -24 2 -16 17 -32 22 -23 8 3 -5 -10 -4 -29 2
-19 6 -35 17 -35 23 0 7 -7 13 -15 13 -9 0 -15 9 -15 23 1 28 25 131 36 149 4
7 -2 4 -14 -6 -20 -17 -26 -18 -50 -6 -57 27 -88 39 -116 45 -23 5 -27 8 -15
16 12 7 12 9 -1 9 -9 0 -27 13 -42 30 -23 27 -34 30 -98 35 -39 2 -75 7 -80
10 -6 4 -10 2 -10 -3 0 -13 -55 -32 -93 -32 -20 0 -38 9 -54 28 l-25 27 7 -35
c3 -19 7 -45 8 -57 1 -11 5 -19 9 -16 21 12 4 -27 -22 -52 -17 -16 -30 -39
-30 -52 0 -52 -46 -104 -65 -74 -3 6 -14 9 -25 8 -23 -1 -25 9 32 -163 l41
-122 77 -68 c47 -42 115 -89 171 -118 52 -27 122 -67 156 -90 61 -39 63 -42
63 -82 0 -38 -3 -43 -33 -54 -61 -24 -222 -92 -225 -95 -7 -7 127 -274 222
-445 626 -1117 1485 -1992 2566 -2615 217 -125 733 -377 745 -363 11 13 55
174 55 202 0 26 4 34 14 30 9 -4 16 4 21 24 3 16 17 40 31 52 13 13 24 29 24
35 0 19 36 46 52 40 10 -4 19 10 32 51 12 40 31 70 63 101 24 25 39 43 33 41
-7 -2 -26 9 -42 24 -17 15 -37 28 -45 28 -8 0 -33 14 -54 31 -38 30 -40 33
-33 76 9 60 47 204 60 226 9 15 15 16 38 7 23 -8 32 -7 51 8 l24 19 -20 32
c-10 17 -26 34 -34 37 -25 10 -37 66 -25 120 18 83 19 85 48 82 36 -4 41 31
12 72 l-21 29 79 398 c127 640 164 845 187 1053 9 74 29 207 45 295 16 88 34
202 40 254 6 51 22 166 36 255 13 88 33 229 44 311 10 83 26 193 34 245 8 52
24 174 36 270 11 96 30 236 41 310 11 74 20 173 20 220 1 47 8 180 16 297 l15
211 -33 32 c-19 17 -77 53 -129 79 -165 84 -252 135 -258 151 -3 8 -8 17 -12
20 -17 13 -52 84 -83 168 -33 86 -34 92 -14 78 27 -20 137 -78 137 -73 0 3
-36 26 -80 53 -90 54 -79 38 -220 319 -70 142 -204 469 -198 487 2 5 28 -20
57 -57 72 -88 380 -383 511 -488 303 -243 557 -346 745 -302 137 31 153 58
269 455 21 69 66 197 100 285 35 88 71 184 81 212 18 58 42 86 31 37 -3 -16
-8 -49 -11 -74 -3 -24 -13 -65 -21 -90 -24 -66 -31 -99 -59 -255 -14 -77 -27
-150 -29 -162 -3 -13 -1 -23 4 -23 9 0 51 78 133 247 29 61 34 44 7 -24 -23
-59 -110 -234 -121 -243 -6 -6 -59 -141 -59 -153 0 -4 10 -7 23 -7 33 0 45
-17 40 -57 -3 -22 0 -38 7 -43 7 -4 14 -18 15 -31 1 -13 3 -29 4 -34 2 -21 40
-14 44 8 2 12 2 4 0 -19 -3 -29 5 -61 28 -115 104 -249 130 -319 134 -359 4
-48 44 -264 77 -420 11 -52 35 -142 53 -200 48 -151 88 -479 57 -472 -8 1 -11
-2 -8 -7 3 -5 26 -12 50 -15 36 -6 45 -11 48 -29 3 -21 9 -22 100 -25 95 -3
96 -3 103 -30 4 -15 9 -96 11 -181 2 -87 8 -167 15 -183 14 -35 8 -206 -9
-217 -8 -5 -9 -16 -3 -36 5 -17 10 -23 10 -15 3 35 19 -18 31 -103 7 -48 16
-90 21 -93 5 -3 9 -15 9 -26 0 -11 9 -51 19 -87 18 -63 26 -104 38 -213 5 -44
3 -49 -21 -58 -22 -8 -25 -15 -24 -53 1 -46 -18 -87 -41 -87 -8 0 -11 -7 -8
-20 3 -12 0 -20 -8 -20 -14 0 -27 -25 -18 -34 4 -3 14 -6 24 -6 24 0 42 -36
36 -70 -3 -15 -2 -31 3 -36 4 -5 20 -37 34 -72 15 -34 34 -71 44 -82 9 -10 38
-47 65 -82 26 -35 65 -87 87 -115 31 -40 41 -63 43 -95 2 -38 -1 -43 -20 -46
-14 -2 -23 -10 -23 -22 0 -10 -15 -31 -32 -47 -43 -37 -108 -126 -108 -147 0
-9 8 -20 18 -23 9 -4 26 -15 36 -25 24 -22 35 -9 36 37 0 17 6 40 14 53 l12
23 37 -40 c20 -22 43 -54 52 -71 19 -37 73 -90 92 -90 7 0 41 -9 75 -21 69
-23 133 -68 144 -102 4 -11 17 -29 30 -39 l23 -19 -21 -34 c-11 -20 -36 -49
-56 -65 -20 -16 -34 -31 -31 -33 11 -10 989 349 989 363 0 4 -30 12 -67 19
-48 9 -105 32 -195 79 -150 79 -140 53 -104 272 14 80 30 191 37 248 12 97 26
120 30 47 l2 -30 4 28 c4 27 6 28 81 27 4 0 7 -7 7 -14 0 -26 13 -28 21 -4 7
23 34 49 45 43 3 -2 4 -25 3 -50 -3 -54 11 -60 19 -7 6 34 9 37 39 38 18 1 34
6 36 12 2 6 10 8 17 6 8 -3 20 -2 27 2 21 14 39 13 44 -1 8 -19 162 -12 204
10 42 21 90 30 90 16 0 -6 -4 -11 -10 -11 -5 0 -10 -7 -10 -15 0 -8 3 -15 8
-15 12 1 42 27 42 37 0 5 12 15 27 22 21 10 28 9 34 -1 5 -7 7 -19 4 -25 -2
-7 0 -13 5 -13 14 0 32 39 26 56 -3 8 -1 14 4 14 6 0 10 -8 10 -17 0 -15 4
-13 21 7 l21 25 -7 -127 c-3 -71 -12 -194 -20 -275 -8 -82 -15 -165 -15 -187
0 -37 1 -38 27 -31 16 4 33 11 39 16 6 5 16 78 23 167 7 86 17 195 23 242 6
47 10 96 9 110 -1 20 1 22 9 10 8 -11 9 -8 4 13 -4 18 -2 27 6 27 7 0 10 7 6
18 -4 11 1 8 15 -8 l22 -25 -8 25 c-7 22 -6 23 9 11 11 -9 16 -10 16 -2 0 7 5
9 12 5 8 -5 6 -11 -7 -20 -16 -12 -16 -17 -5 -44 9 -21 16 -28 23 -21 7 7 6
15 -3 26 -9 11 -10 18 -1 29 6 7 9 21 5 30 -5 12 0 16 23 16 33 0 57 -18 44
-34 -5 -6 -5 -20 0 -31 8 -21 8 -20 13 55 1 8 9 16 19 18 13 3 17 -3 17 -23 0
-20 7 -28 30 -36 17 -6 30 -15 30 -20 0 -5 5 -9 10 -9 6 0 9 3 9 8 -5 28 3 52
17 52 9 0 14 6 11 13 -2 6 -12 11 -22 9 -11 -2 -15 2 -13 10 5 14 7 14 100 20
56 3 56 3 39 23 -12 14 -16 29 -12 50 5 26 10 30 34 27 20 -3 27 1 28 15 2 22
11 -28 38 -207 40 -266 44 -302 29 -311 -10 -7 -10 -9 2 -9 15 0 267 93 276
102 2 3 -3 38 -10 79 -8 41 -20 117 -26 169 -7 52 -17 103 -22 114 -10 18 -9
18 22 0 44 -27 52 -39 56 -87 2 -23 9 -86 15 -140 5 -53 7 -102 4 -107 -7 -11
15 -13 37 -5 11 4 12 18 7 63 -4 31 -11 91 -15 132 l-7 74 28 -18 c16 -10 43
-27 62 -38 27 -17 31 -23 23 -39 -10 -17 -8 -18 14 -9 20 7 25 5 30 -13 4 -15
8 -18 14 -10 5 8 19 4 50 -16 l42 -29 -58 -23 c-39 -16 -51 -25 -37 -27 31 -6
760 -368 845 -420 41 -25 90 -59 108 -74 18 -15 37 -28 42 -28 5 0 47 -37 93
-83 68 -66 88 -93 106 -140 11 -32 21 -62 21 -67 0 -6 5 -10 10 -10 6 0 10 -6
10 -14 0 -8 6 -21 13 -28 13 -13 28 -42 32 -64 8 -34 46 -103 70 -127 29 -29
125 -94 207 -141 l47 -27 133 136 c73 75 133 144 133 152 0 9 -9 17 -20 19
-11 2 -21 8 -23 13 -2 6 -9 11 -16 11 -15 0 -40 29 -62 71 -13 26 -14 37 -5
51 6 10 9 23 6 28 -4 6 -1 10 4 10 6 0 11 -7 11 -15 0 -8 6 -12 14 -9 7 3 20
-2 29 -10 8 -8 17 -12 21 -9 3 4 6 -5 6 -20 0 -32 9 -57 22 -57 5 0 19 -12 31
-26 l23 -26 59 64 c75 80 196 224 219 260 l18 27 -36 15 c-20 8 -36 19 -36 24
0 5 -12 14 -26 20 -14 7 -23 8 -19 2 3 -5 2 -10 -3 -10 -18 0 -102 102 -102
124 0 12 -4 26 -9 31 -4 6 -11 22 -14 36 -5 19 -3 26 8 26 8 0 15 -9 15 -20 0
-16 3 -17 15 -7 11 9 12 16 5 25 -7 9 -6 16 5 25 12 10 13 16 4 26 -6 8 -17
14 -24 14 -7 0 -18 7 -25 15 -11 13 -8 20 16 42 16 15 28 33 26 40 -2 7 4 13
13 13 8 0 15 5 15 10 0 6 -6 10 -12 10 -7 0 -19 4 -26 8 -18 12 2 62 24 62 10
0 15 3 12 6 -11 10 -117 -8 -115 -20 1 -6 -13 -11 -33 -12 -73 -2 -86 -4 -72
-13 11 -7 10 -10 -3 -15 -9 -3 -24 -6 -33 -5 -14 0 -13 2 3 9 16 6 14 8 -13 7
-22 0 -29 -3 -20 -8 9 -6 4 -9 -14 -9 -14 0 -29 6 -31 13 -4 8 -6 7 -6 -4 -1
-12 -12 -15 -52 -14 -27 1 -52 -2 -55 -6 -6 -10 -73 -9 -80 2 -3 5 -14 9 -25
9 -10 0 -19 5 -19 10 0 6 -10 10 -23 10 -12 0 -28 9 -35 20 -8 14 -23 20 -46
20 -19 0 -41 7 -50 15 -8 8 -31 15 -51 15 l-37 0 22 37 c21 35 18 48 -12 54
-5 1 -12 3 -18 4 -5 1 -17 3 -25 4 -8 0 -15 7 -15 14 0 6 -15 19 -33 28 -17 9
-32 22 -32 30 0 8 -8 20 -17 27 -10 7 -18 20 -18 28 0 8 -4 14 -10 14 -5 0
-10 7 -10 16 0 28 -51 59 -108 65 -30 4 -57 11 -61 16 -3 6 -16 15 -28 22 -17
8 -23 21 -23 45 0 22 -8 40 -25 56 -14 13 -23 30 -21 37 3 7 1 15 -4 18 -5 3
-8 11 -6 18 1 7 1 9 -1 4 -3 -4 -10 -4 -16 0 -7 4 -19 8 -27 10 -8 1 -16 7
-18 12 -2 6 -14 11 -26 11 -13 0 -31 12 -44 30 -13 17 -31 30 -41 30 -16 0
-32 24 -35 55 -1 6 -13 16 -28 23 -15 8 -25 19 -22 26 2 6 -7 22 -21 34 -14
12 -25 17 -25 12 0 -18 -22 -10 -27 9 -6 22 -33 37 -33 19 0 -9 -3 -9 -12 0
-9 9 -7 16 7 32 18 19 18 20 -4 20 -12 0 -20 -4 -17 -8 11 -19 -66 2 -79 21
-14 20 -13 22 2 29 16 6 16 7 2 7 -9 1 -19 8 -23 16 -3 8 -17 20 -31 25 -14 5
-29 18 -33 28 -4 9 -15 18 -24 18 -49 3 -49 3 -39 23 9 15 7 18 -12 16 -12 -1
-24 -4 -27 -5 -17 -8 -37 -3 -48 13 -7 9 -17 15 -22 12 -12 -7 -45 55 -41 78
2 12 -8 21 -29 28 -18 7 -29 17 -26 24 2 7 0 17 -6 23 -6 6 -2 15 13 26 19 13
20 16 6 16 -36 0 7 41 82 78 54 27 90 37 136 40 76 5 92 -3 222 -107 101 -81
174 -154 399 -396 71 -77 150 -160 174 -185 l44 -45 8 25 c7 23 7 23 4 -4 -3
-23 5 -36 38 -68 22 -21 53 -47 69 -56 15 -9 27 -20 27 -24 0 -4 7 -4 17 -1
12 5 14 3 8 -7 -5 -8 -2 -18 9 -25 18 -14 46 -7 171 45 39 15 131 49 205 75
124 43 145 47 255 52 106 4 144 0 330 -32 116 -19 318 -53 450 -75 132 -22
249 -42 261 -45 18 -4 33 20 127 213 58 119 131 281 162 360 l57 143 -32 257
c-17 141 -42 347 -56 457 -14 110 -29 238 -35 285 -5 47 -14 112 -19 145 -5
33 -12 86 -15 118 -3 32 -9 80 -13 105 -11 66 -9 155 3 158 44 14 66 -75 110
-439 13 -117 29 -250 35 -297 6 -47 17 -161 26 -255 44 -466 38 -425 53 -381
8 23 11 56 7 83 -5 41 -4 44 16 41 20 -3 26 10 71 152 63 202 128 458 171 678
40 201 76 426 76 471 0 28 -3 31 -32 31 -18 0 -231 11 -473 25 -404 22 -833
45 -1208 63 -82 4 -150 5 -152 2 -2 -3 10 -33 25 -67 l29 -62 -29 3 c-49 6
-78 32 -93 84 -9 28 -21 48 -31 50 -14 3 -16 -7 -16 -67 0 -39 3 -72 8 -73 4
0 36 -2 72 -3 87 -3 472 -24 588 -32 51 -3 100 -11 108 -18 11 -7 17 -26 17
-51 0 -69 -11 -78 -125 -106 -57 -14 -232 -58 -390 -98 l-288 -73 -2 -36 -1
-36 -4 33 c-2 17 -9 32 -14 32 -6 0 -67 -14 -137 -31 -259 -62 -913 -211
-1095 -250 -149 -31 -209 -39 -291 -39 l-104 0 -20 33 c-10 17 -82 104 -158
193 -232 269 -367 435 -360 442 4 4 60 16 124 27 l117 21 -1 29 c-1 17 -5 77
-9 135 -11 153 18 107 46 -73 22 -141 21 -72 -2 112 -18 149 -25 181 -38 181
-9 0 -135 -14 -280 -32 l-264 -32 -41 45 c-117 128 -207 251 -236 324 -39 98
-89 198 -157 312 l-55 92 26 53 c39 78 37 81 -41 77 l-66 -4 -41 57 c-52 73
-213 224 -336 314 -92 68 -140 114 -408 388 -102 104 -132 128 -170 140 -105
33 -256 88 -291 106 l-38 19 -6 103 c-3 59 -13 119 -22 142 -9 21 -17 37 -19
35 -2 -2 1 -38 5 -79 8 -80 11 -190 5 -190 -2 0 -23 9 -47 19 -24 10 -83 24
-132 30 -48 7 -108 21 -134 32 -98 42 -374 130 -391 125 -9 -3 -33 -29 -51
-58 -108 -166 -325 -419 -446 -521 -94 -79 -167 -117 -310 -163 -111 -36 -129
-39 -235 -39 -115 0 -115 0 -200 42 -240 118 -538 447 -756 834 -38 67 -88
143 -111 169 -36 41 -42 52 -37 78 6 30 -11 103 -24 101 -4 0 -24 -11 -44 -23z
m1766 -1617 c-10 -23 -19 -38 -22 -31 -4 12 28 85 35 79 2 -3 -4 -24 -13 -48z
m-3353 -1072 c-10 -9 -11 -8 -5 6 3 10 9 15 12 12 3 -3 0 -11 -7 -18z m-1750
-100 c11 -43 17 -83 13 -88 -3 -6 1 -30 11 -55 9 -24 15 -50 12 -57 -2 -6 -11
11 -20 38 -15 44 -24 99 -42 240 -5 43 -4 41 26 -78z m1732 71 c-4 -7 -8 -15
-9 -18 0 -3 -6 -25 -13 -49 -12 -43 -13 -44 -31 -25 -20 19 -18 64 2 64 5 0 6
-4 3 -10 -3 -5 -1 -10 4 -10 14 0 14 13 -1 28 -9 9 -8 12 3 16 8 2 21 7 29 9
8 3 16 6 18 6 2 1 0 -5 -5 -11z m10166 -705 c12 -126 25 -240 28 -254 5 -26 5
-26 -79 -33 -45 -4 -107 -14 -136 -23 -31 -9 -56 -12 -61 -7 -5 5 -2 53 7 107
13 79 19 97 33 97 19 0 22 11 54 195 27 154 19 140 78 143 l53 2 23 -227z
m-10522 85 c-3 -8 -6 -5 -6 6 -1 11 2 17 5 13 3 -3 4 -12 1 -19z m-350 -20
c-3 -8 -6 -5 -6 6 -1 11 2 17 5 13 3 -3 4 -12 1 -19z m88 -31 c22 -2 31 -10
33 -25 2 -16 10 -22 28 -22 13 0 24 -4 24 -10 0 -5 -7 -10 -15 -10 -8 0 -15
-7 -15 -15 0 -8 -7 -15 -16 -15 -9 0 -12 -5 -8 -12 5 -8 2 -9 -10 -5 -10 4
-22 7 -27 7 -6 0 -8 9 -4 19 8 25 -15 39 -27 17 -13 -23 -54 -21 -61 4 -3 11
-1 20 4 20 5 0 9 -5 9 -12 0 -6 3 -9 6 -6 3 4 1 15 -4 25 -9 15 -6 18 17 17
15 0 33 -4 39 -8 7 -4 12 -2 12 4 0 6 -14 13 -31 17 -30 6 -31 7 -14 20 11 7
21 9 25 4 3 -5 19 -11 35 -14z m-85 3 c0 -5 -5 -10 -11 -10 -5 0 -7 5 -4 10 3
6 8 10 11 10 2 0 4 -4 4 -10z m10470 -115 c0 -10 10 -15 31 -15 31 0 31 0 24
-42 -10 -63 -15 -79 -26 -73 -5 4 -8 -6 -8 -22 1 -21 3 -23 7 -8 3 15 9 6 22
-33 24 -73 9 -136 -20 -82 -9 16 -8 19 6 13 14 -5 15 -1 9 28 -9 43 -13 49
-30 49 -21 0 -35 32 -33 75 1 26 -4 40 -15 47 -10 5 -17 14 -17 19 0 6 4 8 9
4 5 -3 12 -1 16 5 3 5 2 10 -4 10 -6 0 -8 6 -5 14 3 8 -2 16 -13 19 -10 3 -4
5 15 6 22 1 32 -4 32 -14z m-10234 -22 c-3 9 -1 17 4 17 6 0 10 -2 10 -4 0 -2
3 -11 6 -19 3 -9 -3 -16 -15 -20 -12 -3 -21 0 -22 6 0 8 -2 8 -6 0 -5 -15 -29
-17 -37 -5 -3 5 2 18 11 29 l17 21 19 -22 c15 -17 18 -17 13 -3z m9383 -93
c14 -91 38 -280 56 -445 9 -77 20 -178 25 -225 6 -47 21 -182 35 -300 14 -118
31 -261 38 -317 11 -83 11 -103 1 -103 -7 0 -15 4 -18 8 -6 10 -36 184 -46
267 -4 33 -15 121 -24 195 -19 160 -62 587 -76 750 -12 151 -15 369 -4 265 2
-16 8 -59 13 -95z m-5033 -58 c-3 -3 -10 6 -15 19 -5 13 -19 46 -30 72 -34 78
-23 69 15 -12 19 -40 32 -76 30 -79z m-66 -3 c0 -5 -4 -9 -10 -9 -5 0 -10 7
-10 16 0 8 5 12 10 9 6 -3 10 -10 10 -16z m13 -41 c-13 -6 -23 -18 -23 -27 0
-11 -3 -12 -11 -4 -19 19 -2 43 28 42 27 0 28 -1 6 -11z m-5396 -292 c-4 -9
-18 -16 -32 -16 -14 0 -28 -1 -32 -2 -5 -2 -9 7 -11 19 -3 18 2 22 30 25 39 4
53 -4 45 -26z m10598 -6 c4 -6 -6 -10 -22 -10 -22 0 -25 2 -13 10 19 12 27 12
35 0z m1070 -147 c142 -17 155 -23 155 -80 0 -30 -3 -33 -27 -32 -74 2 -287
35 -285 44 2 6 16 9 32 7 21 -2 32 3 40 18 8 15 8 21 -2 24 -40 11 -117 26
-140 28 -16 1 -28 6 -28 11 0 9 53 5 255 -20z m-11013 -15 c-7 -7 -12 -8 -12
-2 0 14 12 26 19 19 2 -3 -1 -11 -7 -17z m10755 -30 c-3 -7 -5 -2 -5 12 0 14
2 19 5 13 2 -7 2 -19 0 -25z m-11127 -48 c13 -9 13 -11 0 -20 -8 -5 -20 -10
-27 -10 -19 0 -27 21 -12 31 18 11 21 11 39 -1z m6557 -252 c-3 -7 -5 -2 -5
12 0 14 2 19 5 13 2 -7 2 -19 0 -25z m0 -65 c-3 -10 -5 -2 -5 17 0 19 2 27 5
18 2 -10 2 -26 0 -35z m2134 -86 c-10 -9 -11 -8 -5 6 3 10 9 15 12 12 3 -3 0
-11 -7 -18z m149 -92 c0 -8 -2 -15 -4 -15 -2 0 -6 7 -10 15 -3 8 -1 15 4 15 6
0 10 -7 10 -15z m1003 -41 c44 -6 48 -8 43 -29 -3 -13 -11 -56 -16 -97 -12
-87 -27 -143 -30 -113 -1 11 -1 25 0 30 6 24 4 85 -2 85 -5 0 -8 5 -8 10 0 6
5 9 11 8 6 -2 14 3 16 10 3 6 0 12 -6 12 -6 0 -11 5 -11 11 0 5 5 7 10 4 6 -3
10 1 10 9 0 26 -20 18 -31 -11 -6 -16 -12 -46 -13 -68 -1 -38 -3 -40 -31 -39
-16 1 -33 -3 -37 -10 -5 -7 -8 -5 -8 5 0 9 -8 23 -17 30 -10 7 -15 9 -11 5 4
-5 3 -15 -3 -23 -8 -9 -8 -13 -1 -13 6 0 9 -7 6 -15 -11 -27 -22 -16 -29 28
-4 23 -15 62 -25 87 -22 56 -13 80 30 80 27 0 35 -8 31 -32 0 -4 12 -6 27 -6
38 1 40 33 4 47 -30 12 -29 12 91 -5z m206 -117 c6 -51 14 -109 17 -131 l7
-38 -27 27 c-20 20 -24 30 -16 35 9 5 9 9 1 14 -14 9 -31 -1 -31 -19 0 -8 -7
-11 -20 -8 -13 4 -20 0 -20 -10 0 -8 9 -17 20 -20 26 -7 37 -36 19 -48 -16
-10 -36 -12 -26 -3 3 3 1 12 -6 19 -14 14 -37 -3 -37 -29 0 -8 -5 -18 -12 -22
-8 -5 -9 -2 -5 10 4 10 7 29 7 42 0 16 4 23 11 18 8 -4 9 0 4 15 -3 11 1 71
11 134 l17 112 37 -3 37 -4 12 -91z m381 18 c10 -12 15 -13 20 -4 9 14 64 4
79 -15 8 -10 1 -11 -32 -6 -41 6 -87 -5 -87 -22 0 -4 -4 -8 -10 -8 -11 0 -13
30 -4 54 8 20 18 20 34 1z m-846 -50 l6 -30 -14 25 c-8 14 -12 28 -9 33 7 11
9 7 17 -28z m1006 25 c8 -5 11 -12 8 -16 -10 -9 -38 3 -38 16 0 12 10 13 30 0z
m-121 -55 c6 3 8 12 4 20 -3 8 -1 15 5 15 14 0 22 -24 15 -48 -4 -16 -13 -20
-49 -19 -36 0 -44 4 -44 18 0 13 5 16 16 12 10 -4 17 2 21 17 l6 24 9 -23 c4
-12 12 -20 17 -16z m191 5 c0 -5 -5 -10 -11 -10 -5 0 -7 5 -4 10 3 6 8 10 11
10 2 0 4 -4 4 -10z m180 0 c0 -5 -2 -10 -4 -10 -3 0 -8 5 -11 10 -3 6 -1 10 4
10 6 0 11 -4 11 -10z m157 -22 c-3 -8 -6 -5 -6 6 -1 11 2 17 5 13 3 -3 4 -12
1 -19z m-442 -8 c3 -5 1 -10 -4 -10 -6 0 -11 5 -11 10 0 6 2 10 4 10 3 0 8 -4
11 -10z m469 -6 c3 -8 2 -12 -4 -9 -6 3 -10 10 -10 16 0 14 7 11 14 -7z
m-1315 -61 c-1 -37 -1 -37 -8 -8 -7 28 -5 45 5 45 2 0 3 -17 3 -37z m-2669 24
c0 -1 6 -56 14 -122 27 -226 30 -250 31 -287 1 -80 -29 -36 -39 57 -5 48 -21
157 -35 245 -6 35 -9 66 -6 68 2 3 0 13 -6 23 -8 16 -6 19 16 19 14 0 25 -1
25 -3z m3947 -29 c-3 -8 -6 -5 -6 6 -1 11 2 17 5 13 3 -3 4 -12 1 -19z m-5519
-104 c4 -33 -11 -24 -23 15 -5 17 -4 22 6 19 8 -3 15 -18 17 -34z m31 -67 c1
-4 -8 -2 -18 5 -16 10 -17 15 -8 26 9 12 12 11 18 -5 4 -10 8 -21 8 -26z
m1235 3 c109 -27 147 -42 135 -54 -9 -9 -272 59 -277 72 -5 17 8 16 142 -18z
m1236 -51 c-8 -5 -32 -19 -53 -30 -22 -12 -35 -24 -31 -31 4 -7 3 -8 -4 -4
-21 13 -13 24 36 49 48 25 79 35 52 16z m-144 -68 c-3 -5 -16 -11 -28 -14 -13
-2 -32 -7 -43 -11 -11 -3 -2 3 20 14 44 21 59 25 51 11z m-121 -41 c-11 -5
-29 -9 -40 -9 l-20 0 20 9 c11 5 29 9 40 9 l20 0 -20 -9z m-92 -17 c-7 -2 -21
-2 -30 0 -10 3 -4 5 12 5 17 0 24 -2 18 -5z m-1016 -85 c-3 -8 -6 -5 -6 6 -1
11 2 17 5 13 3 -3 4 -12 1 -19z m1176 -3 c4 -9 -1 -11 -14 -8 -26 7 -32 19 -9
20 10 1 21 -4 23 -12z m2002 -185 c-3 -5 -11 -10 -16 -10 -6 0 -7 5 -4 10 3 6
11 10 16 10 6 0 7 -4 4 -10z m-141 -104 c-4 -10 2 -12 20 -9 24 5 26 3 26 -30
0 -19 3 -42 6 -51 4 -9 1 -16 -6 -16 -6 0 -14 9 -17 20 -3 11 -9 20 -13 20
-12 0 -33 57 -25 69 9 16 15 13 9 -3z m56 -137 c15 -28 4 -38 -15 -13 -17 22
-19 34 -5 34 5 0 14 -9 20 -21z m805 0 c11 -17 -1 -21 -15 -4 -8 9 -8 15 -2
15 6 0 14 -5 17 -11z m-10 -39 c-3 -5 2 -13 10 -18 13 -7 14 -14 5 -37 -8 -22
-8 -30 2 -36 7 -4 13 -23 15 -42 1 -27 -3 -36 -17 -40 -11 -3 -21 1 -24 9 -3
8 -13 14 -21 14 -9 0 -14 4 -11 9 3 5 -1 14 -8 20 -12 10 -14 7 -12 -14 3 -18
0 -23 -8 -15 -7 5 -12 33 -12 61 1 41 5 54 21 63 11 6 26 19 33 29 13 17 38
14 27 -3z m-838 -86 c-3 -3 -12 -4 -19 -1 -8 3 -5 6 6 6 11 1 17 -2 13 -5z
m751 -125 c12 -21 12 -22 -1 -6 -8 9 -19 17 -26 17 -6 0 -11 5 -11 11 0 17 22
5 38 -22z m-217 -189 c23 -13 27 -70 5 -70 -8 0 -20 -2 -28 -3 -7 -2 -9 -2 -5
1 5 2 -1 15 -13 27 -19 20 -20 26 -9 39 17 18 24 19 50 6z m-146 -308 c5 -12
16 -20 22 -17 21 7 15 -2 -13 -20 -15 -9 -24 -12 -20 -7 4 6 -3 16 -14 22 -25
14 -28 53 -2 48 9 -2 21 -13 27 -26z m35 -46 c0 -2 -7 -6 -15 -10 -8 -3 -15
-1 -15 4 0 6 7 10 15 10 8 0 15 -2 15 -4z m5 -36 c3 -5 -1 -10 -9 -10 -9 0
-16 5 -16 10 0 6 4 10 9 10 6 0 13 -4 16 -10z"/>
<path d="M2840 6340 c0 -5 5 -10 10 -10 6 0 10 5 10 10 0 6 -4 10 -10 10 -5 0
-10 -4 -10 -10z"/>
<path d="M11410 4314 c0 -6 7 -14 15 -18 10 -3 15 1 15 13 0 10 -7 18 -15 18
-8 0 -15 -6 -15 -13z"/>
<path d="M11270 4310 c0 -5 9 -10 20 -10 11 0 20 5 20 10 0 6 -9 10 -20 10
-11 0 -20 -4 -20 -10z"/>
<path d="M11345 4269 c-11 -16 -1 -19 13 -3 7 8 8 14 3 14 -5 0 -13 -5 -16
-11z"/>
<path d="M11275 4260 c3 -5 10 -10 16 -10 5 0 9 5 9 10 0 6 -7 10 -16 10 -8 0
-12 -4 -9 -10z"/>
<path d="M11580 4260 c0 -5 5 -10 10 -10 6 0 10 5 10 10 0 6 -4 10 -10 10 -5
0 -10 -4 -10 -10z"/>
<path d="M11641 4154 c0 -11 3 -14 6 -6 3 7 2 16 -1 19 -3 4 -6 -2 -5 -13z"/>
<path d="M12081 3104 c0 -11 3 -14 6 -6 3 7 2 16 -1 19 -3 4 -6 -2 -5 -13z"/>
<path d="M12045 3090 c3 -5 8 -10 11 -10 2 0 4 5 4 10 0 6 -5 10 -11 10 -5 0
-7 -4 -4 -10z"/>
<path d="M12095 3050 c3 -5 8 -10 11 -10 2 0 4 5 4 10 0 6 -5 10 -11 10 -5 0
-7 -4 -4 -10z"/>
<path d="M8841 7964 c0 -11 3 -14 6 -6 3 7 2 16 -1 19 -3 4 -6 -2 -5 -13z"/>
<path d="M8852 7670 c0 -19 2 -27 5 -17 2 9 2 25 0 35 -3 9 -5 1 -5 -18z"/>
<path d="M13710 7258 c0 -9 5 -20 11 -23 17 -11 20 0 4 21 -13 17 -14 17 -15
2z"/>
<path d="M12032 6857 c-93 -12 -151 -24 -149 -31 2 -5 23 -21 48 -34 71 -38
157 -22 247 45 33 24 42 44 20 42 -7 -1 -82 -11 -166 -22z"/>
<path d="M10520 6836 c0 -11 31 -70 47 -88 9 -10 13 -31 11 -54 -3 -33 -7 -39
-28 -41 -14 -1 -44 -3 -67 -6 -23 -2 -44 0 -45 5 -2 6 -16 11 -31 11 -22 2
-29 8 -35 31 -4 16 -13 31 -20 34 -9 3 -12 -16 -12 -68 0 -62 -8 -163 -25
-306 l-4 -42 55 -7 c30 -3 132 -6 227 -6 95 0 240 -6 322 -14 83 -7 223 -17
313 -20 132 -6 162 -4 162 7 0 7 -7 54 -15 103 -12 79 -45 356 -45 385 0 14
27 13 33 -2 18 -49 50 -207 67 -337 11 -85 23 -158 27 -162 5 -3 70 -9 146
-13 l137 -7 0 38 c0 21 -3 55 -6 76 -7 37 -7 37 -55 37 -55 0 -79 18 -79 60 0
39 24 60 70 60 21 0 41 3 43 8 6 8 -16 141 -38 233 l-16 66 -347 6 c-191 4
-447 10 -569 14 -123 3 -223 3 -223 -1z m280 -163 c0 -19 -17 -16 -24 5 -3 9
-9 24 -12 32 -5 10 0 9 15 -4 11 -11 21 -25 21 -33z m-136 15 c-3 -5 -15 -6
-26 -2 -15 4 -18 3 -13 -6 5 -9 4 -11 -3 -6 -24 15 -13 33 18 28 16 -2 27 -8
24 -14z m305 -223 c-9 -8 -193 -54 -264 -65 -102 -16 -235 -27 -235 -19 0 4
28 10 63 14 63 7 304 49 367 64 40 10 76 13 69 6z"/>
<path d="M3020 6755 c0 -8 2 -15 4 -15 2 0 6 7 10 15 3 8 1 15 -4 15 -6 0 -10
-7 -10 -15z"/>
<path d="M1491 6694 c0 -11 3 -14 6 -6 3 7 2 16 -1 19 -3 4 -6 -2 -5 -13z"/>
<path d="M640 5655 c0 -5 5 -17 10 -25 5 -8 10 -10 10 -5 0 6 -5 17 -10 25 -5
8 -10 11 -10 5z"/>
<path d="M1989 5148 c-7 -25 -7 -48 1 -53 6 -4 10 7 10 24 0 17 -2 31 -5 31
-3 0 -5 -1 -6 -2z"/>
<path d="M10257 4523 c-4 -3 -7 -11 -7 -17 0 -6 5 -4 10 4 6 9 10 11 10 3 0
-7 7 -10 16 -6 13 5 13 7 2 14 -16 11 -23 11 -31 2z"/>
<path d="M10465 4410 c-3 -5 1 -10 10 -10 9 0 13 5 10 10 -3 6 -8 10 -10 10
-2 0 -7 -4 -10 -10z"/>
<path d="M9554 3734 c3 -9 6 -18 6 -20 0 -2 7 -4 16 -4 11 0 14 5 10 16 -3 9
-6 18 -6 20 0 2 -7 4 -16 4 -11 0 -14 -5 -10 -16z"/>
<path d="M8345 3530 c-3 -5 -1 -10 4 -10 6 0 11 5 11 10 0 6 -2 10 -4 10 -3 0
-8 -4 -11 -10z"/>
<path d="M8530 3529 c0 -5 5 -7 10 -4 6 3 10 8 10 11 0 2 -4 4 -10 4 -5 0 -10
-5 -10 -11z"/>
<path d="M8270 3450 c0 -5 5 -10 10 -10 6 0 10 5 10 10 0 6 -4 10 -10 10 -5 0
-10 -4 -10 -10z"/>
<path d="M12288 3453 c6 -2 18 -2 25 0 6 3 1 5 -13 5 -14 0 -19 -2 -12 -5z"/>
<path d="M12223 3443 c9 -2 23 -2 30 0 6 3 -1 5 -18 5 -16 0 -22 -2 -12 -5z"/>
<path d="M8180 3376 c0 -9 5 -16 10 -16 6 0 10 4 10 9 0 6 -4 13 -10 16 -5 3
-10 -1 -10 -9z"/>
<path d="M9365 3180 c-13 -6 -15 -9 -5 -9 8 0 22 4 30 9 18 12 2 12 -25 0z"/>
<path d="M12436 3123 c-7 -18 10 -41 21 -28 5 4 3 10 -4 12 -7 2 -9 11 -6 19
3 8 3 14 0 14 -3 0 -8 -8 -11 -17z"/>
<path d="M12406 3115 c-3 -8 -1 -15 4 -15 6 0 10 7 10 15 0 8 -2 15 -4 15 -2
0 -6 -7 -10 -15z"/>
<path d="M12469 3033 c-13 -16 -12 -17 4 -4 16 13 21 21 13 21 -2 0 -10 -8
-17 -17z"/>
<path d="M7455 2465 c-22 -7 -84 -23 -137 -35 -54 -12 -98 -26 -98 -32 0 -5 8
-7 17 -4 34 13 109 35 178 50 38 9 74 21 79 26 12 12 12 12 -39 -5z"/>
<path d="M4712 838 c-35 -17 -60 -34 -55 -38 23 -21 559 -198 569 -188 2 3
-69 44 -159 93 -89 48 -191 105 -226 127 -34 21 -64 38 -65 37 0 0 -29 -14
-64 -31z"/>
</g>
</svg>
